<?xml version="1.0" standalone="no"?>
<!DOCTYPE svg PUBLIC "-//W3C//DTD SVG 1.1//EN" "http://www.w3.org/Graphics/SVG/1.1/DTD/svg11.dtd" >
<svg xmlns="http://www.w3.org/2000/svg" xmlns:xlink="http://www.w3.org/1999/xlink" version="1.1">
<metadata>
Created by FontForge 20170731 at Wed Jan 25 19:58:36 2012
 By Aleksey,,,
(c) 1992, 1994, 1997, 2000, 2004, 2010 Adobe Systems Incorporated. All rights reserved.
</metadata>
<defs>
<font id="MyriadArabic-It" horiz-adv-x="0" >
  <font-face 
    font-family="Myriad Arabic"
    font-weight="400"
    font-style="italic"
    font-stretch="normal"
    units-per-em="1400"
    panose-1="1 1 1 1 1 1 1 1 1 1"
    ascent="950"
    descent="-450"
    x-height="484"
    cap-height="674"
    bbox="-209 -628 2557 1278"
    underline-thickness="24"
    underline-position="-97"
    slope="13"
    unicode-range="U+0020-FD3F"
  />
<missing-glyph horiz-adv-x="500" 
d="M0 0v700h500v-700h-500zM250 395l170 255h-340zM280 350l170 -255v510zM80 50h340l-170 255zM50 605v-510l170 255z" />
    <glyph glyph-name="uni0622.f" unicode="&#x622;" horiz-adv-x="263" arabic-form="final" 
d="M137 204l-125 516l69 5l119 -494q20 -79 56 -112t90 -35q56 0 56 -45q0 -15 -9.5 -27t-28.5 -12q-95 0 -147.5 46.5t-79.5 157.5zM77 814q-23 0 -63.5 12.5t-56.5 12.5q-29 0 -26 -47l-48 15q-6 40 8.5 64.5t53.5 24.5q24 0 67 -13t63 -13q33 0 63 33l18 -43
q-18 -46 -79 -46z" />
    <glyph glyph-name="uni0623.f" unicode="&#x623;" horiz-adv-x="263" arabic-form="final" 
d="M137 204l-125 516l69 5l119 -494q20 -79 56 -112t90 -35q56 0 56 -45q0 -15 -9.5 -27t-28.5 -12q-95 0 -147.5 46.5t-79.5 157.5zM-71 790l-2 46q13 11 43 11q-50 27 -50 73q0 33 27 54.5t64 21.5q53 0 84 -27l-5 -45q-35 23 -79 23q-21 0 -31.5 -9.5t-10.5 -22.5
q0 -24 28.5 -41.5t71.5 -17.5h64l-9 -49h-64q-93 0 -131 -17z" />
    <glyph glyph-name="uni0624.f" unicode="&#x624;" horiz-adv-x="527" arabic-form="final" 
d="M160 466l-3 46q15 11 43 11q-49 28 -49 73q0 34 26.5 55t63.5 21q52 0 85 -27l-6 -45q-35 23 -78 23q-21 0 -32 -9.5t-11 -22.5q0 -24 29 -41.5t72 -17.5h64l-10 -49h-63q-93 0 -131 -17zM541 84h69q56 0 56 -45q0 -15 -10 -27t-31 -12h-82q-8 -123 -73.5 -200
t-165.5 -77q-84 0 -144 47l2 60q62 -30 134 -30q79 0 128.5 56t56.5 144h-36q-131 0 -194.5 54.5t-63.5 137.5q0 63 42.5 107t103.5 44q32 0 64.5 -15t62.5 -45t52.5 -81.5t28.5 -117.5zM445 84h33q-12 86 -54 137t-97 51q-33 0 -55.5 -23.5t-22.5 -56.5q0 -108 196 -108z
" />
    <glyph glyph-name="uni0625.f" unicode="&#x625;" horiz-adv-x="263" arabic-form="final" 
d="M137 204l-125 516l69 5l119 -494q20 -79 56 -112t90 -35q56 0 56 -45q0 -15 -9.5 -27t-28.5 -12q-95 0 -147.5 46.5t-79.5 157.5zM214 -277l-2 46q12 10 42 12q-49 26 -49 73q0 33 27 54t64 21q52 0 84 -26l-5 -46q-37 23 -79 23q-21 0 -31.5 -9.5t-10.5 -22.5
q0 -24 28.5 -41.5t71.5 -17.5h64l-9 -49h-64q-93 0 -131 -17z" />
    <glyph glyph-name="uni0626.i" unicode="&#x626;" horiz-adv-x="322" arabic-form="initial" 
d="M100 0q-57 0 -57 45q0 15 9.5 27t30.5 12h13q121 0 153 23q-17 109 -127 255l62 28q48 -65 90 -153.5t42 -158.5q0 -20 -2 -29q-45 -49 -204 -49h-10zM-29 500l-3 46q15 11 43 11q-49 28 -49 73q0 34 26.5 55t63.5 21q52 0 85 -27l-6 -45q-35 23 -78 23q-21 0 -32 -9.5
t-11 -22.5q0 -24 29 -41.5t72 -17.5h64l-10 -49h-63q-93 0 -131 -17z" />
    <glyph glyph-name="uni0626.m" unicode="&#x626;" horiz-adv-x="313" arabic-form="medial" 
d="M86 84q50 0 75.5 24.5t30 56.5t0.5 81l55 4q3 -28 6 -47q25 -117 142 -119q56 0 56 -45q0 -15 -10 -27t-31 -12q-124 0 -174 101q-10 -49 -46 -75t-90 -26q-56 0 -56 45q0 15 10 27t32 12zM74 394l-3 46q15 11 43 11q-49 28 -49 73q0 34 26.5 55t63.5 21q52 0 85 -27
l-6 -45q-35 23 -78 23q-21 0 -32 -9.5t-11 -22.5q0 -24 29 -41.5t72 -17.5h64l-10 -49h-63q-93 0 -131 -17z" />
    <glyph glyph-name="uni0626.f" unicode="&#x626;" horiz-adv-x="666" arabic-form="final" 
d="M142 72q0 51 12 97l54 -8q-4 -26 -4 -62q0 -80 24.5 -138t66.5 -89.5t88.5 -45.5t99.5 -14q159 0 225 85q19 25 19 48q0 27 -24.5 41t-107.5 14h-12l17 84h149q56 0 56 -45q0 -15 -10 -27t-31 -12h-8q33 -19 33 -63q0 -36 -19 -69q-33 -61 -108 -99t-175 -38
q-88 0 -155.5 27t-108 75t-61 108t-20.5 131zM252 387l-3 46q15 11 43 11q-49 28 -49 73q0 34 26.5 55t63.5 21q53 0 84 -27l-5 -45q-35 23 -78 23q-21 0 -32 -9.5t-11 -22.5q0 -24 29 -41.5t72 -17.5h64l-10 -49h-63q-93 0 -131 -17z" />
    <glyph glyph-name="uni0627.f" unicode="&#x627;" horiz-adv-x="263" arabic-form="final" 
d="M137 204l-125 516l69 5l119 -494q20 -79 56 -112t90 -35q56 0 56 -45q0 -15 -9.5 -27t-28.5 -12q-95 0 -147.5 46.5t-79.5 157.5z" />
    <glyph glyph-name="uni0628.i" unicode="&#x628;" horiz-adv-x="286" arabic-form="initial" 
d="M100 0q-57 0 -57 45q0 15 9.5 27t30.5 12h13q121 0 153 23q-17 109 -127 255l62 28q48 -65 90 -153.5t42 -158.5q0 -20 -2 -29q-45 -49 -204 -49h-10zM273 -249q-25 0 -41.5 17t-16.5 43q0 19 12 32t31 13q26 0 42.5 -17.5t16.5 -43.5q0 -18 -12.5 -31t-31.5 -13z" />
    <glyph glyph-name="uni0628.m" unicode="&#x628;" horiz-adv-x="313" arabic-form="medial" 
d="M86 84q50 0 75.5 24.5t30 56.5t0.5 81l55 4q3 -28 6 -47q25 -117 142 -119q56 0 56 -45q0 -15 -10 -27t-31 -12q-124 0 -174 101q-10 -49 -46 -75t-90 -26q-56 0 -56 45q0 15 10 27t32 12zM305 -249q-25 0 -41.5 17t-16.5 43q0 19 12 32t31 13q26 0 42.5 -17.5
t16.5 -43.5q0 -18 -12.5 -31t-31.5 -13z" />
    <glyph glyph-name="uni0628.f" unicode="&#x628;" horiz-adv-x="917" arabic-form="final" 
d="M94 305q0 35 6 57l54 -8q-1 -8 -1 -27q0 -136 89.5 -200t241.5 -64q119 0 203.5 23.5t122.5 52.5q-17 34 -17 85q0 20 1 28l55 6q0 -27 5 -57q21 -111 146 -117q56 0 56 -45q0 -14 -10 -26.5t-29 -12.5q-114 0 -173 76q-56 -44 -150.5 -71t-204.5 -27q-189 0 -292 81.5
t-103 245.5zM603 -249q-25 0 -41.5 17t-16.5 43q0 19 12 32t31 13q26 0 42.5 -17.5t16.5 -43.5q0 -18 -12.5 -31t-31.5 -13z" />
    <glyph glyph-name="uni0629.f" unicode="&#x629;" horiz-adv-x="476" arabic-form="final" 
d="M227 620q-25 -1 -40.5 15.5t-15.5 42.5q0 19 11.5 31t29.5 12q27 0 42.5 -16.5t15.5 -42.5q0 -18 -12 -30t-31 -12zM356 620q-25 -1 -41 15.5t-16 42.5q0 19 12 31t30 12q26 0 41.5 -16.5t15.5 -42.5q0 -18 -12 -30t-30 -12zM346 524l78 -314q30 -126 135 -126
q56 0 56 -45q0 -15 -9.5 -27t-29.5 -12q-118 0 -173 89q-46 -29 -116 -29q-78 0 -129 41.5t-51 108.5q0 75 69 141q38 40 129 86l-21 81zM365 184l-43 181q-81 -34 -117 -76t-36 -79q0 -34 30 -52t81 -18t92 18q-1 3 -3.5 12t-3.5 14z" />
    <glyph glyph-name="uni062A.i" unicode="&#x62a;" horiz-adv-x="286" arabic-form="initial" 
d="M100 0q-57 0 -57 45q0 15 9.5 27t30.5 12h13q121 0 153 23q-17 109 -127 255l62 28q48 -65 90 -153.5t42 -158.5q0 -20 -2 -29q-45 -49 -204 -49h-10zM14 510q-25 0 -40.5 16t-15.5 42q0 19 11.5 31.5t29.5 12.5q26 0 42 -17t16 -42q0 -18 -12 -30.5t-31 -12.5zM143 510
q-25 0 -41 16.5t-16 41.5q0 19 12 31.5t30 12.5q26 0 41.5 -17t15.5 -42q0 -18 -12 -30.5t-30 -12.5z" />
    <glyph glyph-name="uni062A.m" unicode="&#x62a;" horiz-adv-x="313" arabic-form="medial" 
d="M86 84q50 0 75.5 24.5t30 56.5t0.5 81l55 4q3 -28 6 -47q25 -117 142 -119q56 0 56 -45q0 -15 -10 -27t-31 -12q-124 0 -174 101q-10 -49 -46 -75t-90 -26q-56 0 -56 45q0 15 10 27t32 12zM111 404q-25 0 -40.5 16t-15.5 42q0 19 11.5 31.5t29.5 12.5q26 0 41.5 -16.5
t15.5 -42.5q0 -18 -11.5 -30.5t-30.5 -12.5zM240 404q-25 0 -41 16.5t-16 41.5q0 19 12 31.5t30 12.5q26 0 41.5 -17t15.5 -42q0 -18 -12 -30.5t-30 -12.5z" />
    <glyph glyph-name="uni062A.f" unicode="&#x62a;" horiz-adv-x="917" arabic-form="final" 
d="M94 305q0 35 6 57l54 -8q-1 -8 -1 -27q0 -136 89.5 -200t241.5 -64q119 0 203.5 23.5t122.5 52.5q-17 34 -17 85q0 20 1 28l55 6q0 -27 5 -57q21 -111 146 -117q56 0 56 -45q0 -14 -10 -26.5t-29 -12.5q-114 0 -173 76q-56 -44 -150.5 -71t-204.5 -27q-189 0 -292 81.5
t-103 245.5zM378 422q-25 0 -40.5 16t-15.5 42q0 19 11.5 31.5t29.5 12.5q26 0 42 -17t16 -42q0 -18 -12 -30.5t-31 -12.5zM507 422q-25 0 -40.5 16t-15.5 42q0 19 11.5 31.5t29.5 12.5q26 0 42 -17t16 -42q0 -18 -12 -30.5t-31 -12.5z" />
    <glyph glyph-name="uni062B.i" unicode="&#x62b;" horiz-adv-x="286" arabic-form="initial" 
d="M100 0q-57 0 -57 45q0 15 9.5 27t30.5 12h13q121 0 153 23q-17 109 -127 255l62 28q48 -65 90 -153.5t42 -158.5q0 -20 -2 -29q-45 -49 -204 -49h-10zM56 629q-25 0 -40.5 16t-15.5 42q0 19 12 31t29 12q27 0 42.5 -16.5t15.5 -42.5q0 -18 -12 -30t-31 -12zM14 510
q-25 0 -40.5 16t-15.5 42q0 19 11.5 31.5t29.5 12.5q26 0 42 -17t16 -42q0 -18 -12 -30.5t-31 -12.5zM143 510q-25 0 -41 16.5t-16 41.5q0 19 12 31.5t30 12.5q26 0 41.5 -17t15.5 -42q0 -18 -12 -30.5t-30 -12.5z" />
    <glyph glyph-name="uni062B.m" unicode="&#x62b;" horiz-adv-x="313" arabic-form="medial" 
d="M86 84q50 0 75.5 24.5t30 56.5t0.5 81l55 4q3 -28 6 -47q25 -117 142 -119q56 0 56 -45q0 -15 -10 -27t-31 -12q-124 0 -174 101q-10 -49 -46 -75t-90 -26q-56 0 -56 45q0 15 10 27t32 12zM153 523q-25 0 -40.5 16t-15.5 42q0 19 12 31t29 12q27 0 42.5 -16.5t15.5 -42.5
q0 -18 -12 -30t-31 -12zM111 404q-25 0 -40.5 16t-15.5 42q0 19 11.5 31.5t29.5 12.5q26 0 41.5 -16.5t15.5 -42.5q0 -18 -11.5 -30.5t-30.5 -12.5zM240 404q-25 0 -41 16.5t-16 41.5q0 19 12 31.5t30 12.5q26 0 41.5 -17t15.5 -42q0 -18 -12 -30.5t-30 -12.5z" />
    <glyph glyph-name="uni062B.f" unicode="&#x62b;" horiz-adv-x="917" arabic-form="final" 
d="M94 305q0 35 6 57l54 -8q-1 -8 -1 -27q0 -136 89.5 -200t241.5 -64q119 0 203.5 23.5t122.5 52.5q-17 34 -17 85q0 20 1 28l55 6q0 -27 5 -57q21 -111 146 -117q56 0 56 -45q0 -14 -10 -26.5t-29 -12.5q-114 0 -173 76q-56 -44 -150.5 -71t-204.5 -27q-189 0 -292 81.5
t-103 245.5zM421 541q-25 0 -41 16.5t-16 41.5q0 19 12 31t30 12q26 0 41.5 -16.5t15.5 -42.5q0 -18 -12 -30t-30 -12zM378 422q-25 0 -40.5 16t-15.5 42q0 19 11.5 31.5t29.5 12.5q26 0 42 -17t16 -42q0 -18 -12 -30.5t-31 -12.5zM507 422q-25 0 -40.5 16t-15.5 42
q0 19 11.5 31.5t29.5 12.5q26 0 42 -17t16 -42q0 -18 -12 -30.5t-31 -12.5z" />
    <glyph glyph-name="uni062C.i" unicode="&#x62c;" horiz-adv-x="649" arabic-form="initial" 
d="M98 0q-54 0 -54 44q0 15 11 27.5t33 12.5h8q204 0 326 66q87 44 99 48q-21 7 -88.5 34.5t-117.5 42.5t-90 15q-83 0 -131 -24l10 76q41 23 110 23q16 0 34 -2t32.5 -4.5t35.5 -8.5t32.5 -9.5t35 -12.5t32.5 -12.5t35.5 -14.5t33.5 -14q95 -39 152 -39h45l-15 -76h-16
q-54 0 -168 -70q-102 -60 -181.5 -81t-190.5 -21h-13zM457 -210q-25 0 -41.5 17t-16.5 43q0 19 12 32t30 13q27 0 43 -17.5t16 -43.5q0 -18 -12 -31t-31 -13z" />
    <glyph glyph-name="uni062C.m" unicode="&#x62c;" horiz-adv-x="680" arabic-form="medial" 
d="M658 180h-28q-6 0 -20 -2q23 -94 152 -94q56 0 56 -45q0 -15 -9.5 -27t-28.5 -12q-192 2 -222 159q-23 -12 -71 -44q-97 -66 -179.5 -90.5t-196.5 -24.5h-13q-54 0 -54 44q0 15 10.5 27.5t32.5 12.5h8q195 0 308 60q26 13 49.5 26.5t36.5 21t23 11.5q-26 8 -83 32
t-109 39.5t-102 15.5q-79 0 -125 -25l10 77q40 23 104 23q60 0 120 -17.5t142 -52.5q91 -40 164 -40h42zM441 -105q27 0 43 -17.5t16 -43.5q0 -18 -12 -31t-31 -13q-25 0 -41.5 17t-16.5 43q0 19 12 32t30 13z" />
    <glyph glyph-name="uni062C.f" unicode="&#x62c;" horiz-adv-x="669" arabic-form="final" 
d="M656 285l-10 -81q-34 2 -60 2q33 -125 167 -122q56 0 56 -45q0 -14 -10 -26.5t-29 -12.5q-212 0 -244 202q-12 -1 -64 -11q-97 -26 -158 -86.5t-61 -148.5q0 -87 53 -149t135 -89.5t185 -27.5q92 0 154 15l-18 -71q-43 -18 -153 -18q-189 0 -313 90.5t-124 246.5
q0 51 19.5 96t50 77.5t70.5 58t80 40.5t79 22q-10 3 -56 19t-91.5 27t-84.5 11q-88 0 -135 -25l11 79q48 22 111 22q37 0 79.5 -8.5t70.5 -17.5t72.5 -25t63.5 -22q57 -22 100 -22h54zM431 -45q0 19 12.5 32t30.5 13q27 0 43 -17t16 -44q0 -18 -12.5 -30.5t-31.5 -12.5
q-25 -1 -41.5 16t-16.5 43z" />
    <glyph glyph-name="uni062D.i" unicode="&#x62d;" horiz-adv-x="649" arabic-form="initial" 
d="M98 0q-54 0 -54 44q0 15 11 27.5t33 12.5h8q204 0 326 66q87 44 99 48q-21 7 -88.5 34.5t-117.5 42.5t-90 15q-83 0 -131 -24l10 76q41 23 110 23q16 0 34 -2t32.5 -4.5t35.5 -8.5t32.5 -9.5t35 -12.5t32.5 -12.5t35.5 -14.5t33.5 -14q95 -39 152 -39h45l-15 -76h-16
q-54 0 -168 -70q-102 -60 -181.5 -81t-190.5 -21h-13z" />
    <glyph glyph-name="uni062D.m" unicode="&#x62d;" horiz-adv-x="680" arabic-form="medial" 
d="M658 180h-28q-6 0 -20 -2q23 -94 152 -94q56 0 56 -45q0 -15 -9.5 -27t-28.5 -12q-192 2 -222 159q-23 -12 -71 -44q-97 -66 -179.5 -90.5t-196.5 -24.5h-13q-54 0 -54 44q0 15 10.5 27.5t32.5 12.5h8q195 0 308 60q26 13 49.5 26.5t36.5 21t23 11.5q-26 8 -83 32
t-109 39.5t-102 15.5q-79 0 -125 -25l10 77q40 23 104 23q60 0 120 -17.5t142 -52.5q91 -40 164 -40h42z" />
    <glyph glyph-name="uni062D.f" unicode="&#x62d;" horiz-adv-x="669" arabic-form="final" 
d="M656 285l-10 -81q-34 2 -60 2q33 -125 167 -122q56 0 56 -45q0 -14 -10 -26.5t-29 -12.5q-212 0 -244 202q-12 -1 -64 -11q-97 -26 -158 -86.5t-61 -148.5q0 -87 53 -149t135 -89.5t185 -27.5q92 0 154 15l-18 -71q-43 -18 -153 -18q-189 0 -313 90.5t-124 246.5
q0 51 19.5 96t50 77.5t70.5 58t80 40.5t79 22q-10 3 -56 19t-91.5 27t-84.5 11q-88 0 -135 -25l11 79q48 22 111 22q37 0 79.5 -8.5t70.5 -17.5t72.5 -25t63.5 -22q57 -22 100 -22h54z" />
    <glyph glyph-name="uni062E.i" unicode="&#x62e;" horiz-adv-x="649" arabic-form="initial" 
d="M98 0q-54 0 -54 44q0 15 11 27.5t33 12.5h8q204 0 326 66q87 44 99 48q-21 7 -88.5 34.5t-117.5 42.5t-90 15q-83 0 -131 -24l10 76q41 23 110 23q16 0 34 -2t32.5 -4.5t35.5 -8.5t32.5 -9.5t35 -12.5t32.5 -12.5t35.5 -14.5t33.5 -14q95 -39 152 -39h45l-15 -76h-16
q-54 0 -168 -70q-102 -60 -181.5 -81t-190.5 -21h-13zM348 494q-25 -1 -41 16t-16 44q0 19 12 31.5t30 12.5q27 0 43 -17t16 -44q0 -18 -12 -30.5t-32 -12.5z" />
    <glyph glyph-name="uni062E.m" unicode="&#x62e;" horiz-adv-x="680" arabic-form="medial" 
d="M348 494q-25 -1 -41 16t-16 44q0 19 12 31.5t30 12.5q27 0 43 -17t16 -44q0 -18 -12 -30.5t-32 -12.5zM658 180h-28q-6 0 -20 -2q23 -94 152 -94q56 0 56 -45q0 -15 -9.5 -27t-28.5 -12q-192 2 -222 159q-23 -12 -71 -44q-97 -66 -179.5 -90.5t-196.5 -24.5h-13
q-54 0 -54 44q0 15 10.5 27.5t32.5 12.5h8q195 0 308 60q26 13 49.5 26.5t36.5 21t23 11.5q-26 8 -83 32t-109 39.5t-102 15.5q-79 0 -125 -25l10 77q40 23 104 23q60 0 120 -17.5t142 -52.5q91 -40 164 -40h42z" />
    <glyph glyph-name="uni062E.f" unicode="&#x62e;" horiz-adv-x="669" arabic-form="final" 
d="M352 508q-25 -1 -41.5 16t-16.5 44q0 19 12 31.5t30 12.5q27 0 43.5 -17t16.5 -44q0 -18 -12.5 -30.5t-31.5 -12.5zM656 285l-10 -81q-34 2 -60 2q33 -125 167 -122q56 0 56 -45q0 -14 -10 -26.5t-29 -12.5q-212 0 -244 202q-12 -1 -64 -11q-97 -26 -158 -86.5
t-61 -148.5q0 -87 53 -149t135 -89.5t185 -27.5q92 0 154 15l-18 -71q-43 -18 -153 -18q-189 0 -313 90.5t-124 246.5q0 51 19.5 96t50 77.5t70.5 58t80 40.5t79 22q-10 3 -56 19t-91.5 27t-84.5 11q-88 0 -135 -25l11 79q48 22 111 22q37 0 79.5 -8.5t70.5 -17.5t72.5 -25
t63.5 -22q57 -22 100 -22h54z" />
    <glyph glyph-name="uni062F.f" unicode="&#x62f;" horiz-adv-x="577" arabic-form="final" 
d="M120 158l56 10q18 -47 48.5 -65t86.5 -18q83 0 121 43q25 28 17 46q-59 140 -142 304l68 25q19 -40 67 -146.5t79 -170.5q30 -59 60.5 -80.5t78.5 -21.5q56 0 56 -45q0 -15 -9.5 -27t-29.5 -12q-69 0 -110 24.5t-78 80.5q-11 -46 -59.5 -75.5t-116.5 -29.5
q-85 0 -129.5 34.5t-63.5 123.5z" />
    <glyph glyph-name="uni0630.f" unicode="&#x630;" horiz-adv-x="577" arabic-form="final" 
d="M120 158l56 10q18 -47 48.5 -65t86.5 -18q83 0 121 43q25 28 17 46q-59 140 -142 304l68 25q19 -40 67 -146.5t79 -170.5q30 -59 60.5 -80.5t78.5 -21.5q56 0 56 -45q0 -15 -9.5 -27t-29.5 -12q-69 0 -110 24.5t-78 80.5q-11 -46 -59.5 -75.5t-116.5 -29.5
q-85 0 -129.5 34.5t-63.5 123.5zM313 606q-25 -1 -41.5 16t-16.5 44q0 19 12 31.5t30 12.5q27 0 43.5 -17t16.5 -44q0 -18 -12.5 -30.5t-31.5 -12.5z" />
    <glyph glyph-name="uni0631.f" unicode="&#x631;" horiz-adv-x="470" arabic-form="final" 
d="M295 243l61 36q49 -65 85 -132q45 -63 112 -63q56 0 56 -45q0 -15 -9.5 -27t-29.5 -12q-47 0 -76 18q6 -19 6 -44q-1 -101 -60.5 -162t-135.5 -61q-94 0 -150 53l-3 62q63 -35 141 -35q53 0 94 36t50 90q2 7 2 26q0 37 -45.5 114.5t-97.5 145.5z" />
    <glyph glyph-name="uni0632.f" unicode="&#x632;" horiz-adv-x="470" arabic-form="final" 
d="M263 395q-25 -1 -41 16t-16 44q0 19 12 31.5t30 12.5q27 0 43 -17t16 -44q0 -18 -12.5 -30.5t-31.5 -12.5zM295 243l61 36q49 -65 85 -132q45 -63 112 -63q56 0 56 -45q0 -15 -9.5 -27t-29.5 -12q-47 0 -76 18q6 -19 6 -44q-1 -101 -60.5 -162t-135.5 -61q-94 0 -150 53
l-3 62q63 -35 141 -35q53 0 94 36t50 90q2 7 2 26q0 37 -45.5 114.5t-97.5 145.5z" />
    <glyph glyph-name="uni0633.i" unicode="&#x633;" horiz-adv-x="667" arabic-form="initial" 
d="M98 0q-54 0 -54 44q0 15 10 27.5t30 12.5q70 0 94 34.5t23 107.5l59 3v-38q6 -111 73 -111q43 0 62.5 31t15.5 103l58 3q-1 -10 -1 -20q0 -116 84 -116q31 0 49 19t18 50q0 55 -58 134l65 21q56 -83 56 -167q0 -61 -35.5 -99.5t-88.5 -38.5q-45 0 -70.5 18t-43.5 52
q-29 -70 -110 -70q-70 0 -105 73q-13 -34 -47.5 -53.5t-83.5 -19.5z" />
    <glyph glyph-name="uni0633.m" unicode="&#x633;" horiz-adv-x="726" arabic-form="medial" 
d="M88 84q69 0 92 35.5t21 106.5l59 3q-1 -10 1 -46q5 -103 74 -103q88 0 75 134l57 3q0 -3 0.5 -6.5t1 -9t0.5 -10.5q7 -110 75 -110q74 0 62 172l55 5l5 -45q9 -62 41 -95t102 -34q56 0 56 -45q0 -14 -10 -26.5t-29 -12.5q-131 0 -177 90q-10 -44 -37 -67t-66 -23
q-28 0 -49.5 12t-31.5 24.5t-21 34.5q-11 -31 -38.5 -51t-66.5 -20q-79 0 -109 74q-11 -32 -47.5 -53t-84.5 -21q-54 0 -54 44q0 15 11 27.5t33 12.5z" />
    <glyph glyph-name="uni0633.f" unicode="&#x633;" horiz-adv-x="1080" arabic-form="final" 
d="M695 0q-30 0 -49 15q4 -14 1 -40q-10 -88 -75.5 -139t-156.5 -51q-125 0 -199 86t-74 220q0 68 13 107l54 -9q-2 -11 -5 -67q0 -125 61.5 -189.5t148.5 -64.5q76 0 121 34.5t52 92.5q1 12 -1 32q-17 81 -105 218l62 25q42 -62 80 -151q17 -39 66 -39q87 0 75 134l57 3
q0 -14 1 -26q6 -57 24 -83.5t52 -26.5q25 0 40 17t19 48.5t4 53t-2 53.5l56 5q0 -18 4 -45q9 -61 41.5 -94.5t101.5 -34.5q56 0 56 -45q0 -15 -9.5 -27t-28.5 -12q-133 0 -177 90q-10 -44 -37.5 -67t-65.5 -23q-28 0 -49.5 12t-30.5 24.5t-21 34.5q-11 -31 -37.5 -51
t-66.5 -20z" />
    <glyph glyph-name="uni0634.i" unicode="&#x634;" horiz-adv-x="667" arabic-form="initial" 
d="M98 0q-54 0 -54 44q0 15 10 27.5t30 12.5q70 0 94 34.5t23 107.5l59 3v-38q6 -111 73 -111q43 0 62.5 31t15.5 103l58 3q-1 -10 -1 -20q0 -116 84 -116q31 0 49 19t18 50q0 55 -58 134l65 21q56 -83 56 -167q0 -61 -35.5 -99.5t-88.5 -38.5q-45 0 -70.5 18t-43.5 52
q-29 -70 -110 -70q-70 0 -105 73q-13 -34 -47.5 -53.5t-83.5 -19.5zM362 507q-25 0 -40.5 16t-15.5 42q0 19 12 31t30 12q26 0 41.5 -16.5t15.5 -42.5q0 -18 -12 -30t-31 -12zM320 388q-25 0 -40.5 16t-15.5 42q0 19 11.5 31.5t29.5 12.5q26 0 42 -17t16 -42
q0 -18 -12 -30.5t-31 -12.5zM449 388q-25 0 -41 16.5t-16 41.5q0 19 12 31.5t30 12.5q26 0 41.5 -17t15.5 -42q0 -18 -12 -30.5t-30 -12.5z" />
    <glyph glyph-name="uni0634.m" unicode="&#x634;" horiz-adv-x="726" arabic-form="medial" 
d="M88 84q69 0 92 35.5t21 106.5l59 3q-1 -10 1 -46q5 -103 74 -103q88 0 75 134l57 3q0 -3 0.5 -6.5t1 -9t0.5 -10.5q7 -110 75 -110q74 0 62 172l55 5l5 -45q9 -62 41 -95t102 -34q56 0 56 -45q0 -14 -10 -26.5t-29 -12.5q-131 0 -177 90q-10 -44 -37 -67t-66 -23
q-28 0 -49.5 12t-31.5 24.5t-21 34.5q-11 -31 -38.5 -51t-66.5 -20q-79 0 -109 74q-11 -32 -47.5 -53t-84.5 -21q-54 0 -54 44q0 15 11 27.5t33 12.5zM362 507q-25 0 -40.5 16t-15.5 42q0 19 12 31t30 12q26 0 41.5 -16.5t15.5 -42.5q0 -18 -12 -30t-31 -12zM320 388
q-25 0 -40.5 16t-15.5 42q0 19 11.5 31.5t29.5 12.5q26 0 42 -17t16 -42q0 -18 -12 -30.5t-31 -12.5zM449 388q-25 0 -41 16.5t-16 41.5q0 19 12 31.5t30 12.5q26 0 41.5 -17t15.5 -42q0 -18 -12 -30.5t-30 -12.5z" />
    <glyph glyph-name="uni0634.f" unicode="&#x634;" horiz-adv-x="1080" arabic-form="final" 
d="M695 0q-30 0 -49 15q4 -14 1 -40q-10 -88 -75.5 -139t-156.5 -51q-125 0 -199 86t-74 220q0 68 13 107l54 -9q-2 -11 -5 -67q0 -125 61.5 -189.5t148.5 -64.5q76 0 121 34.5t52 92.5q1 12 -1 32q-17 81 -105 218l62 25q42 -62 80 -151q17 -39 66 -39q87 0 75 134l57 3
q0 -14 1 -26q6 -57 24 -83.5t52 -26.5q25 0 40 17t19 48.5t4 53t-2 53.5l56 5q0 -18 4 -45q9 -61 41.5 -94.5t101.5 -34.5q56 0 56 -45q0 -15 -9.5 -27t-28.5 -12q-133 0 -177 90q-10 -44 -37.5 -67t-65.5 -23q-28 0 -49.5 12t-30.5 24.5t-21 34.5q-11 -31 -37.5 -51
t-66.5 -20zM713 507q-25 0 -40.5 16t-15.5 42q0 19 11.5 31t29.5 12q27 0 42.5 -16.5t15.5 -42.5q0 -18 -12 -30t-31 -12zM670 388q-25 0 -40.5 16t-15.5 42q0 19 12 31.5t29 12.5q26 0 42 -17t16 -42q0 -18 -12 -30.5t-31 -12.5zM799 388q-25 0 -40.5 16t-15.5 42
q0 19 12 31.5t29 12.5q26 0 42 -17t16 -42q0 -18 -12 -30.5t-31 -12.5z" />
    <glyph glyph-name="uni0635.i" unicode="&#x635;" horiz-adv-x="857" arabic-form="initial" 
d="M98 0q-54 0 -54 45q0 14 11 26.5t33 12.5q52 0 76 27t24.5 69.5t-2.5 94.5l58 4q2 -43 7 -68q15 -80 81 -105q126 276 312 276q104 0 169 -63t65 -144q0 -104 -110 -150q-72 -32 -223 -32q-144 0 -213.5 25t-100.5 79q-10 -44 -45 -70.5t-88 -26.5zM392 91
q57 -17 149 -17q125 0 187 19q87 24 87 84q0 52 -47.5 91.5t-125.5 39.5q-65 0 -131.5 -52t-118.5 -165z" />
    <glyph glyph-name="uni0635.m" unicode="&#x635;" horiz-adv-x="886" arabic-form="medial" 
d="M186 275l58 4q2 -43 7 -68q15 -80 81 -105q126 276 312 276q104 0 169 -63t65 -144q0 -45 -20 -77q48 -14 111 -14q56 0 56 -45q0 -15 -9.5 -27t-29.5 -12h-15q-103 0 -176 39q-14 -9 -27 -14q-72 -32 -223 -32q-144 0 -213.5 25t-100.5 79q-10 -44 -45 -70.5t-88 -26.5
q-54 0 -54 45q0 14 11 26.5t33 12.5q52 0 76 27t24.5 69.5t-2.5 94.5zM728 93q87 24 87 84q0 52 -47.5 91.5t-125.5 39.5q-65 0 -131.5 -52t-118.5 -165q57 -17 149 -17q125 0 187 19z" />
    <glyph glyph-name="uni0635.f" unicode="&#x635;" horiz-adv-x="1227" arabic-form="final" 
d="M484 235l65 27q49 -86 70 -112.5t53 -42.5q21 47 48.5 90t66.5 87.5t91 71t109 26.5q98 0 163.5 -62t65.5 -150q0 -39 -17 -70q47 -16 111 -16q56 0 56 -45q0 -15 -9.5 -27t-29.5 -12h-14q-101 0 -172 42q-1 0 -1 -1l-2 -1q-78 -47 -237 -47q-183 0 -260 51q7 -56 4 -77
q-8 -82 -75.5 -135.5t-155.5 -53.5q-127 0 -201 83t-74 216q0 51 10 87l54 -10q-3 -30 -3 -57q0 -117 60 -176.5t151 -59.5q75 0 121.5 37.5t51.5 91.5q0 30 -3 44q-17 73 -97 201zM896 74q110 0 183 22q74 23 74 77t-45.5 94.5t-120.5 40.5q-69 0 -135.5 -53t-118.5 -164
q57 -17 163 -17z" />
    <glyph glyph-name="uni0636.i" unicode="&#x636;" horiz-adv-x="857" arabic-form="initial" 
d="M98 0q-54 0 -54 45q0 14 11 26.5t33 12.5q52 0 76 27t24.5 69.5t-2.5 94.5l58 4q2 -43 7 -68q15 -80 81 -105q126 276 312 276q104 0 169 -63t65 -144q0 -104 -110 -150q-72 -32 -223 -32q-144 0 -213.5 25t-100.5 79q-10 -44 -45 -70.5t-88 -26.5zM392 91
q57 -17 149 -17q125 0 187 19q87 24 87 84q0 52 -47.5 91.5t-125.5 39.5q-65 0 -131.5 -52t-118.5 -165zM478 513q-25 -1 -41 16t-16 44q0 19 12 31.5t30 12.5q27 0 43 -17t16 -44q0 -18 -12 -30.5t-32 -12.5z" />
    <glyph glyph-name="uni0636.m" unicode="&#x636;" horiz-adv-x="886" arabic-form="medial" 
d="M478 513q-25 -1 -41 16t-16 44q0 19 12 31.5t30 12.5q27 0 43 -17t16 -44q0 -18 -12 -30.5t-32 -12.5zM186 275l58 4q2 -43 7 -68q15 -80 81 -105q126 276 312 276q104 0 169 -63t65 -144q0 -45 -20 -77q48 -14 111 -14q56 0 56 -45q0 -15 -9.5 -27t-29.5 -12h-15
q-103 0 -176 39q-14 -9 -27 -14q-72 -32 -223 -32q-144 0 -213.5 25t-100.5 79q-10 -44 -45 -70.5t-88 -26.5q-54 0 -54 45q0 14 11 26.5t33 12.5q52 0 76 27t24.5 69.5t-2.5 94.5zM728 93q87 24 87 84q0 52 -47.5 91.5t-125.5 39.5q-65 0 -131.5 -52t-118.5 -165
q57 -17 149 -17q125 0 187 19z" />
    <glyph glyph-name="uni0636.f" unicode="&#x636;" horiz-adv-x="1227" arabic-form="final" 
d="M808 513q-25 -1 -41.5 16t-16.5 44q0 19 12 31.5t30 12.5q27 0 43.5 -17t16.5 -44q0 -18 -12.5 -30.5t-31.5 -12.5zM484 235l65 27q49 -86 70 -112.5t53 -42.5q21 47 48.5 90t66.5 87.5t91 71t109 26.5q98 0 163.5 -62t65.5 -150q0 -39 -17 -70q47 -16 111 -16
q56 0 56 -45q0 -15 -9.5 -27t-29.5 -12h-14q-101 0 -172 42q-1 0 -1 -1l-2 -1q-78 -47 -237 -47q-183 0 -260 51q7 -56 4 -77q-8 -82 -75.5 -135.5t-155.5 -53.5q-127 0 -201 83t-74 216q0 51 10 87l54 -10q-3 -30 -3 -57q0 -117 60 -176.5t151 -59.5q75 0 121.5 37.5
t51.5 91.5q0 30 -3 44q-17 73 -97 201zM896 74q110 0 183 22q74 23 74 77t-45.5 94.5t-120.5 40.5q-69 0 -135.5 -53t-118.5 -164q57 -17 163 -17z" />
    <glyph glyph-name="uni0637.i" unicode="&#x637;" horiz-adv-x="681" arabic-form="initial" 
d="M250 0h-152q-54 0 -54 45q0 14 11 26.5t33 12.5h62q1 3 8.5 22t9.5 28q7 27 -12 98l-118 488l69 5l90 -369q23 -95 29 -145q46 77 109 124t138 47q98 0 165.5 -63t67.5 -145q0 -91 -98 -135q-80 -39 -358 -39zM220 84h31q247 0 313 22q39 13 58.5 30t19.5 44
q0 48 -47.5 88t-116.5 40q-161 0 -258 -224z" />
    <glyph glyph-name="uni0637.m" unicode="&#x637;" horiz-adv-x="704" arabic-form="medial" 
d="M107 725l90 -369q23 -95 29 -145q46 77 109 124t138 47q98 0 165.5 -63t67.5 -145q0 -42 -24 -76q41 -14 105 -14q56 0 56 -45q0 -14 -10 -26.5t-29 -12.5h-16q-101 0 -172 43q-4 -3 -8 -4q-80 -39 -358 -39h-152q-54 0 -54 45q0 14 11 26.5t33 12.5h62q1 3 8.5 22
t9.5 28q7 27 -12 98l-118 488zM220 84h31q247 0 313 22q39 13 58.5 30t19.5 44q0 48 -47.5 88t-116.5 40q-161 0 -258 -224z" />
    <glyph glyph-name="uni0637.f" unicode="&#x637;" horiz-adv-x="776" arabic-form="final" 
d="M176 725l89 -369q27 -111 30 -145q44 75 108.5 123t140.5 48q97 0 164 -62.5t67 -145.5q0 -41 -22 -75q44 -15 106 -15q56 0 56 -45q0 -14 -10 -26.5t-29 -12.5h-15q-105 0 -177 43q-1 -1 -3 -1.5t-4 -1.5l-4 -2q-81 -38 -348 -38q-114 0 -184 13l-47 85q50 -14 126 -14
q13 32 18 50q6 26 -13 98l-117 488zM289 84h31q246 0 315 23q77 24 77 73q0 47 -47 87.5t-118 40.5q-158 0 -258 -224z" />
    <glyph glyph-name="uni0638.i" unicode="&#x638;" horiz-adv-x="681" arabic-form="initial" 
d="M250 0h-152q-54 0 -54 45q0 14 11 26.5t33 12.5h62q1 3 8.5 22t9.5 28q7 27 -12 98l-118 488l69 5l90 -369q23 -95 29 -145q46 77 109 124t138 47q98 0 165.5 -63t67.5 -145q0 -91 -98 -135q-80 -39 -358 -39zM220 84h31q247 0 313 22q39 13 58.5 30t19.5 44
q0 48 -47.5 88t-116.5 40q-161 0 -258 -224zM386 513q-25 -1 -41.5 16t-16.5 44q0 19 12 31.5t30 12.5q27 0 43.5 -17t16.5 -44q0 -18 -12.5 -30.5t-31.5 -12.5z" />
    <glyph glyph-name="uni0638.m" unicode="&#x638;" horiz-adv-x="704" arabic-form="medial" 
d="M107 725l90 -369q23 -95 29 -145q46 77 109 124t138 47q98 0 165.5 -63t67.5 -145q0 -42 -24 -76q41 -14 105 -14q56 0 56 -45q0 -14 -10 -26.5t-29 -12.5h-16q-101 0 -172 43q-4 -3 -8 -4q-80 -39 -358 -39h-152q-54 0 -54 45q0 14 11 26.5t33 12.5h62q1 3 8.5 22
t9.5 28q7 27 -12 98l-118 488zM386 513q-25 -1 -41.5 16t-16.5 44q0 19 12 31.5t30 12.5q27 0 43.5 -17t16.5 -44q0 -18 -12.5 -30.5t-31.5 -12.5zM220 84h31q247 0 313 22q39 13 58.5 30t19.5 44q0 48 -47.5 88t-116.5 40q-161 0 -258 -224z" />
    <glyph glyph-name="uni0638.f" unicode="&#x638;" horiz-adv-x="776" arabic-form="final" 
d="M176 725l89 -369q27 -111 30 -145q44 75 108.5 123t140.5 48q97 0 164 -62.5t67 -145.5q0 -41 -22 -75q44 -15 106 -15q56 0 56 -45q0 -14 -10 -26.5t-29 -12.5h-15q-105 0 -177 43q-1 -1 -3 -1.5t-4 -1.5l-4 -2q-81 -38 -348 -38q-114 0 -184 13l-47 85q50 -14 126 -14
q13 32 18 50q6 26 -13 98l-117 488zM457 513q-25 -1 -41.5 16t-16.5 44q0 19 12 31.5t30 12.5q27 0 43.5 -17t16.5 -44q0 -18 -12.5 -30.5t-31.5 -12.5zM289 84h31q246 0 315 23q77 24 77 73q0 47 -47 87.5t-118 40.5q-158 0 -258 -224z" />
    <glyph glyph-name="uni0639.i" unicode="&#x639;" horiz-adv-x="496" arabic-form="initial" 
d="M98 0q-54 0 -54 45q0 15 10.5 27t33.5 12l155 7q-50 25 -91 72t-41 110q0 68 50.5 112.5t122.5 44.5q78 0 122 -33l26 -77q-59 36 -138 36q-53 0 -85 -26t-32 -65q0 -40 36.5 -78t95.5 -63q35 -16 63 -16q32 0 80 11t84 29l4 -83q-55 -29 -170.5 -47t-255.5 -18h-16z" />
    <glyph glyph-name="uni0639.m" unicode="&#x639;" horiz-adv-x="605" arabic-form="medial" 
d="M665 84h23q56 0 56 -45q0 -14 -10 -26.5t-29 -12.5h-30q-144 0 -269 66q-137 -66 -308 -66q-54 0 -54 45q0 14 11.5 26.5t33.5 12.5h27q118 0 213 29q-98 70 -173 171q-25 -10 -50 -23l-23 68q114 62 265 62q37 0 72 -5.5t74 -18.5t63 -43t24 -72q0 -33 -25.5 -70
t-71.5 -70q84 -28 181 -28zM216 303q81 -105 193 -160q52 24 81 53t29 53q0 73 -171 73q-64 0 -132 -19z" />
    <glyph glyph-name="uni0639.f" unicode="&#x639;" horiz-adv-x="628" arabic-form="final" 
d="M728 0h-56q-156 0 -287 78q-83 -46 -113.5 -86.5t-30.5 -89.5q0 -89 96.5 -148.5t256.5 -59.5q107 0 172 18l-18 -71q-58 -22 -168 -22q-77 0 -148.5 17.5t-131 51.5t-95 90t-35.5 127q0 58 35.5 109.5t121.5 103.5q-84 66 -157 166q-26 -10 -49 -25l-23 68q36 22 106 43
t153 21q122 0 181 -36t59 -91q0 -34 -29.5 -66.5t-106.5 -77.5q88 -36 196 -36h54q56 0 56 -45q0 -14 -10 -26.5t-29 -12.5zM232 304q71 -97 160 -150q142 75 142 108q0 12 -11 24t-52 24t-108 12q-59 0 -131 -18z" />
    <glyph glyph-name="uni063A.i" unicode="&#x63a;" horiz-adv-x="496" arabic-form="initial" 
d="M98 0q-54 0 -54 45q0 15 10.5 27t33.5 12l155 7q-50 25 -91 72t-41 110q0 68 50.5 112.5t122.5 44.5q78 0 122 -33l26 -77q-59 36 -138 36q-53 0 -85 -26t-32 -65q0 -40 36.5 -78t95.5 -63q35 -16 63 -16q32 0 80 11t84 29l4 -83q-55 -29 -170.5 -47t-255.5 -18h-16z
M202 556q-25 0 -41.5 17t-16.5 43q0 19 12 32t30 13q27 0 43.5 -17.5t16.5 -43.5q0 -18 -12.5 -31t-31.5 -13z" />
    <glyph glyph-name="uni063A.m" unicode="&#x63a;" horiz-adv-x="605" arabic-form="medial" 
d="M305 546q-25 -1 -41.5 16t-16.5 44q0 19 12 31.5t30 12.5q27 0 43.5 -17t16.5 -44q0 -18 -12.5 -30.5t-31.5 -12.5zM665 84h23q56 0 56 -45q0 -14 -10 -26.5t-29 -12.5h-30q-144 0 -269 66q-137 -66 -308 -66q-54 0 -54 45q0 14 11.5 26.5t33.5 12.5h27q118 0 213 29
q-98 70 -173 171q-25 -10 -50 -23l-23 68q114 62 265 62q37 0 72 -5.5t74 -18.5t63 -43t24 -72q0 -33 -25.5 -70t-71.5 -70q84 -28 181 -28zM216 303q81 -105 193 -160q52 24 81 53t29 53q0 73 -171 73q-64 0 -132 -19z" />
    <glyph glyph-name="uni063A.f" unicode="&#x63a;" horiz-adv-x="628" arabic-form="final" 
d="M320 546q-25 -1 -41.5 16t-16.5 44q0 19 12 31.5t30 12.5q27 0 43.5 -17t16.5 -44q0 -18 -12.5 -30.5t-31.5 -12.5zM728 0h-56q-156 0 -287 78q-83 -46 -113.5 -86.5t-30.5 -89.5q0 -89 96.5 -148.5t256.5 -59.5q107 0 172 18l-18 -71q-58 -22 -168 -22
q-77 0 -148.5 17.5t-131 51.5t-95 90t-35.5 127q0 58 35.5 109.5t121.5 103.5q-84 66 -157 166q-26 -10 -49 -25l-23 68q36 22 106 43t153 21q122 0 181 -36t59 -91q0 -34 -29.5 -66.5t-106.5 -77.5q88 -36 196 -36h54q56 0 56 -45q0 -14 -10 -26.5t-29 -12.5zM232 304
q71 -97 160 -150q142 75 142 108q0 12 -11 24t-52 24t-108 12q-59 0 -131 -18z" />
    <glyph glyph-name="uni0641.i" unicode="&#x641;" horiz-adv-x="431" arabic-form="initial" 
d="M100 0q-28 0 -43 14t-15 33q0 15 10.5 26t30.5 11h68q76 0 144 10t86 21q0 30 -1 42q-149 -7 -221 47t-72 135q0 54 31 94q41 55 106 55q82 0 150.5 -97t68.5 -263q0 -46 -3 -64q-78 -64 -282 -64h-58zM149 336q0 -51 60.5 -81t163.5 -26q-11 71 -51.5 127.5t-95.5 56.5
q-34 0 -55.5 -21.5t-21.5 -55.5zM169 620q-25 -1 -41.5 16t-16.5 44q0 19 12 31.5t30 12.5q27 0 43.5 -17t16.5 -44q0 -18 -12.5 -30.5t-31.5 -12.5z" />
    <glyph glyph-name="uni0641.m" unicode="&#x641;" horiz-adv-x="454" arabic-form="medial" 
d="M199 551q-25 -1 -41.5 16t-16.5 44q0 19 12 31.5t30 12.5q27 0 43.5 -17t16.5 -44q0 -18 -12.5 -30.5t-31.5 -12.5zM509 84h28q56 0 56 -45q0 -15 -9.5 -27t-29.5 -12h-34q-111 0 -211 38q-78 -38 -173 -38h-36q-57 0 -57 48q0 13 9.5 24.5t30.5 11.5h34q49 0 95 6
q-93 70 -93 167q0 68 43 116.5t96 48.5q65 0 121.5 -59t56.5 -145q0 -69 -50 -124q54 -10 123 -10zM181 254q0 -93 121 -138q72 33 72 102q0 52 -34 90.5t-76 38.5q-39 0 -61 -28t-22 -65z" />
    <glyph glyph-name="uni0641.f" unicode="&#x641;" horiz-adv-x="915" arabic-form="final" 
d="M670 551q-25 -1 -41.5 16t-16.5 44q0 19 12 31.5t30 12.5q27 0 43.5 -17t16.5 -44q0 -18 -12.5 -30.5t-31.5 -12.5zM974 84h24q56 0 56 -45q0 -14 -10 -26.5t-29 -12.5h-24q-114 0 -217 38q-111 -59 -295 -59q-106 0 -183.5 26.5t-120 73t-62.5 102t-20 122.5q0 41 6 79
l56 -8q-3 -18 -3 -43q0 -270 336 -270q119 0 199 21q-107 72 -107 178q0 65 43.5 113.5t94.5 48.5q66 0 122.5 -58.5t56.5 -145.5q0 -70 -50 -124q59 -10 127 -10zM644 258q0 -100 123 -144q66 40 66 105q0 52 -32 90t-78 38q-35 0 -57 -27t-22 -62z" />
    <glyph glyph-name="uni0642.i" unicode="&#x642;" horiz-adv-x="433" arabic-form="initial" 
d="M100 0q-28 0 -43 14t-15 33q0 15 10.5 26t30.5 11h68q76 0 144 10t86 21q0 30 -1 42q-149 -7 -221 47t-72 135q0 54 31 94q41 55 106 55q82 0 150.5 -97t68.5 -263q0 -46 -3 -64q-78 -64 -282 -64h-58zM149 336q0 -51 60.5 -81t163.5 -26q-11 71 -51.5 127.5t-95.5 56.5
q-34 0 -55.5 -21.5t-21.5 -55.5zM104 620q-25 0 -40.5 16t-15.5 42q0 19 11.5 31.5t29.5 12.5q26 0 42 -17t16 -42q0 -18 -12 -30.5t-31 -12.5zM233 620q-25 0 -41 16.5t-16 41.5q0 19 12 31.5t30 12.5q26 0 41.5 -17t15.5 -42q0 -18 -12 -30.5t-30 -12.5z" />
    <glyph glyph-name="uni0642.m" unicode="&#x642;" horiz-adv-x="454" arabic-form="medial" 
d="M134 551q-25 0 -40.5 16t-15.5 42q0 19 11.5 31.5t29.5 12.5q26 0 42 -17t16 -42q0 -18 -12 -30.5t-31 -12.5zM263 551q-25 0 -41 16.5t-16 41.5q0 19 12 31.5t30 12.5q26 0 41.5 -17t15.5 -42q0 -18 -12 -30.5t-30 -12.5zM509 84h28q56 0 56 -45q0 -15 -9.5 -27
t-29.5 -12h-34q-111 0 -211 38q-78 -38 -173 -38h-36q-57 0 -57 48q0 13 9.5 24.5t30.5 11.5h34q49 0 95 6q-93 70 -93 167q0 68 43 116.5t96 48.5q65 0 121.5 -59t56.5 -145q0 -69 -50 -124q54 -10 123 -10zM181 254q0 -93 121 -138q72 33 72 102q0 52 -34 90.5t-76 38.5
q-39 0 -61 -28t-22 -65z" />
    <glyph glyph-name="uni0642.f" unicode="&#x642;" horiz-adv-x="711" arabic-form="final" 
d="M385 474q-25 0 -40.5 16t-15.5 42q0 19 11.5 31.5t29.5 12.5q26 0 41.5 -16.5t15.5 -42.5q0 -18 -11.5 -30.5t-30.5 -12.5zM514 474q-25 0 -41 16.5t-16 41.5q0 19 12 31.5t30 12.5q26 0 41.5 -17t15.5 -42q0 -18 -12 -30.5t-30 -12.5zM729 84h66q56 0 56 -45
q0 -14 -10 -26.5t-29 -12.5l-76 1v-13q0 -44 -4 -60q-21 -68 -91.5 -119.5t-179.5 -51.5q-143 0 -234.5 91.5t-91.5 254.5q0 60 9 96l56 -8q0 -2 -1.5 -21t-1.5 -31q0 -153 74 -227t189 -74q86 0 142 33.5t69 75.5q3 9 3 48v7h-28q-76 0 -132 17t-85 45.5t-42.5 60.5
t-13.5 68q0 58 41.5 104t102.5 46q29 0 60 -14t62 -43t55.5 -81.5t34.5 -120.5zM642 84h24q-17 89 -63 138.5t-93 49.5q-34 0 -54.5 -23.5t-20.5 -52.5q0 -112 207 -112z" />
    <glyph glyph-name="uni0643.i" unicode="&#x643;" horiz-adv-x="394" arabic-form="initial" 
d="M99 0q-55 0 -55 45q0 15 10 27t32 12h95q93 0 126.5 17.5t33.5 50.5q0 46 -73 119.5t-255 179.5q-8 55 -4 78q1 8 34 30q59 39 151 85.5t177 77.5l-15 -86q-71 -26 -156 -66.5t-129 -71.5q67 -44 101 -67t86.5 -64.5t79 -72.5t47 -72t20.5 -81q0 -69 -49 -103
q-54 -38 -187 -38h-70z" />
    <glyph glyph-name="uni0643.m" unicode="&#x643;" horiz-adv-x="443" arabic-form="medial" 
d="M129 0h-29q-56 0 -56 44q0 16 10.5 28t32.5 12h25q91 0 129 17.5t38 52.5q0 23 -11.5 41t-48.5 61q-68 78 -207 193q0 4 -1.5 23t-2.5 33.5t-1 17.5q3 8 42 33q58 36 168 85t203 80l-15 -85q-79 -27 -186.5 -74t-149.5 -75q94 -78 155.5 -141t159.5 -175q33 -39 60.5 -59
t41 -23t40.5 -6q56 0 56 -44q0 -15 -9.5 -27.5t-29.5 -12.5q-56 1 -100.5 24.5t-113.5 103.5q-11 -127 -200 -127z" />
    <glyph glyph-name="uni0643.f" unicode="&#x643;" horiz-adv-x="855" arabic-form="final" 
d="M104 262q0 19 4 37l55 -8q-4 -122 74 -175.5t220 -53.5q106 0 181.5 27.5t93.5 65.5q4 18 -5 57l-123 508l69 5l117 -488q23 -87 57 -119t91 -34q56 0 56 -45q0 -14 -10 -26.5t-29 -12.5q-137 0 -186 105q-24 -50 -106 -86.5t-212 -36.5q-82 0 -145 16.5t-100.5 43
t-61 64.5t-32 75.5t-8.5 80.5zM350 277l-24 41q48 1 85 12t52 22t15 19t-13 12t-51 6q-46 3 -62 16.5t-16 44.5q0 40 31.5 77.5t82.5 48.5l16 -52q-42 -8 -64.5 -27.5t-22.5 -37.5t49 -20q50 -3 71 -16.5t21 -43.5q0 -43 -42 -73.5t-98 -30.5q-22 0 -30 2z" />
    <glyph glyph-name="uni0644.i" unicode="&#x644;" horiz-adv-x="282" arabic-form="initial" 
d="M100 0q-56 0 -56 45q0 15 10 27t32 12q122 0 88 130l-127 506l68 5l129 -510q27 -109 -14.5 -162t-129.5 -53z" />
    <glyph glyph-name="uni0644.m" unicode="&#x644;" horiz-adv-x="302" arabic-form="medial" 
d="M86 84q60 0 79 39t-2 132l-112 465l69 5l112 -465q24 -97 58 -135.5t95 -40.5q55 0 55 -45q0 -15 -9.5 -27t-28.5 -12q-122 0 -172 97q-12 -45 -49 -71t-81 -26q-56 0 -56 45q0 15 10 27t32 12z" />
    <glyph glyph-name="uni0644.f" unicode="&#x644;" horiz-adv-x="684" arabic-form="final" 
d="M503 725l146 -600q41 -41 118 -41q56 0 56 -45q0 -14 -10 -26.5t-29 -12.5q-63 0 -112 29q4 -22 8 -72q0 -22 -11 -47q-24 -64 -91.5 -104t-151.5 -40q-134 0 -208 81.5t-74 222.5q0 51 10 98l57 -10q-5 -28 -5 -69q0 -67 19.5 -116.5t52.5 -76t69.5 -39t77.5 -12.5
q68 0 120 29t66 76q4 20 -8 79l-171 691z" />
    <glyph glyph-name="uni0645.i" unicode="&#x645;" horiz-adv-x="465" arabic-form="initial" 
d="M100 0q-56 0 -56 45q0 14 10 26.5t29 12.5h6q31 1 46 25t25 82q16 84 48 120.5t83 36.5q78 0 140 -84t62 -166q0 -47 -26 -72.5t-70 -25.5q-91 0 -197 74q-28 -74 -100 -74zM220 149q33 -27 80.5 -47t85.5 -20q43 0 43 32q0 44 -43 102t-87 58q-31 0 -50.5 -28t-28.5 -97
z" />
    <glyph glyph-name="uni0645.m" unicode="&#x645;" horiz-adv-x="500" arabic-form="medial" 
d="M83 84h6q32 1 46.5 21.5t24.5 73.5q16 83 48.5 120t82.5 37q55 0 103 -44t76 -108q32 -62 58 -81t55 -19q56 0 56 -45q0 -15 -10 -27t-31 -12h-2q-68 0 -108 50q-20 -62 -91 -62q-93 0 -197 74q-24 -62 -100 -62q-56 0 -56 45q0 14 10 26.5t29 12.5zM386 70q44 0 44 31
q0 44 -43.5 102.5t-88.5 58.5q-31 0 -50 -28t-28 -97q33 -27 80.5 -47t85.5 -20z" />
    <glyph glyph-name="uni0645.f" unicode="&#x645;" horiz-adv-x="813" arabic-form="final" 
d="M204 -209l-48 48q113 50 188.5 104t100.5 98q11 19 29 133q14 85 45 123.5t84 38.5q57 0 107 -46.5t76 -112.5q21 -41 41 -62.5t34 -26t35 -4.5q55 0 55 -45q0 -15 -10 -27t-31 -12h-2q-68 0 -108 50q-21 -62 -91 -62q-86 0 -190 71q-7 -59 -22 -83q-31 -54 -119.5 -109
t-173.5 -76zM698 70q45 0 45 32q0 44 -44 102t-89 58q-31 0 -50 -28.5t-28 -96.5q33 -27 80.5 -47t85.5 -20z" />
    <glyph glyph-name="uni0646.i" unicode="&#x646;" horiz-adv-x="331" arabic-form="initial" 
d="M100 0q-57 0 -57 45q0 15 9.5 27t30.5 12h13q121 0 153 23q-17 109 -127 255l62 28q48 -65 90 -153.5t42 -158.5q0 -20 -2 -29q-45 -49 -204 -49h-10zM75 510q-25 -1 -41 16t-16 44q0 19 12 31.5t30 12.5q27 0 43 -17t16 -44q0 -18 -12 -30.5t-32 -12.5z" />
    <glyph glyph-name="uni0646.m" unicode="&#x646;" horiz-adv-x="313" arabic-form="medial" 
d="M86 84q50 0 75.5 24.5t30 56.5t0.5 81l55 4q3 -28 6 -47q25 -117 142 -119q56 0 56 -45q0 -15 -10 -27t-31 -12q-124 0 -174 101q-10 -49 -46 -75t-90 -26q-56 0 -56 45q0 15 10 27t32 12zM179 404q-25 -1 -41.5 16t-16.5 44q0 19 12 31.5t30 12.5q27 0 43.5 -17
t16.5 -44q0 -18 -12.5 -30.5t-31.5 -12.5z" />
    <glyph glyph-name="uni0646.f" unicode="&#x646;" horiz-adv-x="636" arabic-form="final" 
d="M138 86q0 56 12 102l60 -9q-5 -43 -5 -78q0 -105 58.5 -169t153.5 -64q63 0 111 27t65 80q8 14 8 30q-2 39 -25 86q-38 86 -99 174l64 29q68 -99 102 -197q32 -13 76 -13q56 0 56 -45q0 -15 -9.5 -27t-29.5 -12q-52 0 -75 11q4 -39 -12 -82q-25 -64 -84 -104t-146 -40
q-130 0 -205.5 84t-75.5 217zM309 369q-25 -1 -41.5 16t-16.5 44q0 19 12 31.5t30 12.5q27 0 43.5 -17t16.5 -44q0 -18 -12.5 -30.5t-31.5 -12.5z" />
    <glyph glyph-name="uni0647.i" unicode="&#x647;" horiz-adv-x="626" arabic-form="initial" 
d="M195 463l34 58q19 -12 84 -51t97 -59q51 -31 88 -58t75 -63t58 -76t20 -82q0 -65 -42.5 -102.5t-119.5 -37.5q-89 0 -175 43q-83 -35 -202 -35h-11q-56 0 -56 45q0 15 10 27t32 12h18q69 0 123 10q-84 77 -84 169q0 107 106 163zM206 267q0 -41 28.5 -79.5t75.5 -67.5
q80 41 80 128q0 63 -31.5 99t-56.5 36q-29 0 -62.5 -34t-33.5 -82zM479 69q110 0 110 67q0 43 -43 92.5t-116 95.5q24 -38 24 -96q0 -86 -63 -145q45 -14 88 -14z" />
    <glyph glyph-name="uni0647.m" unicode="&#x647;" horiz-adv-x="478" arabic-form="medial" 
d="M434 84h127q56 0 56 -45q0 -15 -9.5 -27t-29.5 -12h-106q86 -45 86 -124q0 -56 -38.5 -88.5t-89.5 -32.5q-98 0 -164.5 71t-93.5 174h-71q-56 0 -56 45q0 15 10.5 27t34.5 12h69q-1 8 -1 23q0 76 20.5 161t50.5 149h25q40 -36 62.5 -58t58.5 -62.5t54 -78.5t18 -72
q0 -35 -13 -62zM222 84h59q59 0 83 14.5t24 42.5q0 39 -39.5 91.5t-89.5 90.5q-38 -101 -38 -211q0 -19 1 -28zM300 0h-62q25 -77 75.5 -125.5t110.5 -48.5q32 0 51.5 15t19.5 40q0 41 -50 80t-144 39h-1z" />
    <glyph glyph-name="uni0647.f" unicode="&#x647;" horiz-adv-x="476" arabic-form="final" 
d="M346 524l78 -314q30 -126 135 -126q56 0 56 -45q0 -15 -9.5 -27t-29.5 -12q-118 0 -173 89q-46 -29 -116 -29q-78 0 -129 41.5t-51 108.5q0 75 69 141q38 40 129 86l-21 81zM365 184l-43 181q-81 -34 -117 -76t-36 -79q0 -34 30 -52t81 -18t92 18q-1 3 -3.5 12t-3.5 14z
" />
    <glyph glyph-name="uni0648.f" unicode="&#x648;" horiz-adv-x="527" arabic-form="final" 
d="M541 84h69q56 0 56 -45q0 -15 -10 -27t-31 -12h-82q-8 -123 -73.5 -200t-165.5 -77q-84 0 -144 47l2 60q62 -30 134 -30q79 0 128.5 56t56.5 144h-36q-131 0 -194.5 54.5t-63.5 137.5q0 63 42.5 107t103.5 44q32 0 64.5 -15t62.5 -45t52.5 -81.5t28.5 -117.5zM445 84h33
q-12 86 -54 137t-97 51q-33 0 -55.5 -23.5t-22.5 -56.5q0 -108 196 -108z" />
    <glyph glyph-name="uni0649.i" unicode="&#x649;" horiz-adv-x="286" 
d="M100 0q-57 0 -57 45q0 15 9.5 27t30.5 12h13q121 0 153 23q-17 109 -127 255l62 28q48 -65 90 -153.5t42 -158.5q0 -20 -2 -29q-45 -49 -204 -49h-10z" />
    <glyph glyph-name="uni0649.m" unicode="&#x649;" horiz-adv-x="316" 
d="M89 84q50 0 75.5 24.5t30 56.5t0.5 81l55 4q3 -28 6 -47q25 -117 143 -119q55 0 55 -45q0 -15 -10 -27t-31 -12q-124 0 -174 101q-10 -49 -46 -75t-90 -26q-56 0 -56 45q0 15 10 27t32 12z" />
    <glyph glyph-name="uni0649.f" unicode="&#x649;" horiz-adv-x="666" arabic-form="final" 
d="M142 72q0 51 12 97l54 -8q-4 -26 -4 -62q0 -80 24.5 -138t66.5 -89.5t88.5 -45.5t99.5 -14q159 0 225 85q19 25 19 48q0 27 -24.5 41t-107.5 14h-12l17 84h149q56 0 56 -45q0 -15 -10 -27t-31 -12h-8q33 -19 33 -63q0 -36 -19 -69q-33 -61 -108 -99t-175 -38
q-88 0 -155.5 27t-108 75t-61 108t-20.5 131z" />
    <glyph glyph-name="uni064A.i" unicode="&#x64a;" horiz-adv-x="286" arabic-form="initial" 
d="M100 0q-57 0 -57 45q0 15 9.5 27t30.5 12h13q121 0 153 23q-17 109 -127 255l62 28q48 -65 90 -153.5t42 -158.5q0 -20 -2 -29q-45 -49 -204 -49h-10zM208 -246q-25 -1 -40.5 15.5t-15.5 42.5q0 19 12 31.5t29 12.5q26 0 42 -17t16 -43q0 -18 -12 -30t-31 -12zM337 -246
q-25 -1 -40.5 15.5t-15.5 42.5q0 19 11.5 31.5t29.5 12.5q26 0 42 -17t16 -43q0 -18 -12 -30t-31 -12z" />
    <glyph glyph-name="uni064A.m" unicode="&#x64a;" horiz-adv-x="313" arabic-form="medial" 
d="M86 84q50 0 75.5 24.5t30 56.5t0.5 81l55 4q3 -28 6 -47q25 -117 142 -119q56 0 56 -45q0 -15 -10 -27t-31 -12q-124 0 -174 101q-10 -49 -46 -75t-90 -26q-56 0 -56 45q0 15 10 27t32 12zM238 -246q-25 -1 -41 15.5t-16 42.5q0 19 12 31.5t30 12.5q26 0 41.5 -17
t15.5 -43q0 -18 -11.5 -30t-30.5 -12zM366 -246q-24 -1 -40 15.5t-16 42.5q0 19 12 31.5t30 12.5q26 0 41.5 -17t15.5 -43q0 -18 -12 -30t-31 -12z" />
    <glyph glyph-name="uni064A.f" unicode="&#x64a;" horiz-adv-x="666" arabic-form="final" 
d="M142 72q0 51 12 97l54 -8q-4 -26 -4 -62q0 -80 24.5 -138t66.5 -89.5t88.5 -45.5t99.5 -14q159 0 225 85q19 25 19 48q0 27 -24.5 41t-107.5 14h-12l17 84h149q56 0 56 -45q0 -15 -10 -27t-31 -12h-8q33 -19 33 -63q0 -36 -19 -69q-33 -61 -108 -99t-175 -38
q-88 0 -155.5 27t-108 75t-61 108t-20.5 131zM485 -466q-25 -1 -41 15.5t-16 42.5q0 19 12 31.5t30 12.5q26 0 41.5 -17t15.5 -43q0 -18 -11.5 -30t-30.5 -12zM613 -466q-24 -1 -40 15.5t-16 42.5q0 19 12 31.5t30 12.5q26 0 41.5 -17t15.5 -43q0 -18 -12 -30t-31 -12z" />
    <glyph glyph-name="uni066E.f" unicode="&#x66e;" horiz-adv-x="917" 
d="M94 305q0 35 6 57l54 -8q-1 -8 -1 -27q0 -136 89.5 -200t241.5 -64q119 0 203.5 23.5t122.5 52.5q-17 34 -17 85q0 20 1 28l55 6q0 -27 5 -57q21 -111 146 -117q56 0 56 -45q0 -14 -10 -26.5t-29 -12.5q-114 0 -173 76q-56 -44 -150.5 -71t-204.5 -27q-189 0 -292 81.5
t-103 245.5z" />
    <glyph glyph-name="uni06A1.i" unicode="&#x66f;" horiz-adv-x="431" 
d="M100 0q-28 0 -43 14t-15 33q0 15 10.5 26t30.5 11h68q76 0 144 10t86 21q0 30 -1 42q-149 -7 -221 47t-72 135q0 54 31 94q41 55 106 55q82 0 150.5 -97t68.5 -263q0 -46 -3 -64q-78 -64 -282 -64h-58zM149 336q0 -51 60.5 -81t163.5 -26q-11 71 -51.5 127.5t-95.5 56.5
q-34 0 -55.5 -21.5t-21.5 -55.5z" />
    <glyph glyph-name="uni06A1.m" unicode="&#x66f;" horiz-adv-x="454" 
d="M509 84h28q56 0 56 -45q0 -15 -9.5 -27t-29.5 -12h-34q-111 0 -211 38q-78 -38 -173 -38h-36q-57 0 -57 48q0 13 9.5 24.5t30.5 11.5h34q49 0 95 6q-93 70 -93 167q0 68 43 116.5t96 48.5q65 0 121.5 -59t56.5 -145q0 -69 -50 -124q54 -10 123 -10zM181 254
q0 -93 121 -138q72 33 72 102q0 52 -34 90.5t-76 38.5q-39 0 -61 -28t-22 -65z" />
    <glyph glyph-name="uni066F.f" unicode="&#x66f;" horiz-adv-x="711" 
d="M729 84h66q56 0 56 -45q0 -14 -10 -26.5t-29 -12.5l-76 1v-13q0 -44 -4 -60q-21 -68 -91.5 -119.5t-179.5 -51.5q-143 0 -234.5 91.5t-91.5 254.5q0 60 9 96l56 -8q0 -2 -1.5 -21t-1.5 -31q0 -153 74 -227t189 -74q86 0 142 33.5t69 75.5q3 9 3 48v7h-28q-76 0 -132 17
t-85 45.5t-42.5 60.5t-13.5 68q0 58 41.5 104t102.5 46q29 0 60 -14t62 -43t55.5 -81.5t34.5 -120.5zM642 84h24q-17 89 -63 138.5t-93 49.5q-34 0 -54.5 -23.5t-20.5 -52.5q0 -112 207 -112z" />
    <glyph glyph-name="uni0671.f" unicode="&#x671;" horiz-adv-x="263" arabic-form="final" 
d="M137 204l-125 516l69 5l119 -494q20 -79 56 -112t90 -35q56 0 56 -45q0 -15 -9.5 -27t-28.5 -12q-95 0 -147.5 46.5t-79.5 157.5zM45 802q-30 0 -73 17.5t-54 17.5q-24 0 -38 -23l-11 53q12 26 40 26q13 0 21 -4q41 93 102 93q40 0 68 -31t28 -72q0 -35 -23.5 -56
t-59.5 -21zM40 855q19 0 31.5 8.5t12.5 21.5q0 15 -13.5 29.5t-34.5 14.5q-40 1 -65 -58q30 -16 69 -16z" />
    <glyph glyph-name="uni0675.f" unicode="&#x675;" horiz-adv-x="391" 
d="M134 210l-123 510l69 5l122 -503q19 -75 54 -106.5t110 -31.5h108q55 0 55 -45q0 -15 -10 -27t-31 -12h-92q-112 0 -171 44.5t-91 165.5zM117 730l-3 46q15 11 43 11q-49 28 -49 73q0 34 26.5 55t63.5 21q52 0 85 -27l-6 -45q-35 23 -78 23q-21 0 -32 -9.5t-11 -22.5
q0 -24 29 -41.5t72 -17.5h64l-10 -49h-63q-93 0 -131 -17z" />
    <glyph glyph-name="uni0676.f" unicode="&#x676;" horiz-adv-x="615" 
d="M342 442l-3 46q15 11 43 11q-49 28 -49 73q0 34 26.5 55t63.5 21q52 0 85 -27l-6 -45q-35 23 -78 23q-21 0 -32 -9.5t-11 -22.5q0 -24 29 -41.5t72 -17.5h64l-10 -49h-63q-93 0 -131 -17zM541 84h157q56 0 56 -45q0 -15 -10.5 -27t-31.5 -12h-169q-8 -123 -73.5 -200
t-165.5 -77q-84 0 -144 47l2 60q62 -30 134 -30q79 0 128.5 57t56.5 143h-36q-131 0 -194.5 54.5t-63.5 137.5q0 63 42.5 107t103.5 44q32 0 64.5 -15t62.5 -45t52.5 -81.5t28.5 -117.5zM445 84h33q-12 85 -54 136.5t-99 51.5q-33 0 -55 -23t-22 -56q0 -109 197 -109z" />
    <glyph glyph-name="uni0677.f" unicode="&#x677;" horiz-adv-x="615" 
d="M88 414l-4 39q24 -5 54 -5q28 0 53 11t34 32q-58 -5 -96 19.5t-38 74.5q0 33 24 57.5t59 24.5q37 0 70.5 -34t34.5 -99q1 -61 -39 -97t-91 -36q-39 0 -61 13zM342 442l-3 46q15 11 43 11q-49 28 -49 73q0 34 26.5 55t63.5 21q52 0 85 -27l-6 -45q-35 23 -78 23
q-21 0 -32 -9.5t-11 -22.5q0 -24 29 -41.5t72 -17.5h64l-10 -49h-63q-93 0 -131 -17zM236 531q1 35 -17 62.5t-49 27.5q-19 0 -29 -11.5t-10 -26.5q0 -24 26.5 -40t78.5 -12zM541 84h157q56 0 56 -45q0 -15 -10.5 -27t-31.5 -12h-169q-8 -123 -73.5 -200t-165.5 -77
q-84 0 -144 47l2 60q62 -30 134 -30q79 0 128.5 57t56.5 143h-36q-131 0 -194.5 54.5t-63.5 137.5q0 63 42.5 107t103.5 44q32 0 64.5 -15t62.5 -45t52.5 -81.5t28.5 -117.5zM445 84h33q-12 85 -54 136.5t-99 51.5q-33 0 -55 -23t-22 -56q0 -109 197 -109z" />
    <glyph glyph-name="uni0678.i" unicode="&#x678;" horiz-adv-x="420" 
d="M100 0q-57 0 -57 45q0 15 9.5 27t30.5 12h13q121 0 153 23q-17 109 -127 255l62 28q48 -65 90 -153.5t42 -158.5q0 -20 -2 -29q-45 -49 -204 -49h-10zM221 500l-3 46q15 11 43 11q-49 28 -49 73q0 34 26.5 55t63.5 21q52 0 85 -27l-6 -45q-35 23 -78 23q-21 0 -32 -9.5
t-11 -22.5q0 -24 29 -41.5t72 -17.5h64l-10 -49h-63q-93 0 -131 -17z" />
    <glyph glyph-name="uni0678.m" unicode="&#x678;" horiz-adv-x="464" 
d="M97 0q-57 0 -57 47q0 37 41 37q40 0 65 14t34 37t12 54t-2 64l56 4q1 -18 6 -48q13 -57 46 -91t106 -34h143q56 0 56 -45q0 -15 -10.5 -27t-31.5 -12h-140q-73 0 -116 25t-67 78q-22 -103 -141 -103zM234 394l-3 46q15 11 43 11q-49 28 -49 73q0 34 26.5 55t63.5 21
q52 0 85 -27l-6 -45q-35 23 -78 23q-21 0 -32 -9.5t-11 -22.5q0 -24 29 -41.5t72 -17.5h64l-10 -49h-63q-93 0 -131 -17z" />
    <glyph glyph-name="uni0678.f" unicode="&#x678;" horiz-adv-x="936" 
d="M142 72q0 51 12 97l54 -8q-4 -26 -4 -62q0 -80 24.5 -138t66.5 -89.5t88.5 -45.5t99.5 -14q159 0 225 85q19 25 19 48q0 27 -24.5 41t-107.5 14h-12l17 84h419q56 0 56 -45q0 -15 -10 -27t-32 -12h-277q33 -19 33 -63q0 -36 -19 -69q-33 -61 -108 -99t-175 -38
q-88 0 -155.5 27t-108 75t-61 108t-20.5 131zM639 394l-3 46q15 11 43 11q-49 28 -49 73q0 34 26.5 55t63.5 21q53 0 84 -27l-5 -45q-35 23 -78 23q-21 0 -32 -9.5t-11 -22.5q0 -24 29 -41.5t72 -17.5h64l-10 -49h-63q-93 0 -131 -17z" />
    <glyph glyph-name="uni0679.i" unicode="&#x679;" horiz-adv-x="286" arabic-form="initial" 
d="M100 0q-57 0 -57 45q0 15 9.5 27t30.5 12h13q121 0 153 23q-17 109 -127 255l62 28q48 -65 90 -153.5t42 -158.5q0 -20 -2 -29q-45 -49 -204 -49h-10zM-17 504l-37 51l57 -4q7 26 -6 78l-44 158l44 3l29 -108q8 -30 10 -59q31 64 83 64q35 0 58.5 -24.5t23.5 -60.5
q0 -48 -44.5 -73t-108.5 -25h-65zM40 552q119 0 119 50q0 14 -11 25.5t-28 11.5q-48 0 -80 -87z" />
    <glyph glyph-name="uni0679.m" unicode="&#x679;" horiz-adv-x="313" arabic-form="medial" 
d="M86 84q50 0 75.5 24.5t30 56.5t0.5 81l55 4q3 -28 6 -47q25 -117 142 -119q56 0 56 -45q0 -15 -10 -27t-31 -12q-124 0 -174 101q-10 -49 -46 -75t-90 -26q-56 0 -56 45q0 15 10 27t32 12zM80 398l-37 51l57 -4q7 26 -6 78l-44 158l44 3l29 -108q8 -30 10 -59
q31 64 83 64q35 0 58.5 -24.5t23.5 -60.5q0 -48 -44.5 -73t-108.5 -25h-65zM137 446q119 0 119 50q0 14 -11 25.5t-29 11.5q-47 0 -79 -87z" />
    <glyph glyph-name="uni0679.f" unicode="&#x679;" horiz-adv-x="917" arabic-form="final" 
d="M94 305q0 35 6 57l54 -8q-1 -8 -1 -27q0 -136 89.5 -200t241.5 -64q119 0 203.5 23.5t122.5 52.5q-17 34 -17 85q0 20 1 28l55 6q0 -27 5 -57q21 -111 146 -117q56 0 56 -45q0 -14 -10 -26.5t-29 -12.5q-114 0 -173 76q-56 -44 -150.5 -71t-204.5 -27q-189 0 -292 81.5
t-103 245.5zM347 416l-37 51l57 -4q7 26 -6 78l-43 158l43 3l29 -108q10 -30 10 -59q31 64 83 64q36 0 59 -24.5t23 -60.5q0 -48 -44.5 -73t-108.5 -25h-65zM405 464q118 0 118 50q0 14 -11 25.5t-28 11.5q-49 0 -79 -87z" />
    <glyph glyph-name="uni067E.i" unicode="&#x67e;" horiz-adv-x="286" arabic-form="initial" 
d="M100 0q-57 0 -57 45q0 15 9.5 27t30.5 12h13q121 0 153 23q-17 109 -127 255l62 28q48 -65 90 -153.5t42 -158.5q0 -20 -2 -29q-45 -49 -204 -49h-10zM282 -263q24 0 40 -16.5t16 -42.5q0 -18 -12 -30.5t-30 -12.5q-26 0 -41.5 17t-15.5 42q0 18 12 30.5t31 12.5z
M324 -145q25 0 40.5 -16t15.5 -42q0 -19 -11.5 -31.5t-29.5 -12.5q-26 0 -42 17t-16 43q0 18 12 30t31 12zM195 -145q25 0 41 -16.5t16 -41.5q0 -19 -12 -31.5t-30 -12.5q-26 0 -41.5 17t-15.5 43q0 18 12 30t30 12z" />
    <glyph glyph-name="uni067E.m" unicode="&#x67e;" horiz-adv-x="313" arabic-form="medial" 
d="M86 84q50 0 75.5 24.5t30 56.5t0.5 81l55 4q3 -28 6 -47q25 -117 142 -119q56 0 56 -45q0 -15 -10 -27t-31 -12q-124 0 -174 101q-10 -49 -46 -75t-90 -26q-56 0 -56 45q0 15 10 27t32 12zM314 -263q24 0 40 -16.5t16 -42.5q0 -18 -12 -30.5t-30 -12.5q-26 0 -41.5 17
t-15.5 42q0 18 12 30.5t31 12.5zM356 -145q25 0 40.5 -16t15.5 -42q0 -19 -11.5 -31.5t-29.5 -12.5q-26 0 -42 17t-16 43q0 18 12 30t31 12zM227 -145q25 0 41 -16.5t16 -41.5q0 -19 -12 -31.5t-30 -12.5q-26 0 -41.5 17t-15.5 43q0 18 12 30t30 12z" />
    <glyph glyph-name="uni067E.f" unicode="&#x67e;" horiz-adv-x="917" arabic-form="final" 
d="M94 305q0 35 6 57l54 -8q-1 -8 -1 -27q0 -136 89.5 -200t241.5 -64q119 0 203.5 23.5t122.5 52.5q-17 34 -17 85q0 20 1 28l55 6q0 -27 5 -57q21 -111 146 -117q56 0 56 -45q0 -14 -10 -26.5t-29 -12.5q-114 0 -173 76q-56 -44 -150.5 -71t-204.5 -27q-189 0 -292 81.5
t-103 245.5zM612 -263q24 0 40 -16.5t16 -42.5q0 -18 -12 -30.5t-30 -12.5q-26 0 -41.5 17t-15.5 42q0 18 12 30.5t31 12.5zM654 -145q25 0 40.5 -16t15.5 -42q0 -19 -11.5 -31.5t-29.5 -12.5q-26 0 -42 17t-16 43q0 18 12 30t31 12zM525 -145q25 0 41 -16.5t16 -41.5
q0 -19 -12 -31.5t-30 -12.5q-26 0 -41.5 17t-15.5 43q0 18 12 30t30 12z" />
    <glyph glyph-name="uni0686.i" unicode="&#x686;" horiz-adv-x="649" arabic-form="initial" 
d="M98 0q-54 0 -54 44q0 15 11 27.5t33 12.5h8q204 0 326 66q87 44 99 48q-21 7 -88.5 34.5t-117.5 42.5t-90 15q-83 0 -131 -24l10 76q41 23 110 23q16 0 34 -2t32.5 -4.5t35.5 -8.5t32.5 -9.5t35 -12.5t32.5 -12.5t35.5 -14.5t33.5 -14q95 -39 152 -39h45l-15 -76h-16
q-54 0 -168 -70q-102 -60 -181.5 -81t-190.5 -21h-13zM465 -224q25 0 40.5 -16.5t15.5 -42.5q0 -18 -11.5 -30.5t-29.5 -12.5q-26 0 -42 17t-16 42q0 18 12 30.5t31 12.5zM508 -106q25 0 40.5 -16t15.5 -42q0 -19 -12 -31.5t-29 -12.5q-26 0 -42 17t-16 43q0 18 12 30t31 12
zM379 -106q25 0 40.5 -16t15.5 -42q0 -19 -12 -31.5t-29 -12.5q-26 0 -42 17t-16 43q0 18 12 30t31 12z" />
    <glyph glyph-name="uni0686.m" unicode="&#x686;" horiz-adv-x="680" arabic-form="medial" 
d="M658 180h-28q-6 0 -20 -2q23 -94 152 -94q56 0 56 -45q0 -15 -9.5 -27t-28.5 -12q-192 2 -222 159q-23 -12 -71 -44q-97 -66 -179.5 -90.5t-196.5 -24.5h-13q-54 0 -54 44q0 15 10.5 27.5t32.5 12.5h8q195 0 308 60q26 13 49.5 26.5t36.5 21t23 11.5q-26 8 -83 32
t-109 39.5t-102 15.5q-79 0 -125 -25l10 77q40 23 104 23q60 0 120 -17.5t142 -52.5q91 -40 164 -40h42zM435 -164q0 -19 -12 -31.5t-29 -12.5q-26 0 -42 17t-16 43q0 18 12 30t31 12q25 0 40.5 -16t15.5 -42zM508 -106q25 0 40.5 -16t15.5 -42q0 -19 -12 -31.5t-29 -12.5
q-26 0 -42 17t-16 43q0 18 12 30t31 12zM465 -224q25 0 40.5 -16.5t15.5 -42.5q0 -18 -11.5 -30.5t-29.5 -12.5q-26 0 -42 17t-16 42q0 18 12 30.5t31 12.5z" />
    <glyph glyph-name="uni0686.f" unicode="&#x686;" horiz-adv-x="669" arabic-form="final" 
d="M656 285l-10 -81q-34 2 -60 2q33 -125 167 -122q56 0 56 -45q0 -14 -10 -26.5t-29 -12.5q-212 0 -244 202q-12 -1 -64 -11q-97 -26 -158 -86.5t-61 -148.5q0 -87 53 -149t135 -89.5t185 -27.5q92 0 154 15l-18 -71q-43 -18 -153 -18q-189 0 -313 90.5t-124 246.5
q0 51 19.5 96t50 77.5t70.5 58t80 40.5t79 22q-10 3 -56 19t-91.5 27t-84.5 11q-88 0 -135 -25l11 79q48 22 111 22q37 0 79.5 -8.5t70.5 -17.5t72.5 -25t63.5 -22q57 -22 100 -22h54zM407 24q23 0 36 -14.5t13 -36.5q0 -15 -10 -25.5t-26 -10.5q-21 0 -34 14t-13 36
q0 15 10 26t24 11zM570 -27q0 -15 -10 -25.5t-26 -10.5q-21 0 -34.5 14t-13.5 36q0 15 10 26t25 11q22 0 35.5 -14.5t13.5 -36.5zM490 -168q-22 0 -35 13.5t-13 35.5q0 16 10 26.5t25 10.5q22 0 35.5 -14.5t13.5 -35.5q0 -15 -10 -25.5t-26 -10.5z" />
    <glyph glyph-name="uni0688.f" unicode="&#x688;" horiz-adv-x="577" arabic-form="final" 
d="M120 158l56 10q18 -47 48.5 -65t86.5 -18q83 0 121 43q25 28 17 46q-59 140 -142 304l68 25q19 -40 67 -146.5t79 -170.5q30 -59 60.5 -80.5t78.5 -21.5q56 0 56 -45q0 -15 -9.5 -27t-29.5 -12q-69 0 -110 24.5t-78 80.5q-11 -46 -59.5 -75.5t-116.5 -29.5
q-85 0 -129.5 34.5t-63.5 123.5zM217 600l-37 51l57 -4q7 26 -6 78l-44 158l44 3l29 -108q8 -30 10 -59q31 64 83 64q35 0 58.5 -24.5t23.5 -60.5q0 -48 -44.5 -73t-108.5 -25h-65zM274 648q119 0 119 50q0 14 -11 25.5t-28 11.5q-48 0 -80 -87z" />
    <glyph glyph-name="uni0691.f" unicode="&#x691;" horiz-adv-x="470" arabic-form="final" 
d="M130 440l57 -4q8 27 -6 78l-43 158l43 3l29 -108q10 -30 10 -59q31 64 83 64q36 0 59 -24.5t23 -60.5q0 -48 -44.5 -73t-108.5 -25h-64zM304 524q-49 0 -79 -87q118 0 118 50q0 15 -10.5 26t-28.5 11zM295 243l61 36q49 -65 85 -132q45 -63 112 -63q56 0 56 -45
q0 -15 -9.5 -27t-29.5 -12q-47 0 -76 18q6 -19 6 -44q-1 -101 -60.5 -162t-135.5 -61q-94 0 -150 53l-3 62q63 -35 141 -35q53 0 94 36t50 90q2 7 2 26q0 37 -45.5 114.5t-97.5 145.5z" />
    <glyph glyph-name="uni0698.f" unicode="&#x698;" horiz-adv-x="470" arabic-form="final" 
d="M241 514q-25 0 -40.5 16t-15.5 42q0 19 11.5 31t29.5 12q27 0 42.5 -16.5t15.5 -42.5q0 -18 -12 -30t-31 -12zM198 395q-25 0 -40.5 16t-15.5 42q0 19 12 31.5t29 12.5q26 0 42 -17t16 -42q0 -18 -12 -30.5t-31 -12.5zM271 453q0 19 11.5 31.5t29.5 12.5q26 0 42 -17
t16 -42q0 -18 -12 -30.5t-31 -12.5q-25 0 -40.5 16t-15.5 42zM295 243l61 36q49 -65 85 -132q45 -63 112 -63q56 0 56 -45q0 -15 -9.5 -27t-29.5 -12q-47 0 -76 18q6 -19 6 -44q-1 -101 -60.5 -162t-135.5 -61q-94 0 -150 53l-3 62q63 -35 141 -35q53 0 94 36t50 90
q2 7 2 26q0 37 -45.5 114.5t-97.5 145.5z" />
    <glyph glyph-name="uni06A1.f" unicode="&#x6a1;" horiz-adv-x="915" 
d="M974 84h24q55 0 55 -45q0 -15 -9.5 -27t-28.5 -12h-24q-114 0 -217 38q-111 -59 -295 -59q-106 0 -183.5 26.5t-120 73t-62.5 102t-20 122.5q0 41 6 79l56 -8q-3 -18 -3 -43q0 -270 336 -270q119 0 199 21q-107 72 -107 178q0 65 43.5 113.5t94.5 48.5q66 0 122.5 -58.5
t56.5 -145.5q0 -70 -50 -124q59 -10 127 -10zM644 258q0 -100 123 -144q66 40 66 105q0 52 -32 90t-78 38q-35 0 -57 -27t-22 -62z" />
    <glyph glyph-name="uni06A4.i" unicode="&#x6a4;" horiz-adv-x="431" arabic-form="initial" 
d="M100 0q-28 0 -43 14t-15 33q0 15 10.5 26t30.5 11h68q76 0 144 10t86 21q0 30 -1 42q-149 -7 -221 47t-72 135q0 54 31 94q41 55 106 55q82 0 150.5 -97t68.5 -263q0 -46 -3 -64q-78 -64 -282 -64h-58zM149 336q0 -51 60.5 -81t163.5 -26q-11 71 -51.5 127.5t-95.5 56.5
q-34 0 -55.5 -21.5t-21.5 -55.5zM146 739q-25 0 -40.5 16t-15.5 42q0 19 12 31t29 12q27 0 42.5 -16.5t15.5 -42.5q0 -18 -12 -30t-31 -12zM104 620q-25 0 -40.5 16t-15.5 42q0 19 11.5 31.5t29.5 12.5q26 0 42 -17t16 -42q0 -18 -12 -30.5t-31 -12.5zM233 620
q-25 0 -41 16.5t-16 41.5q0 19 12 31.5t30 12.5q26 0 41.5 -17t15.5 -42q0 -18 -12 -30.5t-30 -12.5z" />
    <glyph glyph-name="uni06A4.m" unicode="&#x6a4;" horiz-adv-x="454" arabic-form="medial" 
d="M176 670q-25 0 -40.5 16t-15.5 42q0 19 12 31t29 12q27 0 42.5 -16.5t15.5 -42.5q0 -18 -12 -30t-31 -12zM134 551q-25 0 -40.5 16t-15.5 42q0 19 11.5 31.5t29.5 12.5q26 0 42 -17t16 -42q0 -18 -12 -30.5t-31 -12.5zM206 609q0 19 12 31.5t30 12.5q26 0 41.5 -17
t15.5 -42q0 -18 -12 -30.5t-30 -12.5q-25 0 -41 16.5t-16 41.5zM509 84h28q56 0 56 -45q0 -15 -9.5 -27t-29.5 -12h-34q-111 0 -211 38q-78 -38 -173 -38h-36q-57 0 -57 48q0 13 9.5 24.5t30.5 11.5h34q49 0 95 6q-93 70 -93 167q0 68 43 116.5t96 48.5q65 0 121.5 -59
t56.5 -145q0 -69 -50 -124q54 -10 123 -10zM181 254q0 -93 121 -138q72 33 72 102q0 52 -34 90.5t-76 38.5q-39 0 -61 -28t-22 -65z" />
    <glyph glyph-name="uni06A4.f" unicode="&#x6a4;" horiz-adv-x="915" arabic-form="final" 
d="M647 670q-24 0 -40 16.5t-16 41.5q0 19 12 31t30 12q26 0 41.5 -16.5t15.5 -42.5q0 -18 -12 -30t-31 -12zM605 551q-25 0 -40.5 16t-15.5 42q0 19 11.5 31.5t29.5 12.5q26 0 42 -17t16 -42q0 -18 -12 -30.5t-31 -12.5zM677 609q0 19 12 31.5t30 12.5q26 0 41.5 -16.5
t15.5 -42.5q0 -18 -12 -30.5t-30 -12.5q-25 0 -41 16.5t-16 41.5zM974 84h24q56 0 56 -45q0 -14 -10 -26.5t-29 -12.5h-24q-114 0 -217 38q-111 -59 -295 -59q-106 0 -183.5 26.5t-120 73t-62.5 102t-20 122.5q0 41 6 79l56 -8q-3 -18 -3 -43q0 -270 336 -270q119 0 199 21
q-107 72 -107 178q0 65 43.5 113.5t94.5 48.5q66 0 122.5 -58.5t56.5 -145.5q0 -70 -50 -124q59 -10 127 -10zM644 258q0 -100 123 -144q66 40 66 105q0 52 -32 90t-78 38q-35 0 -57 -27t-22 -62z" />
    <glyph glyph-name="uni06A9.f" unicode="&#x6a9;" horiz-adv-x="961" arabic-form="final" 
d="M512 62q63 0 112.5 6.5t79.5 16t49.5 21.5t27 23t7.5 21q0 23 -19.5 53t-71.5 88q-81 86 -165 157q-8 69 -5 78q2 7 42 32q137 86 366 164l-15 -86q-77 -23 -182.5 -68.5t-151.5 -77.5q134 -117 281 -295q56 -69 92.5 -90t84.5 -21q56 0 56 -45q0 -15 -9.5 -27t-29.5 -12
h-8q-59 0 -107.5 24t-106.5 97q-6 -63 -95 -104.5t-235 -41.5q-232 0 -325.5 78.5t-82.5 247.5l57 -10q-1 -125 82 -177t272 -52z" />
    <glyph glyph-name="uni0643.iz" unicode="&#x6aa;" horiz-adv-x="978" 
d="M86 84h94q138 0 255.5 5t263.5 15.5t234 14.5q-11 137 -205 137q-60 0 -210 -10q-146 -10 -235 -10q-40 0 -69 4t-60.5 15.5t-48.5 38t-17 66.5q0 76 84 156q73 70 236 157l-14 -92q-47 -21 -108 -62t-98 -83q-35 -41 -35 -71q0 -56 120 -56q47 0 284 13q110 7 160 7
q145 -1 211.5 -61.5t73.5 -171.5q3 -19 1 -53q-42 -1 -342 -22t-451 -21h-110q-56 0 -56 45q0 15 10.5 27t31.5 12z" />
    <glyph glyph-name="uni0643.mz" unicode="&#x6aa;" horiz-adv-x="986" 
d="M408 673l-14 -92q-47 -21 -108 -62t-98 -83q-35 -41 -35 -71q0 -56 120 -56q47 0 284 13q110 7 160 7q143 -1 209.5 -59.5t75.5 -167.5q24 -18 66 -18q56 0 56 -45q0 -15 -9.5 -27t-28.5 -12q-72 0 -121 41q-2 0 -306.5 -20.5t-448.5 -20.5h-110q-31 0 -44.5 16.5
t-13.5 33.5q0 13 10 23.5t31 10.5h97q138 0 255.5 5t263.5 15.5t234 14.5q-11 137 -205 137q-60 0 -210 -10q-146 -10 -235 -10q-40 0 -69 4t-60.5 15.5t-48.5 38t-17 66.5q0 76 84 156q73 70 236 157z" />
    <glyph glyph-name="uni0643.fz" unicode="&#x6aa;" horiz-adv-x="1089" 
d="M512 673l-14 -92q-47 -21 -108 -62t-98 -83q-35 -41 -35 -71q0 -56 120 -56q44 0 284 13q110 7 159 7q144 -1 211 -60t75 -167q24 -18 66 -18q56 0 56 -45q0 -15 -9.5 -27t-29.5 -12q-73 0 -118 40q-470 -42 -686 -42q-176 0 -223 13l-54 95q90 -24 248 -24
q112 0 218.5 5t268 17.5t195.5 14.5q-4 69 -60 103t-149 34q-83 0 -208 -10q-183 -10 -234 -10q-31 0 -54.5 2t-51.5 9.5t-46 20.5t-30.5 36.5t-12.5 55.5q0 76 84 156q73 70 236 157z" />
    <glyph glyph-name="uni06AD.i" unicode="&#x6ad;" horiz-adv-x="394" arabic-form="initial" 
d="M99 0q-55 0 -55 45q0 15 10 27t32 12h95q93 0 126.5 17.5t33.5 50.5q0 46 -73 119.5t-255 179.5q-8 55 -4 78q1 8 34 30q59 39 151 85.5t177 77.5l-15 -86q-71 -26 -156 -66.5t-129 -71.5q67 -44 101 -67t86.5 -64.5t79 -72.5t47 -72t20.5 -81q0 -69 -49 -103
q-54 -38 -187 -38h-70zM40 839q-23 0 -38.5 15.5t-15.5 40.5q0 17 11.5 29t28.5 12q25 0 39.5 -15.5t14.5 -40.5q0 -17 -11 -29t-29 -12zM-1 727q-23 0 -38 15t-15 40q0 17 11.5 29t27.5 12q25 0 40 -16t15 -40q0 -17 -11.5 -28.5t-29.5 -11.5zM122 727q-23 0 -38 15t-15 40
q0 17 11 29t28 12q25 0 39.5 -15.5t14.5 -40.5q0 -17 -11 -28.5t-29 -11.5z" />
    <glyph glyph-name="uni06AD.m" unicode="&#x6ad;" horiz-adv-x="443" arabic-form="medial" 
d="M129 0h-29q-56 0 -56 44q0 16 10.5 28t32.5 12h25q91 0 129 17.5t38 52.5q0 23 -11.5 41t-48.5 61q-68 78 -207 193q0 4 -1.5 23t-2.5 33.5t-1 17.5q3 8 42 33q58 36 168 85t203 80l-15 -85q-79 -27 -186.5 -74t-149.5 -75q94 -78 155.5 -141t159.5 -175q33 -39 60.5 -59
t41 -23t40.5 -6q56 0 56 -44q0 -15 -9.5 -27.5t-29.5 -12.5q-56 1 -100.5 24.5t-113.5 103.5q-11 -127 -200 -127zM40 839q-23 0 -38.5 15.5t-15.5 40.5q0 17 11.5 29t28.5 12q25 0 39.5 -15.5t14.5 -40.5q0 -17 -11 -29t-29 -12zM-1 727q-23 0 -38 15t-15 40q0 17 11.5 29
t27.5 12q25 0 40 -16t15 -40q0 -17 -11.5 -28.5t-29.5 -11.5zM122 727q-23 0 -38 15t-15 40q0 17 11 29t28 12q25 0 39.5 -15.5t14.5 -40.5q0 -17 -11 -28.5t-29 -11.5z" />
    <glyph glyph-name="uni06AD.f" unicode="&#x6ad;" horiz-adv-x="855" arabic-form="final" 
d="M104 262q0 19 4 37l55 -8q-4 -122 74 -175.5t220 -53.5q106 0 181.5 27.5t93.5 65.5q4 18 -5 57l-123 508l69 5l117 -488q23 -87 57 -119t91 -34q56 0 56 -45q0 -14 -10 -26.5t-29 -12.5q-137 0 -186 105q-24 -50 -106 -86.5t-212 -36.5q-82 0 -145 16.5t-100.5 43
t-61 64.5t-32 75.5t-8.5 80.5zM350 277l-24 41q48 1 85 12t52 22t15 19t-13 12t-51 6q-46 3 -62 16.5t-16 44.5q0 40 31.5 77.5t82.5 48.5l16 -52q-42 -8 -64.5 -27.5t-22.5 -37.5t49 -20q50 -3 71 -16.5t21 -43.5q0 -43 -42 -73.5t-98 -30.5q-22 0 -30 2zM308 794
q-23 0 -38 15.5t-15 40.5q0 17 11.5 29t27.5 12q25 0 40 -16t15 -40q0 -17 -11.5 -29t-29.5 -12zM268 682q-24 0 -39 15t-15 40q0 17 11.5 29t27.5 12q26 0 40.5 -15.5t14.5 -40.5q0 -17 -11 -28.5t-29 -11.5zM390 682q-23 0 -38 15t-15 40q0 17 11.5 29t27.5 12
q25 0 40 -16t15 -40q0 -17 -11.5 -28.5t-29.5 -11.5z" />
    <glyph glyph-name="uni06AF.i" unicode="&#x6af;" horiz-adv-x="394" arabic-form="initial" 
d="M99 0q-55 0 -55 45q0 15 10 27t32 12h95q93 0 126.5 17.5t33.5 50.5q0 46 -73 119.5t-255 179.5q-8 55 -4 78q1 8 34 30q59 39 151 85.5t177 77.5l-15 -86q-71 -26 -156 -66.5t-129 -71.5q67 -44 101 -67t86.5 -64.5t79 -72.5t47 -72t20.5 -81q0 -69 -49 -103
q-54 -38 -187 -38h-70zM4 713q58 36 153 81.5t189 79.5l-1 -65q-189 -67 -339 -158z" />
    <glyph glyph-name="uni06AF.m" unicode="&#x6af;" horiz-adv-x="443" arabic-form="medial" 
d="M129 0h-29q-56 0 -56 44q0 16 10.5 28t32.5 12h25q91 0 129 17.5t38 52.5q0 23 -11.5 41t-48.5 61q-68 78 -207 193q0 4 -1.5 23t-2.5 33.5t-1 17.5q3 8 42 33q58 36 168 85t203 80l-15 -85q-79 -27 -186.5 -74t-149.5 -75q94 -78 155.5 -141t159.5 -175q33 -39 60.5 -59
t41 -23t40.5 -6q56 0 56 -44q0 -15 -9.5 -27.5t-29.5 -12.5q-56 1 -100.5 24.5t-113.5 103.5q-11 -127 -200 -127zM15 713q58 36 153 81.5t189 79.5l-1 -65q-189 -67 -339 -158z" />
    <glyph glyph-name="uni06AF.f" unicode="&#x6af;" horiz-adv-x="961" arabic-form="final" 
d="M512 62q63 0 112.5 6.5t79.5 16t49.5 21.5t27 23t7.5 21q0 23 -19.5 53t-71.5 88q-81 86 -165 157q-8 69 -5 78q2 7 42 32q137 86 366 164l-15 -86q-77 -23 -182.5 -68.5t-151.5 -77.5q134 -117 281 -295q56 -69 92.5 -90t84.5 -21q56 0 56 -45q0 -15 -9.5 -27t-29.5 -12
h-8q-59 0 -107.5 24t-106.5 97q-6 -63 -95 -104.5t-235 -41.5q-232 0 -325.5 78.5t-82.5 247.5l57 -10q-1 -125 82 -177t272 -52zM533 713q58 36 153 81.5t189 79.5l-1 -65q-189 -67 -339 -158z" />
    <glyph glyph-name="uni06BA.f" unicode="&#x6ba;" horiz-adv-x="636" arabic-form="final" 
d="M138 86q0 56 12 102l60 -9q-5 -43 -5 -78q0 -105 58.5 -169t153.5 -64q63 0 111 27t65 80q8 14 8 30q-2 39 -25 86q-38 86 -99 174l64 29q68 -99 102 -197q32 -13 76 -13q56 0 56 -45q0 -15 -9.5 -27t-29.5 -12q-52 0 -75 11q4 -39 -12 -82q-25 -64 -84 -104t-146 -40
q-130 0 -205.5 84t-75.5 217z" />
    <glyph glyph-name="uni06BE.f" unicode="&#x6be;" horiz-adv-x="517" arabic-form="final" 
d="M467 84h132q56 0 56 -45q0 -15 -10 -27t-31 -12h-103q44 -26 64.5 -56.5t20.5 -72.5q0 -51 -37.5 -83.5t-87.5 -32.5q-95 0 -160 63.5t-95 160.5q-38 -3 -78 -3l-38 84q38 -1 99 1q-3 24 -3 46q0 76 20.5 161t49.5 149h26q41 -38 61 -57t57.5 -61t55.5 -80t18 -73
q0 -34 -17 -62zM259 113q0 -25 3 -47q163 18 163 83q0 33 -37 81t-91 94q-38 -101 -38 -211zM534 -119q0 41 -49.5 79.5t-145.5 39.5q-38 -10 -59 -13q26 -72 75.5 -116.5t108.5 -44.5q32 0 51 15t19 40z" />
    <glyph glyph-name="uni06C0.f" unicode="&#x6c0;" horiz-adv-x="476" arabic-form="final" 
d="M184 610l-3 46q19 11 43 11q-49 26 -49 73q0 33 26.5 54t63.5 21q51 0 85 -26l-6 -45q-37 22 -78 22q-21 0 -32 -9.5t-11 -22.5q0 -24 29 -41t72 -17h64l-10 -50h-63q-93 0 -131 -16zM346 524l78 -314q30 -126 135 -126q56 0 56 -45q0 -15 -9.5 -27t-29.5 -12
q-118 0 -173 89q-46 -29 -116 -29q-78 0 -129 41.5t-51 108.5q0 75 69 141q38 40 129 86l-21 81zM365 184l-43 181q-81 -34 -117 -76t-36 -79q0 -34 30 -52t81 -18t92 18q-1 3 -3.5 12t-3.5 14z" />
    <glyph glyph-name="uni06C1.i" unicode="&#x6c1;" horiz-adv-x="459" arabic-form="initial" 
d="M345 0q-81 0 -116 73q-13 -34 -47.5 -53.5t-83.5 -19.5q-54 0 -54 44q0 15 10 27.5t30 12.5q70 0 94 33t23 102l59 3q0 -2 -0.5 -19t0.5 -19q6 -103 80 -103q34 0 52 18.5t18 50.5q0 56 -57 134l65 21q56 -83 56 -167q-1 -62 -36.5 -100t-92.5 -38zM377 -78l58 -23
q-25 -46 -25 -89q0 -63 69 -126l-51 -30q-32 25 -59 68.5t-27 90.5q0 57 35 109z" />
    <glyph glyph-name="uni06C1.m" unicode="&#x6c1;" horiz-adv-x="485" arabic-form="medial" 
d="M127 0h-27q-56 0 -56 45q0 15 10.5 27t34.5 12h35q41 0 69.5 12.5t46 38.5t27 50.5t18.5 61.5l64 -12q-33 -118 -33 -189q0 -150 124 -251l3 3q-44 99 -44 163q0 62 33.5 92.5t94.5 30.5h41q56 0 56 -45q0 -15 -10.5 -27t-31.5 -12h-38q-44 0 -62.5 -15.5t-18.5 -51.5
q0 -39 20.5 -97.5t45.5 -105.5l-55 -47q-101 60 -158.5 146.5t-61.5 189.5q-1 1 -1 22q-39 -41 -126 -41z" />
    <glyph glyph-name="uni06C1.f" unicode="&#x6c1;" horiz-adv-x="476" arabic-form="final" 
d="M346 524l78 -314q30 -126 135 -126q56 0 56 -45q0 -15 -9.5 -27t-29.5 -12q-118 0 -173 89q-46 -29 -116 -29q-78 0 -129 41.5t-51 108.5q0 75 69 141q38 40 129 86l-21 81zM365 184l-43 181q-81 -34 -117 -76t-36 -79q0 -34 30 -52t81 -18t92 18q-1 3 -3.5 12t-3.5 14z
" />
    <glyph glyph-name="uni06C2.f" unicode="&#x6c2;" horiz-adv-x="476" 
d="M184 610l-3 46q19 11 43 11q-49 26 -49 73q0 33 26.5 54t63.5 21q51 0 85 -26l-6 -45q-37 22 -78 22q-21 0 -32 -9.5t-11 -22.5q0 -24 29 -41t72 -17h64l-10 -50h-63q-93 0 -131 -16zM346 524l78 -314q30 -126 135 -126q56 0 56 -45q0 -15 -9.5 -27t-29.5 -12
q-118 0 -173 89q-46 -29 -116 -29q-78 0 -129 41.5t-51 108.5q0 75 69 141q38 40 129 86l-21 81zM365 184l-43 181q-81 -34 -117 -76t-36 -79q0 -34 30 -52t81 -18t92 18q-1 3 -3.5 12t-3.5 14z" />
    <glyph glyph-name="uni06C3.f" unicode="&#x6c3;" horiz-adv-x="476" 
d="M227 620q-25 -1 -40.5 15.5t-15.5 42.5q0 19 11.5 31t29.5 12q27 0 42.5 -16.5t15.5 -42.5q0 -18 -12 -30t-31 -12zM356 620q-25 -1 -41 15.5t-16 42.5q0 19 12 31t30 12q26 0 41.5 -16.5t15.5 -42.5q0 -18 -12 -30t-30 -12zM346 524l78 -314q30 -126 135 -126
q56 0 56 -45q0 -15 -9.5 -27t-29.5 -12q-118 0 -173 89q-46 -29 -116 -29q-78 0 -129 41.5t-51 108.5q0 75 69 141q38 40 129 86l-21 81zM365 184l-43 181q-81 -34 -117 -76t-36 -79q0 -34 30 -52t81 -18t92 18q-1 3 -3.5 12t-3.5 14z" />
    <glyph glyph-name="uni06C5.f" unicode="&#x6c5;" horiz-adv-x="531" arabic-form="final" 
d="M548 84h66q56 0 56 -45q0 -15 -10.5 -27t-31.5 -12h-78q-7 -132 -71.5 -213.5t-165.5 -81.5q-84 0 -144 48l2 60q59 -30 134 -30q112 0 159 107h-220l-9 49h245q6 24 8 61h-42q-131 0 -193 54.5t-62 137.5q0 63 42.5 107t103.5 44q71 0 134 -67t77 -192zM446 84h39
q-13 86 -55.5 137t-98.5 51q-33 0 -56 -23.5t-23 -56.5q0 -50 47.5 -79t146.5 -29z" />
    <glyph glyph-name="uni06C6.f" unicode="&#x6c6;" horiz-adv-x="527" arabic-form="final" 
d="M289 471h-50q-37 58 -136 157l40 32q66 -62 114 -126q30 70 63 127l43 -27q-49 -86 -74 -163zM541 84h69q56 0 56 -45q0 -15 -10 -27t-31 -12h-82q-8 -123 -73.5 -200t-165.5 -77q-84 0 -144 47l2 60q62 -30 134 -30q79 0 128.5 56t56.5 144h-36q-131 0 -194.5 54.5
t-63.5 137.5q0 63 42.5 107t103.5 44q32 0 64.5 -15t62.5 -45t52.5 -81.5t28.5 -117.5zM445 84h33q-12 86 -54 137t-97 51q-33 0 -55.5 -23.5t-22.5 -56.5q0 -108 196 -108z" />
    <glyph glyph-name="uni06C7.f" unicode="&#x6c7;" horiz-adv-x="527" arabic-form="final" 
d="M146 472l-4 39q24 -5 54 -5q28 0 53 11t34 32q-58 -5 -96 19.5t-38 74.5q0 33 24 57.5t59 24.5q37 0 70.5 -34t34.5 -99q1 -61 -39 -97t-91 -36q-39 0 -61 13zM189 641q0 -24 26.5 -40t78.5 -12q1 35 -17 62.5t-49 27.5q-19 0 -29 -11.5t-10 -26.5zM541 84h69
q56 0 56 -45q0 -15 -10 -27t-31 -12h-82q-8 -123 -73.5 -200t-165.5 -77q-84 0 -144 47l2 60q62 -30 134 -30q79 0 128.5 56t56.5 144h-36q-131 0 -194.5 54.5t-63.5 137.5q0 63 42.5 107t103.5 44q32 0 64.5 -15t62.5 -45t52.5 -81.5t28.5 -117.5zM445 84h33
q-12 86 -54 137t-97 51q-33 0 -55.5 -23.5t-22.5 -56.5q0 -108 196 -108z" />
    <glyph glyph-name="uni06C8.f" unicode="&#x6c8;" horiz-adv-x="527" arabic-form="final" 
d="M295 477l-57 -4l-65 240l63 5zM541 84h69q56 0 56 -45q0 -15 -10 -27t-31 -12h-82q-8 -123 -73.5 -200t-165.5 -77q-84 0 -144 47l2 60q62 -30 134 -30q79 0 128.5 56t56.5 144h-36q-131 0 -194.5 54.5t-63.5 137.5q0 63 42.5 107t103.5 44q32 0 64.5 -15t62.5 -45
t52.5 -81.5t28.5 -117.5zM445 84h33q-12 86 -54 137t-97 51q-33 0 -55.5 -23.5t-22.5 -56.5q0 -108 196 -108z" />
    <glyph glyph-name="uni06C9.f" unicode="&#x6c9;" horiz-adv-x="527" arabic-form="final" 
d="M394 492l-39 -32q-66 61 -115 126q-26 -65 -63 -127l-43 27q53 93 74 163h50q37 -58 136 -157zM541 84h69q56 0 56 -45q0 -15 -10 -27t-31 -12h-82q-8 -123 -73.5 -200t-165.5 -77q-84 0 -144 47l2 60q62 -30 134 -30q79 0 128.5 56t56.5 144h-36q-131 0 -194.5 54.5
t-63.5 137.5q0 63 42.5 107t103.5 44q32 0 64.5 -15t62.5 -45t52.5 -81.5t28.5 -117.5zM445 84h33q-12 86 -54 137t-97 51q-33 0 -55.5 -23.5t-22.5 -56.5q0 -108 196 -108z" />
    <glyph glyph-name="uni06CB.f" unicode="&#x6cb;" horiz-adv-x="527" arabic-form="final" 
d="M242 595q-25 0 -40.5 16t-15.5 42q0 19 12 31t30 12q26 0 41.5 -16.5t15.5 -42.5q0 -18 -12 -30t-31 -12zM200 476q-25 0 -40.5 16t-15.5 42q0 19 11.5 31.5t29.5 12.5q26 0 42 -17t16 -42q0 -18 -12 -30.5t-31 -12.5zM272 534q0 19 12 31.5t30 12.5q26 0 41.5 -17
t15.5 -42q0 -18 -12 -30.5t-30 -12.5q-25 0 -41 16.5t-16 41.5zM541 84h69q56 0 56 -45q0 -15 -10 -27t-31 -12h-82q-8 -123 -73.5 -200t-165.5 -77q-84 0 -144 47l2 60q62 -30 134 -30q79 0 128.5 56t56.5 144h-36q-131 0 -194.5 54.5t-63.5 137.5q0 63 42.5 107t103.5 44
q32 0 64.5 -15t62.5 -45t52.5 -81.5t28.5 -117.5zM445 84h33q-12 86 -54 137t-97 51q-33 0 -55.5 -23.5t-22.5 -56.5q0 -108 196 -108z" />
    <glyph glyph-name="uni06D0.i" unicode="&#x6d0;" horiz-adv-x="287" arabic-form="initial" 
d="M100 0q-57 0 -57 45q0 15 9.5 27t30.5 12h13q121 0 153 23q-17 109 -127 255l62 28q48 -65 90 -153.5t42 -158.5q0 -20 -2 -29q-45 -49 -204 -49h-10zM270 -236q-25 0 -41 16.5t-16 41.5q0 19 12 31.5t30 12.5q26 0 41.5 -17t15.5 -43q0 -18 -11.5 -30t-30.5 -12z
M297 -368q-25 0 -40.5 16.5t-15.5 42.5q0 18 12 30.5t29 12.5q27 0 42.5 -16.5t15.5 -42.5q0 -18 -12 -30.5t-31 -12.5z" />
    <glyph glyph-name="uni06D0.m" unicode="&#x6d0;" horiz-adv-x="313" arabic-form="medial" 
d="M86 84q50 0 75.5 24.5t30 56.5t0.5 81l55 4q3 -28 6 -47q25 -117 142 -119q56 0 56 -45q0 -15 -10 -27t-31 -12q-124 0 -174 101q-10 -49 -46 -75t-90 -26q-56 0 -56 45q0 15 10 27t32 12zM299 -236q-25 0 -40.5 16t-15.5 42q0 19 12 31.5t29 12.5q26 0 42 -17t16 -43
q0 -18 -12 -30t-31 -12zM327 -368q-25 0 -40.5 16.5t-15.5 42.5q0 18 11.5 30.5t29.5 12.5q26 0 41.5 -16.5t15.5 -42.5q0 -18 -11.5 -30.5t-30.5 -12.5z" />
    <glyph glyph-name="uni06D0.f" unicode="&#x6d0;" horiz-adv-x="666" arabic-form="final" 
d="M142 72q0 51 12 97l54 -8q-4 -26 -4 -62q0 -80 24.5 -138t66.5 -89.5t88.5 -45.5t99.5 -14q159 0 225 85q19 25 19 48q0 27 -24.5 41t-107.5 14h-12l17 84h149q56 0 56 -45q0 -15 -10 -27t-31 -12h-8q33 -19 33 -63q0 -36 -19 -69q-33 -61 -108 -99t-175 -38
q-88 0 -155.5 27t-108 75t-61 108t-20.5 131zM546 -456q-25 0 -40.5 16t-15.5 42q0 19 12 31.5t29 12.5q26 0 42 -17t16 -43q0 -18 -12 -30t-31 -12zM574 -588q-25 0 -41 16.5t-16 42.5q0 18 12 30.5t30 12.5q26 0 41.5 -16.5t15.5 -42.5q0 -18 -11.5 -30.5t-30.5 -12.5z
" />
    <glyph glyph-name="uni06D2.f" unicode="&#x6d2;" horiz-adv-x="277" arabic-form="final" 
d="M377 0q-87 -3 -132 -27.5t-45 -65.5q0 -23 14.5 -37.5t43.5 -21t55 -8.5t65 -2q268 0 500 22l-21 -82q-205 -24 -465 -24q-40 0 -71.5 2.5t-67.5 12t-60 26t-40 46t-16 69.5q0 37 16 69q22 44 75 74t132 31q56 0 56 -45q0 -14 -9.5 -26t-29.5 -13z" />
    <glyph glyph-name="uni06D3.f" unicode="&#x6d3;" horiz-adv-x="277" arabic-form="final" 
d="M377 0q-87 -3 -132 -27.5t-45 -65.5q0 -23 14.5 -37.5t43.5 -21t55 -8.5t65 -2q268 0 500 22l-21 -82q-205 -24 -465 -24q-40 0 -71.5 2.5t-67.5 12t-60 26t-40 46t-16 69.5q0 37 16 69q22 44 75 74t132 31q56 0 56 -45q0 -14 -9.5 -26t-29.5 -13zM133 219l-3 46
q19 11 43 11q-49 26 -49 73q0 33 26.5 54t63.5 21q51 0 85 -26l-6 -45q-37 22 -78 22q-21 0 -32 -9.5t-11 -22.5q0 -24 29 -41t72 -17h64l-10 -50h-63q-93 0 -131 -16z" />
    <glyph glyph-name="uni06D5.f" unicode="&#x6d5;" horiz-adv-x="476" 
d="M346 524l78 -314q30 -126 135 -126q56 0 56 -45q0 -15 -9.5 -27t-29.5 -12q-118 0 -173 89q-46 -29 -116 -29q-78 0 -129 41.5t-51 108.5q0 75 69 141q38 40 129 86l-21 81zM365 184l-43 181q-81 -34 -117 -76t-36 -79q0 -34 30 -52t81 -18t92 18q-1 3 -3.5 12t-3.5 14z
" />
    <glyph glyph-name=".notdef" horiz-adv-x="500" 
d="M0 0v700h500v-700h-500zM250 395l170 255h-340zM280 350l170 -255v510zM80 50h340l-170 255zM50 605v-510l170 255z" />
    <glyph glyph-name=".null" 
 />
    <glyph glyph-name="nonmarkingreturn" horiz-adv-x="466" 
 />
    <glyph glyph-name="space" unicode=" " horiz-adv-x="268" 
 />
    <glyph glyph-name="exclam" unicode="!" horiz-adv-x="298" 
d="M224 194h-66l-130 480h94zM230 -11q-27 0 -45.5 19t-19.5 46q-1 26 14.5 43t40.5 17q27 0 45 -19.5t19 -47.5q1 -24 -14.5 -41t-39.5 -17z" />
    <glyph glyph-name="quotedbl" unicode="&#x22;" horiz-adv-x="337" 
d="M61 470l-71 240h86l39 -240h-54zM211 470l-73 240h87l39 -240h-53z" />
    <glyph glyph-name="numbersign" unicode="#" horiz-adv-x="492" 
d="M251 254h90l-45 146h-90zM479 0h-58l-61 197h-91l62 -197h-59l-61 197h-95l-10 57h87l-46 146h-90l-9 58h82l-61 192h58l60 -192h91l-59 192h57l61 -192h94l9 -58h-86l46 -146h91l10 -58h-83z" />
    <glyph glyph-name="dollar" unicode="$" horiz-adv-x="509" 
d="M147 67l16 68q32 -22 78 -37.5t85 -15.5q94 0 94 78q0 47 -39 78.5t-106 60.5q-35 15 -50.5 22.5t-45.5 23.5t-44.5 29.5t-32.5 34t-25.5 44.5t-7.5 53q-1 47 31.5 82.5t82.5 45.5l-23 100h63l22 -96q86 -1 145 -39l-18 -65q-65 38 -135 38q-45 0 -66.5 -19.5
t-21.5 -48.5q0 -24 10.5 -43.5t36 -36t45.5 -26.5t62 -28q41 -17 71 -33.5t62 -41.5t49 -58.5t17 -73.5q1 -55 -30.5 -93t-90.5 -51l24 -105h-62l-23 101q-44 1 -92 16.5t-81 35.5z" />
    <glyph glyph-name="percent" unicode="%" horiz-adv-x="853" 
d="M247 262q-93 0 -142 76t-49 172q0 70 36.5 110.5t93.5 40.5q90 0 140 -76t51 -172q1 -74 -37 -112.5t-93 -38.5zM243 315q66 0 66 92q0 43 -11.5 87t-40 79t-67.5 35q-66 0 -66 -93q0 -75 33 -137.5t86 -62.5zM322 -12l226 674h56l-226 -674h-56zM740 -7q-93 0 -142 76
t-49 172q0 70 36.5 110.5t93.5 40.5q90 0 140 -76t51 -172q1 -74 -37 -112.5t-93 -38.5zM735 46q67 0 67 92q0 71 -31 136t-88 65q-66 0 -66 -93q0 -75 33 -137.5t85 -62.5z" />
    <glyph glyph-name="ampersand" unicode="&#x26;" horiz-adv-x="588" 
d="M533 0h-98q-17 20 -46 62q-83 -73 -190 -73q-84 0 -133 48t-49 120q0 73 48 128t119 89v4q-37 69 -37 123q0 76 51 130t128 54q65 0 100.5 -38t35.5 -95q0 -115 -173 -197v-2q52 -88 121 -187q57 71 102 202h78q-60 -172 -142 -256q43 -62 85 -112zM221 54q76 0 133 60
q-113 168 -140 213q-113 -69 -113 -157q0 -50 32 -83t88 -33zM318 626q-39 0 -66.5 -33.5t-27.5 -82.5q0 -56 32 -107q64 30 96.5 65t32.5 82q0 33 -16.5 54.5t-50.5 21.5z" />
    <glyph glyph-name="quotesingle" unicode="'" horiz-adv-x="188" 
d="M61 470l-71 240h86l39 -240h-54z" />
    <glyph glyph-name="parenleft" unicode="(" horiz-adv-x="312" 
d="M375 -118h-73q-105 99 -168.5 235t-63.5 298q0 66 15.5 143.5t38.5 132.5h59q-41 -133 -41 -267q0 -153 58.5 -284.5t174.5 -257.5z" />
    <glyph glyph-name="parenright" unicode=")" horiz-adv-x="312" 
d="M11 691h73q105 -99 168.5 -235t63.5 -298q0 -65 -15 -143t-38 -133h-60q42 132 42 267q0 153 -59 284.5t-175 257.5z" />
    <glyph glyph-name="asterisk" unicode="*" horiz-adv-x="414" 
d="M334 370l-57 -35l-76 139h-2l-47 -139l-65 35l80 123v2l-141 -19l-13 68l150 -19v2l-108 122l53 36l79 -141h2l48 140l64 -35l-82 -121v-2l144 18l14 -68l-153 19v-2z" />
    <glyph glyph-name="plus" unicode="+" horiz-adv-x="596" 
d="M274 532h61v-235h220v-60h-220v-237h-61v237h-219v60h219v235z" />
    <glyph glyph-name="comma" unicode="," horiz-adv-x="211" 
d="M21 -117l-64 -7q65 126 98 240l99 10q-26 -62 -66 -134.5t-67 -108.5z" />
    <glyph glyph-name="hyphen" unicode="-" horiz-adv-x="327" 
d="M328 238h-239l-16 65h239z" />
    <glyph glyph-name="period" unicode="." horiz-adv-x="211" 
d="M76 -11q-24 0 -39.5 17t-15.5 42q0 28 17.5 48t44.5 20q26 0 41.5 -17t15.5 -44t-18.5 -46.5t-45.5 -19.5z" />
    <glyph glyph-name="slash" unicode="/" horiz-adv-x="327" 
d="M13 -40h-67l402 725h68z" />
    <glyph glyph-name="zero" unicode="0" horiz-adv-x="509" 
d="M339 -11q-67 0 -120.5 39.5t-85.5 104.5t-48.5 141.5t-16.5 156.5q0 105 45.5 167.5t127.5 62.5q83 0 146 -64t93.5 -162.5t31.5 -213.5q1 -111 -46 -171.5t-127 -60.5zM338 58q94 0 94 154q0 56 -11 118.5t-33 123t-60.5 99.5t-86.5 39q-44 0 -68.5 -39.5t-24.5 -115.5
q0 -90 21.5 -175t66.5 -144.5t102 -59.5z" />
    <glyph glyph-name="one" unicode="1" horiz-adv-x="509" 
d="M533 72l17 -72h-355l-16 72h146l-115 498h-2l-100 -68l-30 65l123 83h73l132 -578h127z" />
    <glyph glyph-name="two" unicode="2" horiz-adv-x="509" 
d="M154 0l-14 52q46 56 56 69q84 114 121 185.5t37 135.5q0 61 -32 105t-100 44q-43 0 -81 -20t-61 -44l-32 57q28 32 77 54.5t107 22.5q103 0 153 -62.5t50 -146.5q0 -73 -36.5 -145t-113.5 -180l-39 -53v-2h283l18 -72h-393z" />
    <glyph glyph-name="three" unicode="3" horiz-adv-x="509" 
d="M121 37l13 69q80 -48 159 -48q70 0 99.5 35.5t29.5 76.5q0 52 -32.5 86.5t-74.5 47t-90 12.5h-42l-14 66h35q55 0 91.5 27.5t36.5 75.5q0 46 -29.5 76t-92.5 30q-78 0 -134 -52l-32 58q24 23 72 43.5t102 20.5q93 0 143.5 -48t50.5 -117q0 -45 -25.5 -79.5t-63.5 -51.5
v-2q81 -18 132 -67t51 -128q0 -77 -55.5 -128t-151.5 -51q-108 0 -178 48z" />
    <glyph glyph-name="four" unicode="4" horiz-adv-x="509" 
d="M94 179l-13 56l174 415h90l93 -405h87l15 -66h-86l41 -179h-79l-41 179h-281zM159 245h201l-50 218q-10 42 -21 105h-2q-9 -27 -34 -96l-95 -225z" />
    <glyph glyph-name="five" unicode="5" horiz-adv-x="509" 
d="M127 29l17 69q71 -39 145 -39q57 0 94.5 33t37.5 92q0 80 -57 120.5t-144 40.5q-64 0 -112 -13l-31 318h303l14 -74h-243l16 -169q30 5 66 5q83 0 143 -27q59 -27 93 -78t34 -121q0 -84 -58 -140.5t-158 -56.5q-95 0 -160 40z" />
    <glyph glyph-name="six" unicode="6" horiz-adv-x="509" 
d="M328 -11q-115 0 -181 94t-66 244q0 126 67 217.5t187 110.5q36 6 53 5l16 -69q-28 0 -60 -5q-95 -17 -141 -84.5t-46 -163.5q21 33 63.5 56.5t94.5 23.5q95 0 153 -63.5t58 -161.5q0 -89 -54.5 -146.5t-143.5 -57.5zM327 56q56 0 86.5 35t30.5 98q0 73 -39.5 118
t-103.5 45q-39 0 -73.5 -20t-54.5 -59q-6 -11 -5 -26q0 -23 9.5 -53.5t27.5 -62.5t50 -53.5t72 -21.5z" />
    <glyph glyph-name="seven" unicode="7" horiz-adv-x="509" 
d="M226 0l139 578h-313l-17 72h394l13 -57l-136 -593h-80z" />
    <glyph glyph-name="eight" unicode="8" horiz-adv-x="509" 
d="M100 183q0 94 114 151q-146 68 -146 179q0 63 50 105.5t122 42.5q97 0 150 -53t53 -121q0 -78 -87 -136q87 -39 128.5 -82t41.5 -115q0 -70 -56 -117.5t-137 -47.5q-108 0 -170.5 54t-62.5 140zM294 374q71 47 71 111q0 42 -32 77.5t-89 35.5q-46 0 -72.5 -25t-26.5 -59
q0 -49 37 -81.5t112 -58.5zM183 187q0 -57 42.5 -95t104.5 -38q52 0 83 28t31 71q0 57 -41 91.5t-125 64.5q-38 -18 -67 -50t-28 -72z" />
    <glyph glyph-name="nine" unicode="9" horiz-adv-x="509" 
d="M206 -10l-17 70q122 0 182 75q53 64 48 180q-23 -34 -64.5 -53t-89.5 -19q-98 0 -156 61t-58 156q0 83 55 142t139 59q118 0 186.5 -93t68.5 -260q0 -67 -19 -124t-46 -92q-75 -104 -229 -102zM281 310q44 0 79.5 21.5t45.5 51.5q3 9 2 20q-1 36 -15.5 77.5t-53.5 77.5
t-92 36q-47 0 -79.5 -33.5t-32.5 -94.5q0 -72 40 -114t106 -42z" />
    <glyph glyph-name="colon" unicode=":" horiz-adv-x="211" 
d="M143 342q-24 0 -39.5 17t-15.5 41q0 28 18 47.5t45 19.5q25 0 40.5 -16.5t15.5 -42.5q0 -27 -18.5 -46.5t-45.5 -19.5zM76 -11q-24 0 -39.5 16.5t-15.5 41.5q0 28 17.5 47.5t44.5 19.5q25 0 40.5 -16.5t15.5 -43.5t-18 -46t-45 -19z" />
    <glyph glyph-name="semicolon" unicode=";" horiz-adv-x="211" 
d="M20 -117l-63 -7q65 126 98 240l98 10q-26 -62 -66 -134.5t-67 -108.5zM148 342q-24 0 -39.5 17t-15.5 41q0 28 18 47.5t45 19.5q25 0 40.5 -16.5t15.5 -42.5q0 -28 -18 -47t-46 -19z" />
    <glyph glyph-name="less" unicode="&#x3c;" horiz-adv-x="596" 
d="M78 239v54l449 239v-68l-375 -197v-2l375 -197v-68z" />
    <glyph glyph-name="equal" unicode="=" horiz-adv-x="596" 
d="M556 339h-500v58h500v-58zM556 141h-500v59h500v-59z" />
    <glyph glyph-name="greater" unicode="&#x3e;" horiz-adv-x="596" 
d="M541 294v-56l-449 -238v68l379 197v2l-379 197v68z" />
    <glyph glyph-name="question" unicode="?" horiz-adv-x="384" 
d="M207 192h-80q2 18 2 26q8 88 98 182q33 36 44.5 49.5t27 42t15.5 54.5q0 30 -18 49.5t-59 20.5q-55 0 -99 -28l-16 61q64 37 137 37q68 0 104.5 -37t36.5 -88q0 -54 -27 -98t-82 -100q-70 -70 -80 -144q-2 -18 -4 -27zM136 -11q-24 0 -39.5 16.5t-15.5 41.5q0 28 18 47.5
t45 19.5q25 0 40.5 -17t15.5 -43q0 -27 -18.5 -46t-45.5 -19z" />
    <glyph glyph-name="at" unicode="@" horiz-adv-x="720" 
d="M477 258l-20 106q-22 11 -56 11q-48 0 -76 -29t-28 -84q0 -54 26.5 -98.5t78.5 -44.5q44 0 64.5 42.5t10.5 96.5zM606 -18l19 -43q-69 -44 -177 -44q-169 0 -271.5 109t-102.5 276q0 132 80 222.5t217 90.5q155 0 256.5 -102t101.5 -250q0 -77 -31.5 -126.5t-85.5 -49.5
q-80 0 -103 91h-1q-10 -39 -40 -65t-73 -26q-76 0 -119.5 58.5t-43.5 134.5q0 72 44 121t120 49q64 0 114 -24l35 -178q10 -58 25.5 -84t41.5 -27q28 -1 45.5 30.5t17.5 91.5q0 128 -82.5 218.5t-219.5 90.5q-107 0 -176 -74t-68 -190q2 -145 87.5 -241.5t232.5 -96.5
q39 0 85 11t72 27z" />
    <glyph glyph-name="A" unicode="A" horiz-adv-x="568" 
d="M400 213h-232l-107 -213h-88l349 674h98l93 -674h-85zM198 279h196l-26 195q-1 14 -5.5 58t-6.5 66h-2q-42 -96 -56 -123z" />
    <glyph glyph-name="B" unicode="B" horiz-adv-x="518" 
d="M32 5l125 660q67 13 145 13q103 0 155 -46q48 -39 48 -105q0 -61 -42 -106.5t-103 -61.5v-2q49 -14 80 -53t31 -97q0 -95 -81 -156q-74 -56 -218 -56q-87 0 -140 10zM229 607l-42 -219h62q74 0 122.5 36t48.5 96q0 93 -122 93q-43 0 -69 -6zM174 325l-49 -258
q35 -5 69 -5q81 0 135.5 36.5t54.5 112.5q0 56 -40.5 85t-101.5 29h-68z" />
    <glyph glyph-name="C" unicode="C" horiz-adv-x="555" 
d="M486 89l11 -67q-74 -33 -175 -33q-127 0 -200.5 75.5t-73.5 204.5q0 96 38 182t107 143q105 90 253 90q52 0 91.5 -10t55.5 -22l-27 -67q-47 28 -133 28q-112 0 -193 -76q-48 -45 -75.5 -112.5t-27.5 -143.5q0 -99 49.5 -159.5t155.5 -60.5q86 0 144 28z" />
    <glyph glyph-name="D" unicode="D" horiz-adv-x="647" 
d="M32 5l125 660q75 13 168 13q170 0 248 -89q63 -67 63 -183q0 -93 -35.5 -177.5t-99.5 -138.5q-111 -95 -305 -95q-91 0 -164 10zM230 604l-103 -535q39 -5 87 -5q155 0 242 90q92 95 92 249q0 208 -227 208q-59 0 -91 -7z" />
    <glyph glyph-name="E" unicode="E" horiz-adv-x="470" 
d="M432 387l-13 -70h-245l-47 -246h276l-13 -71h-359l128 674h343l-13 -71h-260l-42 -216h245z" />
    <glyph glyph-name="F" unicode="F" horiz-adv-x="465" 
d="M31 0l128 674h342l-13 -71h-259l-44 -227h239l-14 -71h-239l-57 -305h-83z" />
    <glyph glyph-name="G" unicode="G" horiz-adv-x="623" 
d="M588 352l-61 -323q-88 -36 -190 -36q-145 0 -220 84q-68 73 -68 197q0 86 34 168t97 139q116 100 278 100q105 0 159 -31l-28 -70q-55 29 -142 29q-120 0 -208 -82q-47 -44 -74 -111t-27 -136q0 -101 53 -158.5t162 -57.5q61 0 102 19l39 201h-137l13 68h218z" />
    <glyph glyph-name="H" unicode="H" horiz-adv-x="627" 
d="M159 674h83l-54 -285h310l54 285h83l-128 -674h-83l60 316h-311l-59 -316h-83z" />
    <glyph glyph-name="I" unicode="I" horiz-adv-x="233" 
d="M158 674h83l-128 -674h-83z" />
    <glyph glyph-name="J" unicode="J" horiz-adv-x="364" 
d="M209 219l87 455h83l-88 -464q-22 -117 -74.5 -169t-147.5 -52q-64 0 -100 17l18 71q34 -14 85 -14q56 0 88.5 35t48.5 121z" />
    <glyph glyph-name="K" unicode="K" horiz-adv-x="515" 
d="M31 0l128 674h82l-62 -328h5q1 1 66 76l237 252h104l-284 -290l173 -384h-90l-148 331l-80 -75l-49 -256h-82z" />
    <glyph glyph-name="L" unicode="L" horiz-adv-x="442" 
d="M31 0l128 674h83l-115 -602h272l-13 -72h-355z" />
    <glyph glyph-name="M" unicode="M" horiz-adv-x="779" 
d="M676 0h-80l48 364q18 132 36 228h-3q-64 -141 -105 -217l-201 -371h-63l-50 363q-13 102 -22 225h-2q-2 -11 -22 -101t-29 -128l-92 -363h-78l175 674h106l53 -387q14 -112 16 -169h4q26 67 78 167l208 389h109z" />
    <glyph glyph-name="N" unicode="N" horiz-adv-x="632" 
d="M109 0h-78l128 674h91l154 -382q33 -84 60 -188l2 1q4 75 28 211l68 358h79l-129 -674h-82l-154 381q-42 110 -62 195l-3 -2q-9 -83 -35 -221z" />
    <glyph glyph-name="O" unicode="O" horiz-adv-x="668" 
d="M402 685q128 0 191.5 -79t63.5 -197q0 -90 -32 -179t-90 -147q-96 -94 -231 -94q-124 0 -190 79t-66 195q0 91 34 181t94 149q94 92 226 92zM392 615q-86 0 -155 -67q-47 -48 -74.5 -126.5t-27.5 -151.5q0 -91 44 -151t137 -60q88 0 154 68q46 46 73 125t27 153
q0 40 -7.5 73.5t-26 66t-55.5 51.5t-89 19z" />
    <glyph glyph-name="P" unicode="P" horiz-adv-x="507" 
d="M31 0l127 664q59 14 143 14q114 0 169 -52q47 -45 47 -121q0 -53 -22 -100t-59 -77q-76 -63 -208 -63q-38 0 -64 5l-51 -270h-82zM227 604l-50 -264q28 -6 63 -6q94 0 144 47.5t50 117.5q0 112 -138 112q-39 0 -69 -7z" />
    <glyph glyph-name="Q" unicode="Q" horiz-adv-x="668" 
d="M588 -25l-30 -70q-170 42 -235 71q-36 14 -46 14q-99 5 -164 78.5t-65 195.5q0 88 33 177t91 148q45 45 106 70.5t125 25.5q66 0 116.5 -23t79.5 -63t43.5 -88t14.5 -102q0 -86 -31.5 -174.5t-87.5 -144.5q-57 -59 -128 -78v-3q111 -24 178 -34zM392 615q-87 0 -153 -66
q-48 -48 -76 -128t-28 -153q0 -90 43 -150t134 -60q88 0 156 66q47 47 74.5 128t27.5 155q0 37 -7.5 70t-25.5 66t-55 52.5t-90 19.5z" />
    <glyph glyph-name="R" unicode="R" horiz-adv-x="522" 
d="M31 0l126 664q65 14 148 14q108 0 161 -49q49 -41 49 -111q0 -71 -46 -123.5t-114 -71.5v-2q65 -22 75 -135q12 -158 20 -186h-85q-7 25 -16 163q-4 69 -29.5 100t-76.5 31h-74l-55 -294h-83zM229 605l-47 -247h74q77 0 125 43.5t48 105.5q0 52 -35.5 78.5t-94.5 26.5
q-42 0 -70 -7z" />
    <glyph glyph-name="S" unicode="S" horiz-adv-x="465" 
d="M12 36l29 68q64 -43 144 -43q60 0 103 34t43 92q0 72 -99 127q-134 72 -134 172q0 89 65.5 143.5t161.5 54.5q87 0 139 -35l-30 -67q-56 32 -117 32q-60 0 -96.5 -33.5t-36.5 -77.5q0 -39 24.5 -66.5t79.5 -58.5q65 -35 97 -77.5t32 -102.5q0 -90 -66 -149.5t-177 -59.5
q-49 1 -94.5 14.5t-67.5 32.5z" />
    <glyph glyph-name="T" unicode="T" horiz-adv-x="474" 
d="M148 0l114 602h-197l15 72h477l-15 -72h-197l-114 -602h-83z" />
    <glyph glyph-name="U" unicode="U" horiz-adv-x="620" 
d="M158 674h83l-76 -400q-8 -43 -8 -84q0 -63 33.5 -96.5t91.5 -33.5q149 0 188 213l77 401h83l-77 -403q-55 -282 -282 -282q-88 -1 -142.5 49t-54.5 150q0 45 9 93z" />
    <glyph glyph-name="V" unicode="V" horiz-adv-x="539" 
d="M258 0h-92l-83 674h85l49 -432q12 -102 13 -152h2q34 85 74 162l215 422h92z" />
    <glyph glyph-name="W" unicode="W" horiz-adv-x="829" 
d="M219 0h-89l-33 674h84l14 -404q2 -71 0 -175h2q34 91 70 170l186 409h89l14 -389q4 -119 1 -189h2q37 104 67 173l181 405h87l-313 -674h-88l-17 383q-5 92 2 195h-2q-52 -142 -69 -178z" />
    <glyph glyph-name="X" unicode="X" horiz-adv-x="521" 
d="M466 0h-88l-64 167q-26 62 -43 118h-3q-49 -75 -78 -116l-121 -169h-100l264 343l-126 331h87l64 -173q29 -84 34 -103h3q33 53 68 103l129 173h99l-261 -330z" />
    <glyph glyph-name="Y" unicode="Y" horiz-adv-x="516" 
d="M243 0h-82l53 280l-130 394h88l66 -218q20 -69 28 -113h2q19 33 72 116l146 215h97l-287 -394z" />
    <glyph glyph-name="Z" unicode="Z" horiz-adv-x="523" 
d="M-20 0l10 51l457 548l-1 4h-320l14 71h432l-11 -54l-453 -546v-3h355l-14 -71h-469z" />
    <glyph glyph-name="bracketleft" unicode="[" horiz-adv-x="312" 
d="M7 686h175l13 -54h-107l164 -690h107l13 -53h-175z" />
    <glyph glyph-name="backslash" unicode="\" horiz-adv-x="329" 
d="M309 -40h-65l-183 725h64z" />
    <glyph glyph-name="bracketright" unicode="]" horiz-adv-x="312" 
d="M377 -111h-175l-13 53h107l-164 690h-107l-13 54h175z" />
    <glyph glyph-name="asciicircum" unicode="^" horiz-adv-x="596" 
d="M534 189h-68l-163 388h-3l-163 -388h-67l201 461h61z" />
    <glyph glyph-name="underscore" unicode="_" horiz-adv-x="500" 
d="M-59 -75h500l-10 -50h-500z" />
    <glyph glyph-name="grave" unicode="`" horiz-adv-x="383" 
d="M144 686h94l66 -143h-59z" />
    <glyph glyph-name="a" unicode="a" horiz-adv-x="522" 
d="M426 0h-77q-1 26 11 125h-3q-71 -136 -186 -136q-65 0 -102.5 44t-37.5 116q0 64 23 125t65 110.5t106.5 80t140.5 30.5q71 0 130 -19l-49 -252q-25 -129 -21 -224zM374 276l29 146q-21 7 -58 7q-92 0 -160 -81.5t-68 -184.5q0 -106 83 -106q54 0 105 62.5t69 156.5z" />
    <glyph glyph-name="b" unicode="b" horiz-adv-x="525" 
d="M158 710h83l-64 -314h2q67 99 171 99q74 0 110 -51t36 -123q0 -78 -33.5 -152t-104.5 -127t-163 -53q-68 0 -108.5 30.5t-40.5 94.5q0 29 8 75zM148 238l-12 -51q-6 -34 -6 -61q2 -72 79 -72q87 0 144 83t57 173q0 50 -22.5 83t-69.5 33q-55 0 -104 -52t-66 -136z" />
    <glyph glyph-name="c" unicode="c" horiz-adv-x="423" 
d="M353 85l8 -66q-63 -30 -140 -30q-90 0 -138.5 53t-48.5 134q0 128 85 223t212 95q62 0 101 -21l-24 -67q-36 19 -83 19q-89 0 -147 -73.5t-58 -164.5q0 -60 31.5 -94.5t89.5 -34.5q56 0 112 27z" />
    <glyph glyph-name="d" unicode="d" horiz-adv-x="525" 
d="M460 710h82l-105 -556q-17 -84 -21 -154h-76l13 96h-2q-68 -107 -174 -107q-68 0 -106.5 49t-38.5 127q0 132 87 231t213 99q49 0 85 -17zM371 238l33 170q-32 21 -80 21q-85 0 -145.5 -77t-60.5 -176q0 -51 21 -85t70 -34q50 0 98.5 51.5t63.5 129.5z" />
    <glyph glyph-name="e" unicode="e" horiz-adv-x="452" 
d="M365 89l12 -62q-70 -38 -160 -38q-91 0 -137.5 54.5t-46.5 140.5q0 116 76.5 213.5t187.5 97.5q67 0 104.5 -35t37.5 -90q0 -162 -322 -157q-3 -15 -0.5 -44t10.5 -47q28 -65 108 -65q70 0 130 32zM359 369q0 29 -20.5 45t-53.5 16q-55 0 -99 -45.5t-59 -106.5
q232 -4 232 91z" />
    <glyph glyph-name="f" unicode="f" horiz-adv-x="283" 
d="M122 0h-82l79 418h-64l12 66h65l5 25q19 116 79 169q46 43 114 43q45 0 67 -13l-18 -66q-20 9 -49 9q-87 0 -112 -144l-4 -23h108l-13 -66h-108z" />
    <glyph glyph-name="g" unicode="g" horiz-adv-x="524" 
d="M10 -175l23 65q49 -32 128 -32q66 0 109.5 39.5t64.5 133.5l16 72h-3q-63 -103 -168 -103q-69 0 -108 49.5t-40 118.5q0 130 86.5 228.5t221.5 98.5q79 0 155 -34l-74 -400q-29 -158 -98 -216q-62 -54 -169 -54q-97 0 -144 34zM373 250l32 161q-30 17 -81 17
q-87 0 -146 -76.5t-59 -170.5q0 -48 21 -81.5t72 -33.5q52 0 100 56t61 128z" />
    <glyph glyph-name="h" unicode="h" horiz-adv-x="534" 
d="M111 0h-83l135 710h83l-60 -312h2q67 97 173 97q47 0 83.5 -32t36.5 -98q0 -42 -8 -82l-54 -283h-82l52 279q7 42 7 67q0 79 -75 79q-51 0 -101 -52.5t-64 -130.5z" />
    <glyph glyph-name="i" unicode="i" horiz-adv-x="228" 
d="M111 0h-83l93 484h83zM184 566q-22 0 -35.5 15t-12.5 38q0 23 16 39.5t38 16.5t36 -14.5t14 -37.5q-1 -25 -17 -41t-39 -16z" />
    <glyph glyph-name="j" unicode="j" horiz-adv-x="227" 
d="M125 484h83l-92 -483q-22 -119 -61 -163q-42 -47 -112 -47q-35 0 -54 6l10 65q16 -4 38 -4q34 0 57 27.5t37 98.5zM184 566q-22 0 -35 15t-12 38q0 23 16 39.5t38 16.5t35.5 -14.5t13.5 -37.5q0 -25 -16 -41t-40 -16z" />
    <glyph glyph-name="k" unicode="k" horiz-adv-x="455" 
d="M111 0h-83l135 710h83l-85 -445h2q8 9 24 26t21 23l171 170h102l-211 -199l144 -285h-90l-118 239l-60 -55z" />
    <glyph glyph-name="l" unicode="l" horiz-adv-x="229" 
d="M111 0h-82l135 710h83z" />
    <glyph glyph-name="m" unicode="m" horiz-adv-x="807" 
d="M109 0h-81l64 343q14 68 23 141h73l-13 -91h2q70 102 171 102q52 0 81 -30t32 -78q64 105 178 108q47 0 82 -32t35 -95q0 -38 -8 -83l-54 -285h-81l52 278q7 44 7 64q0 84 -73 84q-47 0 -92 -50t-59 -128l-47 -248h-80l53 284q7 37 7 59q0 83 -72 83q-46 0 -93.5 -54
t-61.5 -129z" />
    <glyph glyph-name="n" unicode="n" horiz-adv-x="534" 
d="M111 0h-83l65 343q8 39 23 141h74l-12 -96h2q68 107 179 107q51 0 87 -32.5t36 -102.5q0 -31 -9 -78l-54 -282h-82l52 280q7 42 7 61q0 84 -76 84q-48 0 -99 -52.5t-67 -137.5z" />
    <glyph glyph-name="o" unicode="o" horiz-adv-x="523" 
d="M303 495q92 0 141 -59t49 -143q0 -118 -76.5 -211t-193.5 -93q-88 0 -138 56.5t-50 141.5q0 124 76.5 216t191.5 92zM294 429q-74 0 -124 -75t-49 -163q0 -60 31 -98.5t83 -38.5q71 0 121.5 75.5t50.5 163.5q0 52 -27 94t-86 42z" />
    <glyph glyph-name="p" unicode="p" horiz-adv-x="525" 
d="M67 -198h-83l98 510q14 72 26 173h76l-13 -92h2q33 48 78.5 75t95.5 27q73 0 111 -51t38 -124q0 -131 -82.5 -231t-200.5 -100q-65 0 -105 21h-2zM145 216l-24 -135q33 -27 92 -27q78 0 137 81t59 179q0 45 -22 78.5t-70 33.5q-53 0 -103.5 -56.5t-68.5 -153.5z" />
    <glyph glyph-name="q" unicode="q" horiz-adv-x="525" 
d="M370 -198h-82l58 286h-2q-30 -47 -75.5 -73t-92.5 -26q-64 0 -104 46.5t-40 129.5q0 82 37 156.5t109 124t162 49.5q87 0 155 -33zM372 244l31 167q-28 17 -80 17q-82 0 -143.5 -76.5t-61.5 -177.5q0 -55 23 -86t61 -31q58 0 106.5 55.5t63.5 131.5z" />
    <glyph glyph-name="r" unicode="r" horiz-adv-x="319" 
d="M111 0h-83l59 311q14 76 25 173h73q-8 -68 -13 -105h2q56 116 149 116q11 0 23 -2l-16 -82q-12 2 -23 2q-53 0 -96.5 -57t-59.5 -143z" />
    <glyph glyph-name="s" unicode="s" horiz-adv-x="372" 
d="M8 22l24 62q49 -30 104 -30q42 0 67 23t25 56q0 28 -15 48t-52 41q-87 48 -87 124q0 64 49.5 106.5t125.5 42.5q65 0 101 -24l-24 -63q-35 22 -83 22q-38 0 -62.5 -21t-24.5 -52q0 -44 67 -81q91 -52 91 -127q0 -74 -53 -117t-132 -43q-76 1 -121 33z" />
    <glyph glyph-name="t" unicode="t" horiz-adv-x="313" 
d="M159 593l86 21l-25 -130h115l-13 -65h-115l-45 -235q-9 -50 -9 -78q0 -46 46 -46q28 0 39 3l-5 -65q-21 -9 -64 -9q-51 0 -76 27t-25 67q0 41 10 91l48 245h-70l13 65h69z" />
    <glyph glyph-name="u" unicode="u" horiz-adv-x="526" 
d="M417 484h83l-65 -344q-11 -55 -22 -140h-75l13 91h-2q-32 -48 -77.5 -75t-93.5 -27q-54 0 -90.5 32t-36.5 108q0 40 9 81l52 274h83l-51 -270q-9 -41 -9 -71q0 -84 77 -84q48 0 96 50t62 127z" />
    <glyph glyph-name="v" unicode="v" horiz-adv-x="454" 
d="M51 484h85l42 -276q15 -116 15 -119h3q18 48 51 113l148 282h91l-270 -484h-81z" />
    <glyph glyph-name="w" unicode="w" horiz-adv-x="707" 
d="M61 484h82l17 -273q4 -69 2 -130h2q19 50 54 122l143 281h73l30 -276q9 -95 8 -127h2q18 55 46 123l130 280h85l-239 -484h-77l-32 263q-7 63 -7 128h-2q-48 -110 -56 -126l-139 -265h-77z" />
    <glyph glyph-name="x" unicode="x" horiz-adv-x="440" 
d="M62 484h90l48 -106q6 -14 16.5 -40t15.5 -38h3q25 37 53 74l89 110h96l-204 -236l114 -248h-90l-48 109q-15 32 -36 86h-2q-1 -2 -19 -29.5t-31 -44.5l-98 -121h-96l212 249z" />
    <glyph glyph-name="y" unicode="y" horiz-adv-x="441" 
d="M47 484h87l47 -261q18 -93 23 -127h2q2 5 19.5 46t31.5 73l124 269h88l-181 -368q-88 -177 -167 -255q-67 -67 -141 -83l-20 71q51 17 89 47q58 45 93 111q5 9 3 22z" />
    <glyph glyph-name="z" unicode="z" horiz-adv-x="415" 
d="M-21 0l9 51l235 261q32 35 100 101l1 3h-248l13 68h348l-11 -55l-232 -258q-46 -52 -100 -100v-4h268l-13 -67h-370z" />
    <glyph glyph-name="braceleft" unicode="{" horiz-adv-x="312" 
d="M66 262l-12 50q28 0 43 11t17.5 21t2.5 24q-2 21 -31 99q-30 70 -32 118q-2 46 27.5 73.5t85.5 27.5h15l14 -54h-18q-57 -1 -57 -53q1 -39 31 -109q27 -71 29 -107q3 -55 -48 -73v-1q81 -17 97 -110q4 -24 10.5 -76t11.5 -77q8 -45 32.5 -64t69.5 -19h8l14 -54h-13
q-77 0 -119.5 27.5t-55.5 103.5q-3 18 -10.5 76t-14.5 89q-8 37 -29 57.5t-68 19.5z" />
    <glyph glyph-name="bar" unicode="|" horiz-adv-x="216" 
d="M95 750h62v-1000h-62v1000z" />
    <glyph glyph-name="braceright" unicode="}" horiz-adv-x="312" 
d="M312 313l12 -50q-28 0 -43 -11t-17.5 -21.5t-2.5 -24.5q1 -19 31 -99q30 -70 32 -118q2 -46 -28 -73t-86 -27h-14l-14 54h18q57 0 57 53q-1 40 -31 108q-28 76 -29 107q-3 56 48 74l-1 1q-81 17 -96 110q-4 25 -10.5 76.5t-11.5 76.5q-8 45 -32.5 64t-69.5 19h-9l-13 54
h13q77 0 119 -27.5t56 -103.5q3 -17 10.5 -75.5t14.5 -90.5q8 -37 29 -57t68 -19z" />
    <glyph glyph-name="asciitilde" unicode="~" horiz-adv-x="596" 
d="M123 212h-60q-2 70 31.5 108.5t86.5 38.5q51 0 134 -42q83 -43 123 -43q54 0 54 83h60q3 -77 -29.5 -112.5t-85.5 -35.5q-59 0 -140 44q-82 41 -118 41q-24 0 -39.5 -22t-16.5 -60z" />
    <glyph glyph-name="uni00A0" unicode="&#xa0;" horiz-adv-x="182" 
 />
    <glyph glyph-name="exclamdown" unicode="&#xa1;" horiz-adv-x="236" 
d="M83 -195h-94l105 477h67zM159 488q24 0 39.5 -17t15.5 -41q0 -28 -18 -47.5t-45 -19.5q-25 0 -40.5 16.5t-15.5 42.5q0 27 18.5 46.5t45.5 19.5z" />
    <glyph glyph-name="cent" unicode="&#xa2;" horiz-adv-x="509" 
d="M192 154q-95 84 -95 217q-2 76 39 131.5t112 69.5l-23 101h62l24 -98q72 0 127 -32l-10 -68q-59 32 -118 32t-92 -39t-34 -98q0 -86 57 -151t145 -65q57 0 109 27l26 -60q-44 -29 -99 -32l24 -103h-63l-23 101q-102 11 -168 67z" />
    <glyph glyph-name="sterling" unicode="&#xa3;" horiz-adv-x="509" 
d="M159 0l-11 49q77 48 77 130q0 44 -25 115h-102l-14 64h92q-43 104 -42 165q2 63 43 100.5t109 37.5q69 0 115 -25l-6 -69q-45 25 -95 25q-82 0 -84 -80q0 -57 43 -154h144l14 -64h-136q19 -60 19 -109q0 -63 -42 -112h300l17 -73h-416z" />
    <glyph glyph-name="currency" unicode="&#xa4;" horiz-adv-x="509" 
d="M103 94l-43 44l71 71q-37 48 -37 122q0 70 38 122l-74 69l44 46l68 -74q46 40 115 40q72 0 115 -40l72 74l44 -45l-78 -71q35 -50 35 -117q0 -76 -35 -124l74 -73l-43 -44l-69 76q-45 -42 -117 -42q-71 0 -113 40zM283 191q48 0 83.5 35.5t35.5 107.5q0 55 -32 96t-87 41
q-54 0 -86 -39t-32 -99q0 -67 37 -104.5t81 -37.5z" />
    <glyph glyph-name="yen" unicode="&#xa5;" horiz-adv-x="509" 
d="M130 175l-11 50h152l-17 72h-151l-12 50h127l-235 303h99l142 -200q14 -20 35 -53.5t27 -43.5h3q6 29 22 97l60 200h86l-106 -303h127l11 -50h-153l17 -72h153l12 -50h-153l40 -175h-82l-40 175h-153z" />
    <glyph glyph-name="brokenbar" unicode="&#xa6;" horiz-adv-x="216" 
d="M95 174h62v-350h-62v350zM95 674h62v-350h-62v350z" />
    <glyph glyph-name="section" unicode="&#xa7;" horiz-adv-x="519" 
d="M286 256q92 -30 126 -49q26 24 24 64q0 69 -108 106q-11 4 -42.5 15t-53.5 19.5t-39 17.5q-33 -27 -33 -65q0 -22 10.5 -39t32 -30.5t38.5 -21t45 -17.5zM185 -18l13 61q69 -47 147 -47q43 0 69.5 19t25.5 54q0 19 -10.5 35.5t-21.5 26.5t-36 21.5t-36 15.5t-40 14
q-33 11 -52.5 18t-52 23.5t-51.5 33.5t-33.5 43t-14.5 57q0 56 55 100q-54 40 -54 99q0 57 46.5 92t118.5 35q80 0 141 -33l-13 -60q-58 35 -124 35q-41 0 -67.5 -18.5t-26.5 -47.5q0 -51 76 -82q16 -6 69 -23q40 -12 67.5 -24t59.5 -32.5t49 -51.5t17 -71q-1 -58 -46 -99
q56 -44 56 -104q1 -62 -46 -98t-119 -36q-96 0 -166 44z" />
    <glyph glyph-name="dieresis" unicode="&#xa8;" horiz-adv-x="383" 
d="M171 570q-20 0 -33.5 14t-13.5 35q0 22 15.5 37.5t37.5 15.5q21 0 34 -14t13 -35q0 -23 -14.5 -38t-38.5 -15zM354 570q-20 0 -33 14t-13 35q0 22 15 37.5t37 15.5q21 0 33.5 -14t12.5 -35q0 -23 -14.5 -38t-37.5 -15z" />
    <glyph glyph-name="copyright" unicode="&#xa9;" horiz-adv-x="703" 
d="M521 493l-12 -40q-39 24 -98 24q-67 0 -102.5 -38.5t-35.5 -101.5q0 -61 36.5 -101t102.5 -40q62 0 103 27l12 -38q-47 -32 -124 -32q-85 0 -134 51t-49 130q0 83 56.5 134.5t134.5 51.5q36 0 67.5 -8.5t42.5 -18.5zM387 648q127 0 214 -90t87 -218q0 -130 -87 -220
t-214 -90t-215.5 90.5t-88.5 219.5q0 128 88.5 218t215.5 90zM387 606q-108 0 -181 -77.5t-73 -191.5q0 -112 73 -189t181 -77q106 0 178.5 77.5t72.5 191.5q0 112 -72.5 189t-178.5 77z" />
    <glyph glyph-name="ordfeminine" unicode="&#xaa;" horiz-adv-x="350" 
d="M325 267h-59q0 33 4 64l-2 -1q-43 -69 -115 -69q-43 0 -68.5 31.5t-25.5 83.5q0 87 56.5 151t155.5 64q58 0 98 -17l-36 -206q-8 -51 -8 -101zM280 422l20 112q-17 7 -46 7q-53 0 -91 -45t-39 -109q0 -74 55 -74q33 0 63 32.5t38 76.5z" />
    <glyph glyph-name="guillemotleft" unicode="&#xab;" horiz-adv-x="466" 
d="M409 436l-87 -180l172 -188h-75l-163 184l87 184h66zM245 436l-86 -180l172 -188h-75l-164 184l88 184h65z" />
    <glyph glyph-name="logicalnot" unicode="&#xac;" horiz-adv-x="596" 
d="M40 398h516v-278h-63v220h-453v58z" />
    <glyph glyph-name="uni00AD" unicode="&#xad;" horiz-adv-x="327" 
d="M328 238h-239l-16 65h239z" />
    <glyph glyph-name="registered" unicode="&#xae;" horiz-adv-x="395" 
d="M150 499v-66h-39v164q25 5 63 5t57 -12q17 -12 17 -36q0 -27 -34 -38v-2q22 -7 29 -41q6 -27 12 -40h-40q-6 7 -13 40q-6 26 -34 26h-18zM150 573v-47h19q37 0 37 24q0 25 -35 25q-11 0 -21 -2zM176 683q70 0 118.5 -48t48.5 -116q0 -70 -48 -117.5t-119 -47.5t-120 47.5
t-49 117.5q0 68 49.5 116t119.5 48zM176 649q-54 0 -90.5 -38t-36.5 -92q0 -55 36.5 -93t90.5 -38q53 -1 89 37t36 93t-35.5 93t-89.5 38z" />
    <glyph glyph-name="macron" unicode="&#xaf;" horiz-adv-x="383" 
d="M162 644h220l-10 -58h-221z" />
    <glyph glyph-name="degree" unicode="&#xb0;" horiz-adv-x="317" 
d="M170 398q-58 0 -95.5 38.5t-37.5 94.5t37 93.5t93 37.5q61 0 98 -38.5t37 -91.5q0 -61 -39 -97.5t-93 -36.5zM170 445q35 0 56.5 23t21.5 62q0 34 -20.5 59.5t-60.5 25.5q-37 0 -56.5 -23.5t-19.5 -60.5q0 -35 23 -60.5t56 -25.5z" />
    <glyph glyph-name="plusminus" unicode="&#xb1;" horiz-adv-x="596" 
d="M266 572h64v-195h226v-60h-226v-200h-64v200h-226v60h226v195zM40 59h516v-59h-516v59z" />
    <glyph glyph-name="twosuperior" unicode="&#xb2;" horiz-adv-x="317" 
d="M69 263l-9 37l54 59q87 97 88 157q1 39 -20.5 61.5t-59.5 22.5q-52 0 -92 -35l-25 49q52 44 125 44q61 0 99.5 -35t38.5 -99q0 -44 -22 -83.5t-68 -92.5l-26 -29h171l14 -56h-268z" />
    <glyph glyph-name="threesuperior" unicode="&#xb3;" horiz-adv-x="304" 
d="M56 292l10 50q53 -30 101 -30q39 0 56 17.5t17 43.5q0 41 -35.5 59t-85.5 18h-27l-11 46h26q82 0 82 57q-1 26 -17.5 41.5t-48.5 15.5q-51 0 -86 -32l-26 46q52 37 119 37q59 0 93.5 -28t34.5 -72q0 -25 -16 -46t-41 -32q51 -11 82 -40t31 -73q1 -45 -36 -77t-101 -32
q-75 0 -121 31z" />
    <glyph glyph-name="acute" unicode="&#xb4;" horiz-adv-x="383" 
d="M300 686h100l-133 -143h-65z" />
    <glyph glyph-name="uni00B5" unicode="&#xb5;" horiz-adv-x="525" 
d="M195 484l-53 -287q-12 -65 7.5 -102t73.5 -37q35 0 68.5 30.5t55.5 72.5q15 31 21 59l50 264h83l-65 -344q-8 -47 -1.5 -64.5t29.5 -19.5l-18 -63q-13 -4 -27 -4q-68 0 -64 100h-2q-57 -98 -146 -98q-73 0 -98 58l-12 -65q-24 -128 -20 -182h-76q-8 46 17 179l95 503h82z
" />
    <glyph glyph-name="paragraph" unicode="&#xb6;" horiz-adv-x="532" 
d="M364 -49l-73 313h-8q-97 0 -168.5 64t-71.5 164q0 34 12.5 65t38.5 58.5t74.5 44t112.5 16.5q65 0 112 -9l166 -716h-62l-153 663q-42 5 -71 1l153 -664h-62z" />
    <glyph glyph-name="periodcentered" unicode="&#xb7;" horiz-adv-x="211" 
d="M156 190q-32 0 -53.5 22t-21.5 56q0 27 17.5 45t45.5 18q32 0 53.5 -21.5t21.5 -53.5q0 -29 -17.5 -47.5t-45.5 -18.5z" />
    <glyph glyph-name="cedilla" unicode="&#xb8;" horiz-adv-x="383" 
d="M132 2h53l-38 -53q24 -5 39 -22.5t15 -41.5q0 -40 -32.5 -63t-77.5 -23q-43 0 -65 17l18 43q23 -14 52 -14q18 0 31 9.5t13 26.5q0 31 -66 39z" />
    <glyph glyph-name="onesuperior" unicode="&#xb9;" horiz-adv-x="244" 
d="M156 266l-76 329h-2l-61 -36l-22 52l80 45h57l90 -390h-66z" />
    <glyph glyph-name="ordmasculine" unicode="&#xba;" horiz-adv-x="344" 
d="M230 591q66 0 101.5 -38.5t35.5 -96.5q0 -83 -52 -139t-129 -56q-62 0 -98 39.5t-36 93.5q0 84 52.5 140.5t125.5 56.5zM224 542q-44 0 -74.5 -44t-30.5 -102q0 -40 20.5 -63t52.5 -23q43 0 75 43t32 106q0 83 -75 83z" />
    <glyph glyph-name="guillemotright" unicode="&#xbb;" horiz-adv-x="466" 
d="M141 68l86 180l-171 188h74l164 -184l-88 -184h-65zM304 68l87 180l-173 188h75l164 -184l-88 -184h-65z" />
    <glyph glyph-name="onequarter" unicode="&#xbc;" horiz-adv-x="759" 
d="M161 266l-76 329h-2l-61 -36l-22 52l80 45h57l90 -390h-66zM479 102l-9 41l119 247h72l54 -238h56l12 -50h-56l24 -102h-63l-24 102h-185zM533 152h119l-26 116q-9 48 -12 66q-4 -11 -13 -32.5t-13 -31.5l-56 -116zM232 -11l224 672h57l-225 -672h-56z" />
    <glyph glyph-name="onehalf" unicode="&#xbd;" horiz-adv-x="759" 
d="M540 0l-9 37l54 59q87 95 88 157q1 39 -20.5 61.5t-60.5 22.5q-48 0 -91 -35l-25 48q51 45 124 45q62 0 100.5 -35t38.5 -99q0 -43 -22.5 -83.5t-68.5 -92.5l-25 -30h171l14 -55h-268zM157 266l-76 329h-1l-61 -36l-23 52l80 45h58l90 -390h-67zM227 -11l225 672h56
l-224 -672h-57z" />
    <glyph glyph-name="threequarters" unicode="&#xbe;" horiz-adv-x="794" 
d="M95 292l10 50q50 -30 101 -30q39 0 56 17.5t17 43.5q0 41 -35.5 59t-86.5 18h-26l-11 46h26q37 0 59.5 14t21.5 43q0 25 -16.5 41t-48.5 16q-51 0 -86 -32l-26 46q52 37 119 37q59 0 93 -28t34 -72q0 -25 -15.5 -46t-41.5 -32q51 -11 82 -40t31 -73q2 -45 -35 -77
t-101 -32q-74 0 -121 31zM531 102l-9 41l119 247h72l55 -238h55l12 -50h-56l24 -102h-63l-24 102h-185zM586 152h119l-26 116q-8 32 -13 66q-22 -55 -26 -64l-55 -116zM315 -11l225 672h56l-224 -672h-57z" />
    <glyph glyph-name="questiondown" unicode="&#xbf;" horiz-adv-x="384" 
d="M191 285h80q0 -8 -2 -26q-6 -85 -99 -182q-41 -42 -63 -76t-22 -70q0 -30 18 -49.5t58 -20.5q57 0 100 27l16 -62q-67 -35 -135 -35q-70 0 -106.5 39t-36.5 91q0 84 107 193q72 72 80 143zM261 488q24 0 39 -16.5t15 -41.5q0 -28 -17.5 -47.5t-44.5 -19.5
q-25 0 -40.5 16.5t-15.5 42.5q0 28 18 47t46 19z" />
    <glyph glyph-name="Agrave" unicode="&#xc0;" horiz-adv-x="568" 
d="M400 213h-232l-107 -213h-88l349 674h98l93 -674h-85zM198 279h196l-26 195q-1 14 -5.5 58t-6.5 66h-2q-42 -96 -56 -123zM233 827h103l75 -116h-68z" />
    <glyph glyph-name="Aacute" unicode="&#xc1;" horiz-adv-x="568" 
d="M400 213h-232l-107 -213h-88l349 674h98l93 -674h-85zM198 279h196l-26 195q-1 14 -5.5 58t-6.5 66h-2q-42 -96 -56 -123zM423 827h109l-137 -117h-74z" />
    <glyph glyph-name="Acircumflex" unicode="&#xc2;" horiz-adv-x="568" 
d="M400 213h-232l-107 -213h-88l349 674h98l93 -674h-85zM198 279h196l-26 195q-1 14 -5.5 58t-6.5 66h-2q-42 -96 -56 -123zM358 827h64l80 -117h-68l-49 71h-2l-72 -71h-74z" />
    <glyph glyph-name="Atilde" unicode="&#xc3;" horiz-adv-x="568" 
d="M400 213h-232l-107 -213h-88l349 674h98l93 -674h-85zM198 279h196l-26 195q-1 14 -5.5 58t-6.5 66h-2q-42 -96 -56 -123zM289 715h-49q8 47 30.5 75.5t54.5 28.5q29 0 62 -21q26 -19 45 -19q23 0 35 41h48q-17 -100 -86 -100q-27 0 -62 20q-31 20 -43 19q-24 -1 -35 -44
z" />
    <glyph glyph-name="Adieresis" unicode="&#xc4;" horiz-adv-x="568" 
d="M400 213h-232l-107 -213h-88l349 674h98l93 -674h-85zM198 279h196l-26 195q-1 14 -5.5 58t-6.5 66h-2q-42 -96 -56 -123zM284 721q-20 0 -33.5 14t-13.5 34q0 21 15.5 37t36.5 16t34 -14.5t13 -34.5q0 -22 -15 -37t-37 -15zM469 721q-20 0 -33.5 14t-13.5 34
q0 21 15.5 37t36.5 16t34 -14.5t13 -34.5q0 -22 -15 -37t-37 -15z" />
    <glyph glyph-name="Aring" unicode="&#xc5;" horiz-adv-x="568" 
d="M400 213h-232l-107 -213h-88l349 674h98l93 -674h-85zM198 279h196l-26 195q-1 14 -5.5 58t-6.5 66h-2q-42 -96 -56 -123zM385 873q42 0 68.5 -24t26.5 -63q-1 -41 -30.5 -66t-71.5 -25q-41 0 -67.5 23.5t-27.5 60.5q0 41 28.5 67.5t73.5 26.5zM383 837q-22 0 -35.5 -16
t-13.5 -40q0 -21 13 -35.5t33 -14.5q21 0 34.5 15.5t13.5 38.5q0 22 -12.5 37t-32.5 15z" />
    <glyph glyph-name="AE" unicode="&#xc6;" horiz-adv-x="772" 
d="M37 0h-88l447 674h381l-14 -71h-251l-24 -218h239l-13 -71h-230l-26 -243h257l-14 -71h-329l24 238h-201zM237 307h166l20 195q3 24 13 109h-4q-22 -40 -64 -106z" />
    <glyph glyph-name="Ccedilla" unicode="&#xc7;" horiz-adv-x="555" 
d="M593 652l-27 -67q-47 28 -133 28q-112 0 -193 -76q-48 -45 -75.5 -112.5t-27.5 -143.5q0 -99 49.5 -159.5t155.5 -60.5q86 0 144 28l11 -67q-66 -29 -153 -33l-30 -40q25 -5 39 -22.5t14 -41.5q0 -41 -32 -63.5t-75 -22.5q-44 0 -67 18l18 43q23 -15 51 -15q18 0 31 9.5
t13 25.5q0 33 -65 39l50 71q-114 10 -178.5 84.5t-64.5 194.5q0 96 38 182t107 143q105 90 253 90q52 0 91.5 -10t55.5 -22z" />
    <glyph glyph-name="Egrave" unicode="&#xc8;" horiz-adv-x="470" 
d="M432 387l-13 -70h-245l-47 -246h276l-13 -71h-359l128 674h343l-13 -71h-260l-42 -216h245zM213 827h103l75 -116h-68z" />
    <glyph glyph-name="Eacute" unicode="&#xc9;" horiz-adv-x="470" 
d="M432 387l-13 -70h-245l-47 -246h276l-13 -71h-359l128 674h343l-13 -71h-260l-42 -216h245zM387 827h109l-137 -117h-74z" />
    <glyph glyph-name="Ecircumflex" unicode="&#xca;" horiz-adv-x="470" 
d="M432 387l-13 -70h-245l-47 -246h276l-13 -71h-359l128 674h343l-13 -71h-260l-42 -216h245zM323 827h65l80 -117h-68l-49 71h-2l-73 -71h-74z" />
    <glyph glyph-name="Edieresis" unicode="&#xcb;" horiz-adv-x="470" 
d="M432 387l-13 -70h-245l-47 -246h276l-13 -71h-359l128 674h343l-13 -71h-260l-42 -216h245zM253 721q-20 0 -33.5 14t-13.5 34q0 21 15.5 37t36.5 16t34 -14.5t13 -34.5q0 -22 -15 -37t-37 -15zM437 721q-19 0 -32.5 14t-13.5 34q0 21 15 37t36 16t34 -14.5t13 -34.5
q0 -22 -15 -37t-37 -15z" />
    <glyph glyph-name="Igrave" unicode="&#xcc;" horiz-adv-x="233" 
d="M158 674h83l-128 -674h-83zM80 827h103l75 -116h-68z" />
    <glyph glyph-name="Iacute" unicode="&#xcd;" horiz-adv-x="233" 
d="M158 674h83l-128 -674h-83zM253 827h108l-136 -117h-75z" />
    <glyph glyph-name="Icircumflex" unicode="&#xce;" horiz-adv-x="233" 
d="M158 674h83l-128 -674h-83zM186 827h65l80 -117h-68l-49 71h-2l-72 -71h-74z" />
    <glyph glyph-name="Idieresis" unicode="&#xcf;" horiz-adv-x="233" 
d="M158 674h83l-128 -674h-83zM121 721q-20 0 -33.5 14t-13.5 34q0 21 15.5 37t36.5 16t34 -14.5t13 -34.5q0 -22 -15 -37t-37 -15zM305 721q-19 0 -32.5 14t-13.5 34q0 21 15.5 37t36.5 16t33.5 -14.5t12.5 -34.5q0 -22 -15 -37t-37 -15z" />
    <glyph glyph-name="Eth" unicode="&#xd0;" horiz-adv-x="654" 
d="M14 317l14 70h83l53 277q78 14 172 14q167 0 243 -88q63 -64 64 -183q0 -91 -37 -176.5t-103 -139.5q-113 -95 -301 -95q-85 0 -164 9l60 312h-84zM361 387l-14 -70h-165l-48 -247q30 -5 91 -5q146 0 234 90q45 45 70 111.5t25 136.5q0 208 -225 208q-58 0 -93 -6
l-41 -218h166z" />
    <glyph glyph-name="Ntilde" unicode="&#xd1;" horiz-adv-x="632" 
d="M109 0h-78l128 674h91l154 -382q33 -84 60 -188l2 1q4 75 28 211l68 358h79l-129 -674h-82l-154 381q-42 110 -62 195l-3 -2q-9 -83 -35 -221zM329 716h-49q8 47 30.5 75.5t54.5 28.5q29 0 62 -21q26 -19 45 -19q23 0 35 41h48q-17 -100 -86 -100q-27 0 -62 20
q-31 20 -43 19q-24 -1 -35 -44z" />
    <glyph glyph-name="Ograve" unicode="&#xd2;" horiz-adv-x="668" 
d="M402 685q128 0 191.5 -79t63.5 -197q0 -90 -32 -179t-90 -147q-96 -94 -231 -94q-124 0 -190 79t-66 195q0 91 34 181t94 149q94 92 226 92zM392 615q-86 0 -155 -67q-47 -48 -74.5 -126.5t-27.5 -151.5q0 -91 44 -151t137 -60q88 0 154 68q46 46 73 125t27 153
q0 40 -7.5 73.5t-26 66t-55.5 51.5t-89 19zM287 827h103l75 -116h-69z" />
    <glyph glyph-name="Oacute" unicode="&#xd3;" horiz-adv-x="668" 
d="M402 685q128 0 191.5 -79t63.5 -197q0 -90 -32 -179t-90 -147q-96 -94 -231 -94q-124 0 -190 79t-66 195q0 91 34 181t94 149q94 92 226 92zM392 615q-86 0 -155 -67q-47 -48 -74.5 -126.5t-27.5 -151.5q0 -91 44 -151t137 -60q88 0 154 68q46 46 73 125t27 153
q0 40 -7.5 73.5t-26 66t-55.5 51.5t-89 19zM469 829h109l-136 -118h-75z" />
    <glyph glyph-name="Ocircumflex" unicode="&#xd4;" horiz-adv-x="668" 
d="M402 685q128 0 191.5 -79t63.5 -197q0 -90 -32 -179t-90 -147q-96 -94 -231 -94q-124 0 -190 79t-66 195q0 91 34 181t94 149q94 92 226 92zM392 615q-86 0 -155 -67q-47 -48 -74.5 -126.5t-27.5 -151.5q0 -91 44 -151t137 -60q88 0 154 68q46 46 73 125t27 153
q0 40 -7.5 73.5t-26 66t-55.5 51.5t-89 19zM403 827h64l80 -117h-68l-49 71h-2l-72 -71h-74z" />
    <glyph glyph-name="Otilde" unicode="&#xd5;" horiz-adv-x="668" 
d="M402 685q128 0 191.5 -79t63.5 -197q0 -90 -32 -179t-90 -147q-96 -94 -231 -94q-124 0 -190 79t-66 195q0 91 34 181t94 149q94 92 226 92zM392 615q-86 0 -155 -67q-47 -48 -74.5 -126.5t-27.5 -151.5q0 -91 44 -151t137 -60q88 0 154 68q46 46 73 125t27 153
q0 40 -7.5 73.5t-26 66t-55.5 51.5t-89 19zM342 716h-50q8 47 30.5 75.5t54.5 28.5q29 0 62 -21q26 -19 45 -19q23 0 35 41h48q-17 -100 -85 -100q-29 0 -62 20q-31 20 -44 19q-25 -2 -34 -44z" />
    <glyph glyph-name="Odieresis" unicode="&#xd6;" horiz-adv-x="668" 
d="M402 685q128 0 191.5 -79t63.5 -197q0 -90 -32 -179t-90 -147q-96 -94 -231 -94q-124 0 -190 79t-66 195q0 91 34 181t94 149q94 92 226 92zM392 615q-86 0 -155 -67q-47 -48 -74.5 -126.5t-27.5 -151.5q0 -91 44 -151t137 -60q88 0 154 68q46 46 73 125t27 153
q0 40 -7.5 73.5t-26 66t-55.5 51.5t-89 19zM335 721q-20 0 -33.5 14t-13.5 34q0 21 15.5 37t36.5 16t34 -14.5t13 -34.5q0 -22 -15 -37t-37 -15zM520 721q-20 0 -33.5 14t-13.5 34q0 21 15.5 37t36.5 16t33.5 -14.5t12.5 -34.5q0 -22 -14.5 -37t-36.5 -15z" />
    <glyph glyph-name="multiply" unicode="&#xd7;" horiz-adv-x="596" 
d="M63 482l43 44l204 -222l205 222l43 -43l-207 -220l207 -219l-43 -44l-206 222l-205 -222l-41 45l205 218z" />
    <glyph glyph-name="Oslash" unicode="&#xd8;" horiz-adv-x="667" 
d="M63 -43l-41 40l77 88q-52 76 -52 183q0 89 32 173.5t89 143.5q47 47 108 73.5t125 26.5q105 0 166 -58l76 86l45 -36l-81 -92q50 -69 50 -175q0 -89 -32 -176.5t-88 -145.5q-44 -47 -105 -73t-126 -26q-101 0 -164 57zM159 155l358 412q-43 48 -125 48t-148 -62t-93 -156
q-40 -132 6 -242h2zM546 512l-353 -407q45 -47 125 -47q75 0 138.5 58t93.5 150q43 137 -1 246h-3z" />
    <glyph glyph-name="Ugrave" unicode="&#xd9;" horiz-adv-x="620" 
d="M158 674h83l-76 -400q-8 -43 -8 -84q0 -63 33.5 -96.5t91.5 -33.5q149 0 188 213l77 401h83l-77 -403q-55 -282 -282 -282q-88 -1 -142.5 49t-54.5 150q0 45 9 93zM273 827h102l76 -116h-69z" />
    <glyph glyph-name="Uacute" unicode="&#xda;" horiz-adv-x="620" 
d="M158 674h83l-76 -400q-8 -43 -8 -84q0 -63 33.5 -96.5t91.5 -33.5q149 0 188 213l77 401h83l-77 -403q-55 -282 -282 -282q-88 -1 -142.5 49t-54.5 150q0 45 9 93zM437 827h109l-136 -117h-75z" />
    <glyph glyph-name="Ucircumflex" unicode="&#xdb;" horiz-adv-x="620" 
d="M158 674h83l-76 -400q-8 -43 -8 -84q0 -63 33.5 -96.5t91.5 -33.5q149 0 188 213l77 401h83l-77 -403q-55 -282 -282 -282q-88 -1 -142.5 49t-54.5 150q0 45 9 93zM391 827h64l80 -117h-68l-49 71h-2l-72 -71h-74z" />
    <glyph glyph-name="Udieresis" unicode="&#xdc;" horiz-adv-x="620" 
d="M158 674h83l-76 -400q-8 -43 -8 -84q0 -63 33.5 -96.5t91.5 -33.5q149 0 188 213l77 401h83l-77 -403q-55 -282 -282 -282q-88 -1 -142.5 49t-54.5 150q0 45 9 93zM311 721q-19 0 -32.5 14t-13.5 34q0 21 15.5 37t36.5 16t34 -14.5t13 -34.5q0 -22 -15.5 -37t-37.5 -15z
M496 721q-20 0 -33.5 14t-13.5 34q0 21 15.5 37t36.5 16t34 -14.5t13 -34.5q0 -22 -15 -37t-37 -15z" />
    <glyph glyph-name="Yacute" unicode="&#xdd;" horiz-adv-x="516" 
d="M243 0h-82l53 280l-130 394h88l66 -218q20 -69 28 -113h2q19 33 72 116l146 215h97l-287 -394zM386 827h108l-136 -117h-75z" />
    <glyph glyph-name="Thorn" unicode="&#xde;" horiz-adv-x="507" 
d="M31 0l128 674h82l-26 -132q37 8 80 8q102 0 154 -52q44 -44 44 -113q0 -110 -80.5 -172t-195.5 -62q-38 0 -76 5l-29 -156h-81zM202 474l-47 -248q28 -6 70 -6q76 0 130.5 43t54.5 111q0 55 -35.5 81.5t-97.5 26.5q-47 0 -75 -8z" />
    <glyph glyph-name="germandbls" unicode="&#xdf;" horiz-adv-x="539" 
d="M111 0h-83l88 460q49 261 246 261q71 0 114 -40.5t43 -101.5q0 -31 -12.5 -61t-28.5 -47q-38 -13 -62.5 -37t-24.5 -56q0 -35 37 -83q50 -67 50 -130q0 -81 -56 -128.5t-141 -47.5q-62 0 -98 23l22 63q35 -20 77 -20q49 0 80.5 28t31.5 74q0 43 -37 92q-51 66 -51 112
q0 48 30 84t78 57q22 22 22 69q0 34 -21.5 58t-64.5 24q-55 0 -93.5 -46t-55.5 -134z" />
    <glyph glyph-name="agrave" unicode="&#xe0;" horiz-adv-x="522" 
d="M426 0h-77q-1 26 11 125h-3q-71 -136 -186 -136q-65 0 -102.5 44t-37.5 116q0 64 23 125t65 110.5t106.5 80t140.5 30.5q71 0 130 -19l-49 -252q-25 -129 -21 -224zM374 276l29 146q-21 7 -58 7q-92 0 -160 -81.5t-68 -184.5q0 -106 83 -106q54 0 105 62.5t69 156.5z
M226 686h94l66 -143h-59z" />
    <glyph glyph-name="aacute" unicode="&#xe1;" horiz-adv-x="522" 
d="M426 0h-77q-1 26 11 125h-3q-71 -136 -186 -136q-65 0 -102.5 44t-37.5 116q0 64 23 125t65 110.5t106.5 80t140.5 30.5q71 0 130 -19l-49 -252q-25 -129 -21 -224zM374 276l29 146q-21 7 -58 7q-92 0 -160 -81.5t-68 -184.5q0 -106 83 -106q54 0 105 62.5t69 156.5z
M395 686h100l-133 -143h-65z" />
    <glyph glyph-name="acircumflex" unicode="&#xe2;" horiz-adv-x="522" 
d="M426 0h-77q-1 26 11 125h-3q-71 -136 -186 -136q-65 0 -102.5 44t-37.5 116q0 64 23 125t65 110.5t106.5 80t140.5 30.5q71 0 130 -19l-49 -252q-25 -129 -21 -224zM374 276l29 146q-21 7 -58 7q-92 0 -160 -81.5t-68 -184.5q0 -106 83 -106q54 0 105 62.5t69 156.5z
M328 686h60l69 -143h-62l-43 91h-2l-70 -91h-67z" />
    <glyph glyph-name="atilde" unicode="&#xe3;" horiz-adv-x="522" 
d="M426 0h-77q-1 26 11 125h-3q-71 -136 -186 -136q-65 0 -102.5 44t-37.5 116q0 64 23 125t65 110.5t106.5 80t140.5 30.5q71 0 130 -19l-49 -252q-25 -129 -21 -224zM374 276l29 146q-21 7 -58 7q-92 0 -160 -81.5t-68 -184.5q0 -106 83 -106q54 0 105 62.5t69 156.5z
M257 568h-50q5 47 26 75.5t54 28.5q24 0 63 -23q32 -17 42 -17q12 0 19 9t11 34h49q-12 -101 -79 -101q-33 0 -62 22q-28 18 -43 18q-21 0 -30 -46z" />
    <glyph glyph-name="adieresis" unicode="&#xe4;" horiz-adv-x="522" 
d="M426 0h-77q-1 26 11 125h-3q-71 -136 -186 -136q-65 0 -102.5 44t-37.5 116q0 64 23 125t65 110.5t106.5 80t140.5 30.5q71 0 130 -19l-49 -252q-25 -129 -21 -224zM374 276l29 146q-21 7 -58 7q-92 0 -160 -81.5t-68 -184.5q0 -106 83 -106q54 0 105 62.5t69 156.5z
M244 570q-20 0 -33.5 14t-13.5 35q0 22 15.5 37.5t37.5 15.5q21 0 34 -14t13 -35q0 -23 -14.5 -38t-38.5 -15zM427 570q-20 0 -33 14t-13 35q0 22 15 37.5t37 15.5q21 0 33.5 -14t12.5 -35q0 -23 -14.5 -38t-37.5 -15z" />
    <glyph glyph-name="aring" unicode="&#xe5;" horiz-adv-x="522" 
d="M426 0h-77q-1 26 11 125h-3q-71 -136 -186 -136q-65 0 -102.5 44t-37.5 116q0 64 23 125t65 110.5t106.5 80t140.5 30.5q71 0 130 -19l-49 -252q-25 -129 -21 -224zM374 276l29 146q-21 7 -58 7q-92 0 -160 -81.5t-68 -184.5q0 -106 83 -106q54 0 105 62.5t69 156.5z
M344 720q41 0 68 -25t27 -66q-1 -42 -31.5 -68.5t-72.5 -26.5q-41 0 -68 25t-28 63q-1 42 29.5 70t75.5 28zM340 683q-22 0 -36.5 -16.5t-14.5 -42.5q0 -21 13.5 -36.5t34.5 -15.5q22 0 36.5 16.5t14.5 42.5q0 22 -13 37t-35 15z" />
    <glyph glyph-name="ae" unicode="&#xe6;" horiz-adv-x="718" 
d="M630 89l11 -59q-67 -41 -159 -41q-58 0 -100 28t-58 79h-2q-29 -50 -77 -78.5t-106 -28.5q-62 0 -97.5 35.5t-36.5 88.5q0 94 88.5 144t226.5 45l4 19q7 42 -14.5 76.5t-77.5 34.5q-64 0 -126 -40l-18 56q73 47 154 47q119 0 138 -102h2q31 49 80.5 75.5t103.5 26.5
q66 0 102.5 -34.5t36.5 -81.5q0 -49 -25 -80.5t-73 -45.5t-100 -18.5t-124 -1.5q-12 -66 6 -112q27 -65 110 -65q63 0 131 33zM301 189l10 54q-36 2 -71 -2.5t-70.5 -16.5t-57.5 -38t-22 -63q0 -31 19.5 -49.5t51.5 -18.5q48 0 88 35.5t52 98.5zM623 372q0 25 -19 42t-52 17
q-59 0 -101.5 -43.5t-55.5 -93.5q52 -1 87.5 0.5t70.5 8.5t52.5 24.5t17.5 44.5z" />
    <glyph glyph-name="ccedilla" unicode="&#xe7;" horiz-adv-x="423" 
d="M432 473l-24 -67q-36 19 -83 19q-89 0 -147 -73.5t-58 -164.5q0 -60 31.5 -94.5t89.5 -34.5q56 0 112 27l8 -66q-48 -23 -108 -29l-30 -41q24 -5 39 -22.5t15 -41.5q0 -40 -32.5 -63t-77.5 -23q-43 0 -65 17l18 43q23 -14 52 -14q18 0 31 9.5t13 26.5q0 31 -66 39l49 70
q-79 6 -122 58t-43 128q0 128 85 223t212 95q62 0 101 -21z" />
    <glyph glyph-name="egrave" unicode="&#xe8;" horiz-adv-x="452" 
d="M365 89l12 -62q-70 -38 -160 -38q-91 0 -137.5 54.5t-46.5 140.5q0 116 76.5 213.5t187.5 97.5q67 0 104.5 -35t37.5 -90q0 -162 -322 -157q-3 -15 -0.5 -44t10.5 -47q28 -65 108 -65q70 0 130 32zM359 369q0 29 -20.5 45t-53.5 16q-55 0 -99 -45.5t-59 -106.5
q232 -4 232 91zM190 686h94l66 -143h-59z" />
    <glyph glyph-name="eacute" unicode="&#xe9;" horiz-adv-x="452" 
d="M365 89l12 -62q-70 -38 -160 -38q-91 0 -137.5 54.5t-46.5 140.5q0 116 76.5 213.5t187.5 97.5q67 0 104.5 -35t37.5 -90q0 -162 -322 -157q-3 -15 -0.5 -44t10.5 -47q28 -65 108 -65q70 0 130 32zM359 369q0 29 -20.5 45t-53.5 16q-55 0 -99 -45.5t-59 -106.5
q232 -4 232 91zM350 686h100l-133 -143h-65z" />
    <glyph glyph-name="ecircumflex" unicode="&#xea;" horiz-adv-x="452" 
d="M365 89l12 -62q-70 -38 -160 -38q-91 0 -137.5 54.5t-46.5 140.5q0 116 76.5 213.5t187.5 97.5q67 0 104.5 -35t37.5 -90q0 -162 -322 -157q-3 -15 -0.5 -44t10.5 -47q28 -65 108 -65q70 0 130 32zM359 369q0 29 -20.5 45t-53.5 16q-55 0 -99 -45.5t-59 -106.5
q232 -4 232 91zM295 686h60l69 -143h-62l-43 91h-2l-70 -91h-67z" />
    <glyph glyph-name="edieresis" unicode="&#xeb;" horiz-adv-x="452" 
d="M365 89l12 -62q-70 -38 -160 -38q-91 0 -137.5 54.5t-46.5 140.5q0 116 76.5 213.5t187.5 97.5q67 0 104.5 -35t37.5 -90q0 -162 -322 -157q-3 -15 -0.5 -44t10.5 -47q28 -65 108 -65q70 0 130 32zM359 369q0 29 -20.5 45t-53.5 16q-55 0 -99 -45.5t-59 -106.5
q232 -4 232 91zM221 570q-21 0 -34.5 14t-13.5 35q0 22 15.5 37.5t37.5 15.5q21 0 34 -14t13 -35q0 -23 -14.5 -38t-37.5 -15zM403 570q-20 0 -33 14t-13 35q0 22 15 37.5t37 15.5q21 0 33.5 -14t12.5 -35q0 -23 -14 -38t-38 -15z" />
    <glyph glyph-name="igrave" unicode="&#xec;" horiz-adv-x="228" 
d="M111 0h-83l93 484h83zM51 686h94l66 -143h-59z" />
    <glyph glyph-name="iacute" unicode="&#xed;" horiz-adv-x="228" 
d="M111 0h-83l93 484h83zM223 686h100l-133 -143h-65z" />
    <glyph glyph-name="icircumflex" unicode="&#xee;" horiz-adv-x="228" 
d="M111 0h-83l93 484h83zM161 686h60l69 -143h-62l-43 91h-2l-70 -91h-67z" />
    <glyph glyph-name="idieresis" unicode="&#xef;" horiz-adv-x="228" 
d="M111 0h-83l93 484h83zM89 570q-20 0 -33.5 14t-13.5 35q0 22 15 37.5t37 15.5q21 0 34.5 -14t13.5 -35q0 -23 -15 -38t-38 -15zM272 570q-20 0 -33 14t-13 35q0 23 14.5 38t36.5 15q21 0 34 -14t13 -35q0 -23 -14.5 -38t-37.5 -15z" />
    <glyph glyph-name="eth" unicode="&#xf0;" horiz-adv-x="516" 
d="M227 54q73 0 121.5 73.5t50.5 170.5q2 48 -16 75q-29 47 -91 47q-74 0 -123.5 -73t-49.5 -162q0 -56 28 -93.5t80 -37.5zM164 507l-16 42l127 59q-32 32 -88 61l39 50q59 -27 120 -80l131 59l18 -42l-113 -51q104 -112 104 -269q0 -154 -78 -250.5t-186 -96.5
q-93 0 -141 57t-48 138q0 121 74.5 210t180.5 90q70 0 105 -48l3 1q-26 79 -85 138z" />
    <glyph glyph-name="ntilde" unicode="&#xf1;" horiz-adv-x="534" 
d="M96 0h-83l65 343q8 39 23 141h74l-12 -96h2q68 107 179 107q51 0 87 -32.5t36 -102.5q0 -31 -9 -78l-54 -282h-82l52 280q7 42 7 61q0 84 -76 84q-49 0 -99.5 -52.5t-66.5 -137.5zM250 568h-50q5 47 26 75.5t54 28.5q24 0 63 -23q32 -17 42 -17q12 0 19 9t11 34h49
q-12 -101 -79 -101q-33 0 -62 22q-28 18 -43 18q-21 0 -30 -46z" />
    <glyph glyph-name="ograve" unicode="&#xf2;" horiz-adv-x="523" 
d="M303 495q92 0 141 -59t49 -143q0 -118 -76.5 -211t-193.5 -93q-88 0 -138 56.5t-50 141.5q0 124 76.5 216t191.5 92zM294 429q-74 0 -124 -75t-49 -163q0 -60 31 -98.5t83 -38.5q71 0 121.5 75.5t50.5 163.5q0 52 -27 94t-86 42zM195 686h94l66 -143h-59z" />
    <glyph glyph-name="oacute" unicode="&#xf3;" horiz-adv-x="523" 
d="M303 495q92 0 141 -59t49 -143q0 -118 -76.5 -211t-193.5 -93q-88 0 -138 56.5t-50 141.5q0 124 76.5 216t191.5 92zM294 429q-74 0 -124 -75t-49 -163q0 -60 31 -98.5t83 -38.5q71 0 121.5 75.5t50.5 163.5q0 52 -27 94t-86 42zM365 686h100l-133 -143h-65z" />
    <glyph glyph-name="ocircumflex" unicode="&#xf4;" horiz-adv-x="523" 
d="M303 495q92 0 141 -59t49 -143q0 -118 -76.5 -211t-193.5 -93q-88 0 -138 56.5t-50 141.5q0 124 76.5 216t191.5 92zM294 429q-74 0 -124 -75t-49 -163q0 -60 31 -98.5t83 -38.5q71 0 121.5 75.5t50.5 163.5q0 52 -27 94t-86 42zM311 686h60l69 -143h-62l-43 91h-2
l-70 -91h-67z" />
    <glyph glyph-name="otilde" unicode="&#xf5;" horiz-adv-x="523" 
d="M303 495q92 0 141 -59t49 -143q0 -118 -76.5 -211t-193.5 -93q-88 0 -138 56.5t-50 141.5q0 124 76.5 216t191.5 92zM294 429q-74 0 -124 -75t-49 -163q0 -60 31 -98.5t83 -38.5q71 0 121.5 75.5t50.5 163.5q0 52 -27 94t-86 42zM236 568h-51q5 47 26 75.5t54 28.5
q25 0 64 -23q30 -17 41 -17q13 0 19.5 9t11.5 34h48q-12 -101 -79 -101q-31 0 -62 22q-26 18 -42 18q-23 0 -30 -46z" />
    <glyph glyph-name="odieresis" unicode="&#xf6;" horiz-adv-x="523" 
d="M303 495q92 0 141 -59t49 -143q0 -118 -76.5 -211t-193.5 -93q-88 0 -138 56.5t-50 141.5q0 124 76.5 216t191.5 92zM294 429q-74 0 -124 -75t-49 -163q0 -60 31 -98.5t83 -38.5q71 0 121.5 75.5t50.5 163.5q0 52 -27 94t-86 42zM237 570q-20 0 -33.5 14t-13.5 35
q0 22 15.5 37.5t37.5 15.5q21 0 34 -14t13 -35q0 -23 -14.5 -38t-38.5 -15zM420 570q-20 0 -33 14t-13 35q0 22 15 37.5t37 15.5q21 0 33.5 -14t12.5 -35q0 -23 -14.5 -38t-37.5 -15z" />
    <glyph glyph-name="divide" unicode="&#xf7;" horiz-adv-x="596" 
d="M305 387q-23 0 -38 16t-15 39q0 25 15 40.5t39 15.5t38.5 -15.5t14.5 -40.5q0 -24 -15 -39.5t-39 -15.5zM556 237h-501v60h501v-60zM305 36q-23 0 -38 16t-15 39q0 25 15 40.5t39 15.5t38.5 -15.5t14.5 -40.5q0 -24 -15 -39.5t-39 -15.5z" />
    <glyph glyph-name="oslash" unicode="&#xf8;" horiz-adv-x="523" 
d="M51 -38l-30 30l56 65q-42 53 -42 137q0 120 76.5 210.5t189.5 90.5q70 0 116 -36l54 61l34 -28l-56 -64q44 -55 44 -132q0 -127 -78 -217t-184 -90q-75 0 -123 38zM138 125l230 277q-26 28 -77 28q-74 0 -123 -72.5t-49 -153.5q0 -47 17 -80zM390 359l-232 -275
q30 -32 80 -32q66 0 117.5 71.5t52.5 157.5q0 43 -16 78h-2z" />
    <glyph glyph-name="ugrave" unicode="&#xf9;" horiz-adv-x="526" 
d="M417 484h83l-65 -344q-11 -55 -22 -140h-75l13 91h-2q-32 -48 -77.5 -75t-93.5 -27q-54 0 -90.5 32t-36.5 108q0 40 9 81l52 274h83l-51 -270q-9 -41 -9 -71q0 -84 77 -84q48 0 96 50t62 127zM194 686h94l66 -143h-59z" />
    <glyph glyph-name="uacute" unicode="&#xfa;" horiz-adv-x="526" 
d="M417 484h83l-65 -344q-11 -55 -22 -140h-75l13 91h-2q-32 -48 -77.5 -75t-93.5 -27q-54 0 -90.5 32t-36.5 108q0 40 9 81l52 274h83l-51 -270q-9 -41 -9 -71q0 -84 77 -84q48 0 96 50t62 127zM360 686h100l-133 -143h-65z" />
    <glyph glyph-name="ucircumflex" unicode="&#xfb;" horiz-adv-x="526" 
d="M417 484h83l-65 -344q-11 -55 -22 -140h-75l13 91h-2q-32 -48 -77.5 -75t-93.5 -27q-54 0 -90.5 32t-36.5 108q0 40 9 81l52 274h83l-51 -270q-9 -41 -9 -71q0 -84 77 -84q48 0 96 50t62 127zM314 686h60l69 -143h-62l-43 91h-2l-70 -91h-67z" />
    <glyph glyph-name="udieresis" unicode="&#xfc;" horiz-adv-x="526" 
d="M417 484h83l-65 -344q-11 -55 -22 -140h-75l13 91h-2q-32 -48 -77.5 -75t-93.5 -27q-54 0 -90.5 32t-36.5 108q0 40 9 81l52 274h83l-51 -270q-9 -41 -9 -71q0 -84 77 -84q48 0 96 50t62 127zM235 570q-20 0 -33.5 14t-13.5 35q0 22 15.5 37.5t37.5 15.5q21 0 34 -14
t13 -35q0 -23 -14.5 -38t-38.5 -15zM418 570q-20 0 -33 14t-13 35q0 22 15 37.5t37 15.5q21 0 33.5 -14t12.5 -35q0 -23 -14.5 -38t-37.5 -15z" />
    <glyph glyph-name="yacute" unicode="&#xfd;" horiz-adv-x="441" 
d="M47 484h87l47 -261q18 -93 23 -127h2q2 5 19.5 46t31.5 73l124 269h88l-181 -368q-88 -177 -167 -255q-67 -67 -141 -83l-20 71q51 17 89 47q58 45 93 111q5 9 3 22zM320 686h100l-133 -143h-65z" />
    <glyph glyph-name="thorn" unicode="&#xfe;" horiz-adv-x="526" 
d="M-16 -198l165 868h82l-52 -273h2q64 98 166 98q73 0 111 -50.5t38 -125.5q0 -132 -83.5 -231t-199.5 -99q-64 0 -103 21h-4l-39 -208h-83zM145 216l-25 -136q31 -26 93 -26q79 0 137.5 80.5t58.5 177.5q0 46 -21.5 80t-68.5 34q-53 0 -104 -56t-70 -154z" />
    <glyph glyph-name="ydieresis" unicode="&#xff;" horiz-adv-x="441" 
d="M47 484h87l47 -261q18 -93 23 -127h2q2 5 19.5 46t31.5 73l124 269h88l-181 -368q-88 -177 -167 -255q-67 -67 -141 -83l-20 71q51 17 89 47q58 45 93 111q5 9 3 22zM188 570q-20 0 -33.5 14t-13.5 35q0 22 15 37.5t37 15.5q21 0 34.5 -14t13.5 -35q0 -23 -15 -38
t-38 -15zM371 570q-21 0 -33.5 14t-12.5 35q0 23 14.5 38t36.5 15q21 0 34 -14t13 -35q0 -23 -14.5 -38t-37.5 -15z" />
    <glyph glyph-name="Amacron" unicode="&#x100;" horiz-adv-x="568" 
d="M400 213h-232l-107 -213h-88l349 674h98l93 -674h-85zM198 279h196l-26 195q-1 14 -5.5 58t-6.5 66h-2q-42 -96 -56 -123zM270 792h236l-11 -59h-236z" />
    <glyph glyph-name="amacron" unicode="&#x101;" horiz-adv-x="522" 
d="M426 0h-77q-1 26 11 125h-3q-71 -136 -186 -136q-65 0 -102.5 44t-37.5 116q0 64 23 125t65 110.5t106.5 80t140.5 30.5q71 0 130 -19l-49 -252q-25 -129 -21 -224zM374 276l29 146q-21 7 -58 7q-92 0 -160 -81.5t-68 -184.5q0 -106 83 -106q54 0 105 62.5t69 156.5z
M235 644h220l-10 -58h-221z" />
    <glyph glyph-name="Ccaron" unicode="&#x10c;" horiz-adv-x="555" 
d="M486 89l11 -67q-74 -33 -175 -33q-127 0 -200.5 75.5t-73.5 204.5q0 96 38 182t107 143q105 90 253 90q52 0 91.5 -10t55.5 -22l-27 -67q-47 28 -133 28q-112 0 -193 -76q-48 -45 -75.5 -112.5t-27.5 -143.5q0 -99 49.5 -159.5t155.5 -60.5q86 0 144 28zM449 714h-65
l-80 117h69l47 -71h4l71 71h74z" />
    <glyph glyph-name="ccaron" unicode="&#x10d;" horiz-adv-x="423" 
d="M353 85l8 -66q-63 -30 -140 -30q-90 0 -138.5 53t-48.5 134q0 128 85 223t212 95q62 0 101 -21l-24 -67q-36 19 -83 19q-89 0 -147 -73.5t-58 -164.5q0 -60 31.5 -94.5t89.5 -34.5q56 0 112 27zM330 543h-60l-70 143h63l42 -92h3l72 92h67z" />
    <glyph glyph-name="Dcroat" unicode="&#x110;" horiz-adv-x="654" 
d="M14 317l14 70h83l53 277q78 14 172 14q167 0 243 -88q63 -64 64 -183q0 -91 -37 -176.5t-103 -139.5q-113 -95 -301 -95q-85 0 -164 9l60 312h-84zM361 387l-14 -70h-165l-48 -247q30 -5 91 -5q146 0 234 90q45 45 70 111.5t25 136.5q0 208 -225 208q-58 0 -93 -6
l-41 -218h166z" />
    <glyph glyph-name="dcroat" unicode="&#x111;" horiz-adv-x="525" 
d="M605 622l-10 -54h-80l-78 -414q-17 -84 -21 -154h-76l13 96h-2q-68 -107 -174 -107q-68 0 -106.5 49t-38.5 127q0 132 87 231t213 99q49 0 85 -17l17 90h-196l11 54h195l16 88h82l-17 -88h80zM371 238l33 170q-32 21 -80 21q-85 0 -145.5 -77t-60.5 -176q0 -51 21 -85
t70 -34q50 0 98.5 51.5t63.5 129.5z" />
    <glyph glyph-name="Emacron" unicode="&#x112;" horiz-adv-x="470" 
d="M432 387l-13 -70h-245l-47 -246h276l-13 -71h-359l128 674h343l-13 -71h-260l-42 -216h245zM229 792h236l-11 -59h-236z" />
    <glyph glyph-name="emacron" unicode="&#x113;" horiz-adv-x="452" 
d="M365 89l12 -62q-70 -38 -160 -38q-91 0 -137.5 54.5t-46.5 140.5q0 116 76.5 213.5t187.5 97.5q67 0 104.5 -35t37.5 -90q0 -162 -322 -157q-3 -15 -0.5 -44t10.5 -47q28 -65 108 -65q70 0 130 32zM359 369q0 29 -20.5 45t-53.5 16q-55 0 -99 -45.5t-59 -106.5
q232 -4 232 91zM197 644h220l-10 -58h-221z" />
    <glyph glyph-name="Gbreve" unicode="&#x11e;" horiz-adv-x="623" 
d="M588 352l-61 -323q-88 -36 -190 -36q-145 0 -220 84q-68 73 -68 197q0 86 34 168t97 139q116 100 278 100q105 0 159 -31l-28 -70q-55 29 -142 29q-120 0 -208 -82q-47 -44 -74 -111t-27 -136q0 -101 53 -158.5t162 -57.5q61 0 102 19l39 201h-137l13 68h218zM315 830h52
q-2 -54 61 -54q62 0 75 54h54q-7 -46 -41 -76t-92 -30q-61 0 -88 30t-21 76z" />
    <glyph glyph-name="gbreve" unicode="&#x11f;" horiz-adv-x="524" 
d="M10 -175l23 65q49 -32 128 -32q66 0 109.5 39.5t64.5 133.5l16 72h-3q-63 -103 -168 -103q-69 0 -108 49.5t-40 118.5q0 130 86.5 228.5t221.5 98.5q79 0 155 -34l-74 -400q-29 -158 -98 -216q-62 -54 -169 -54q-97 0 -144 34zM373 250l32 161q-30 17 -81 17
q-87 0 -146 -76.5t-59 -170.5q0 -48 21 -81.5t72 -33.5q52 0 100 56t61 128zM228 683h51q-2 -30 12.5 -49.5t42.5 -19.5q62 0 79 69h53q-10 -55 -46 -88t-88 -33q-61 0 -86 35t-18 86z" />
    <glyph glyph-name="Gdotaccent" unicode="&#x120;" horiz-adv-x="623" 
d="M588 352l-61 -323q-88 -36 -190 -36q-145 0 -220 84q-68 73 -68 197q0 86 34 168t97 139q116 100 278 100q105 0 159 -31l-28 -70q-55 29 -142 29q-120 0 -208 -82q-47 -44 -74 -111t-27 -136q0 -101 53 -158.5t162 -57.5q61 0 102 19l39 201h-137l13 68h218zM442 721
q-19 0 -32.5 14t-13.5 34q0 21 15.5 37t36.5 16t34 -14.5t13 -34.5q0 -22 -15.5 -37t-37.5 -15z" />
    <glyph glyph-name="gdotaccent" unicode="&#x121;" horiz-adv-x="524" 
d="M10 -175l23 65q49 -32 128 -32q66 0 109.5 39.5t64.5 133.5l16 72h-3q-63 -103 -168 -103q-69 0 -108 49.5t-40 118.5q0 130 86.5 228.5t221.5 98.5q79 0 155 -34l-74 -400q-29 -158 -98 -216q-62 -54 -169 -54q-97 0 -144 34zM373 250l32 161q-30 17 -81 17
q-87 0 -146 -76.5t-59 -170.5q0 -48 21 -81.5t72 -33.5q52 0 100 56t61 128zM335 569q-20 0 -33.5 14t-13.5 35q0 23 15 38.5t38 15.5q21 0 34 -14t13 -35q0 -23 -14.5 -38.5t-38.5 -15.5z" />
    <glyph glyph-name="Hcircumflex" unicode="&#x124;" horiz-adv-x="627" 
d="M159 674h83l-54 -285h310l54 285h83l-128 -674h-83l60 316h-311l-59 -316h-83zM392 827h65l80 -117h-68l-49 71h-2l-73 -71h-74z" />
    <glyph glyph-name="hcircumflex" unicode="&#x125;" horiz-adv-x="534" 
d="M111 0h-83l135 710h83l-60 -312h2q67 97 173 97q47 0 83.5 -32t36.5 -98q0 -42 -8 -82l-54 -283h-82l52 279q7 42 7 67q0 79 -75 79q-51 0 -101 -52.5t-64 -130.5zM194 852h64l80 -117h-68l-49 71h-2l-72 -71h-74z" />
    <glyph glyph-name="Hbar" unicode="&#x126;" horiz-adv-x="627" 
d="M517 491h-310l-21 -114h309zM65 547h70l24 127h83l-24 -127h310l24 127h83l-24 -127h68l-11 -56h-68l-93 -491h-83l57 304h-310l-57 -304h-83l94 491h-72z" />
    <glyph glyph-name="hbar" unicode="&#x127;" horiz-adv-x="534" 
d="M186 398h2q67 97 173 97q47 0 83.5 -32t36.5 -98q0 -42 -8 -82l-54 -283h-82l52 279q7 42 7 67q0 79 -75 79q-51 0 -101 -52.5t-64 -130.5l-45 -242h-83l108 568h-77l10 54h77l17 88h83l-17 -88h163l-10 -54h-163z" />
    <glyph glyph-name="Imacron" unicode="&#x12a;" horiz-adv-x="233" 
d="M158 674h83l-128 -674h-83zM106 792h235l-10 -59h-237z" />
    <glyph glyph-name="imacron" unicode="&#x12b;" horiz-adv-x="228" 
d="M111 0h-83l93 484h83zM85 644h220l-10 -58h-221z" />
    <glyph glyph-name="dotlessi" unicode="&#x131;" horiz-adv-x="228" 
d="M111 0h-83l93 484h83z" />
    <glyph glyph-name="Lslash" unicode="&#x141;" horiz-adv-x="448" 
d="M392 0h-355l53 280l-95 -62l13 67l95 62l62 327h83l-53 -278l142 93l-12 -69l-142 -92l-49 -256h271z" />
    <glyph glyph-name="lslash" unicode="&#x142;" horiz-adv-x="237" 
d="M115 0h-82l54 284l-76 -53l13 67l76 54l69 358h82l-56 -293l79 57l-13 -68l-79 -57z" />
    <glyph glyph-name="eng" unicode="&#x14b;" horiz-adv-x="534" 
d="M208 -176l-9 69q61 9 96.5 42.5t51.5 119.5l42 225q7 42 7 61q0 84 -76 84q-48 0 -99 -52.5t-67 -137.5l-43 -235h-83l65 343q11 56 23 141h74l-12 -96h2q68 107 179 107q50 0 86.5 -32.5t36.5 -102.5q0 -31 -9 -78l-44 -231q-22 -116 -77.5 -167.5t-143.5 -59.5z" />
    <glyph glyph-name="Omacron" unicode="&#x14c;" horiz-adv-x="668" 
d="M402 685q128 0 191.5 -79t63.5 -197q0 -90 -32 -179t-90 -147q-96 -94 -231 -94q-124 0 -190 79t-66 195q0 91 34 181t94 149q94 92 226 92zM392 615q-86 0 -155 -67q-47 -48 -74.5 -126.5t-27.5 -151.5q0 -91 44 -151t137 -60q88 0 154 68q46 46 73 125t27 153
q0 40 -7.5 73.5t-26 66t-55.5 51.5t-89 19zM318 792h236l-11 -59h-236z" />
    <glyph glyph-name="omacron" unicode="&#x14d;" horiz-adv-x="523" 
d="M303 495q92 0 141 -59t49 -143q0 -118 -76.5 -211t-193.5 -93q-88 0 -138 56.5t-50 141.5q0 124 76.5 216t191.5 92zM294 429q-74 0 -124 -75t-49 -163q0 -60 31 -98.5t83 -38.5q71 0 121.5 75.5t50.5 163.5q0 52 -27 94t-86 42zM232 644h220l-10 -58h-221z" />
    <glyph glyph-name="OE" unicode="&#x152;" horiz-adv-x="868" 
d="M801 71l-13 -71h-324q-19 0 -61.5 -4t-71.5 -4q-144 0 -213.5 82.5t-69.5 205.5q0 75 25 145.5t73.5 128.5t128.5 93t181 35q28 0 73 -4t71 -4h300l-13 -71h-269l-41 -217h253l-13 -71h-254l-46 -244h284zM435 71l99 532q-30 8 -79 8q-150 0 -234.5 -94.5t-84.5 -232.5
q0 -102 53.5 -162t168.5 -60q38 0 77 9z" />
    <glyph glyph-name="oe" unicode="&#x153;" horiz-adv-x="800" 
d="M713 90l12 -61q-64 -40 -155 -40q-60 0 -103 29t-59 85h-2q-32 -56 -82.5 -85t-107.5 -29q-82 0 -132 56.5t-50 143.5q0 124 74.5 215t185.5 91q61 0 102.5 -32t56.5 -86h2q32 56 85 87t109 31q70 0 104 -36t34 -83q0 -49 -26.5 -82t-76.5 -48.5t-99.5 -21t-117.5 -5.5
q-10 -52 10 -98q27 -64 109 -64q67 0 127 33zM231 55q49 0 89 40t60 94t20 106q0 58 -25.5 96t-82.5 38q-75 0 -123.5 -73.5t-48.5 -162.5q0 -61 30.5 -99.5t80.5 -38.5zM707 370q0 27 -19.5 43.5t-53.5 16.5q-57 0 -98.5 -44t-58.5 -104q51 1 85 4t71 11.5t55.5 26.5
t18.5 46z" />
    <glyph glyph-name="Sacute" unicode="&#x15a;" horiz-adv-x="465" 
d="M12 36l29 68q64 -43 144 -43q60 0 103 34t43 92q0 72 -99 127q-134 72 -134 172q0 89 65.5 143.5t161.5 54.5q87 0 139 -35l-30 -67q-56 32 -117 32q-60 0 -96.5 -33.5t-36.5 -77.5q0 -39 24.5 -66.5t79.5 -58.5q65 -35 97 -77.5t32 -102.5q0 -90 -66 -149.5t-177 -59.5
q-49 1 -94.5 14.5t-67.5 32.5zM366 828h108l-136 -117h-74z" />
    <glyph glyph-name="sacute" unicode="&#x15b;" horiz-adv-x="372" 
d="M8 22l24 62q49 -30 104 -30q42 0 67 23t25 56q0 28 -15 48t-52 41q-87 48 -87 124q0 64 49.5 106.5t125.5 42.5q65 0 101 -24l-24 -63q-35 22 -83 22q-38 0 -62.5 -21t-24.5 -52q0 -44 67 -81q91 -52 91 -127q0 -74 -53 -117t-132 -43q-76 1 -121 33zM289 686h100
l-133 -143h-65z" />
    <glyph glyph-name="uni015E" unicode="&#x15e;" horiz-adv-x="465" 
d="M464 649l-30 -67q-56 32 -117 32q-60 0 -96.5 -33.5t-36.5 -77.5q0 -39 24.5 -66.5t79.5 -58.5q65 -35 97 -77.5t32 -102.5q0 -76 -47.5 -131t-130.5 -72l-34 -46q25 -5 39.5 -22.5t14.5 -41.5q0 -41 -32.5 -63.5t-75.5 -22.5q-45 0 -66 18l18 43q21 -15 50 -15
q18 0 31 9.5t13 25.5q0 33 -65 39l50 70h-8q-49 1 -94.5 14.5t-67.5 32.5l29 68q64 -43 144 -43q60 0 103 34t43 92q0 72 -99 127q-134 72 -134 172q0 89 65.5 143.5t161.5 54.5q87 0 139 -35z" />
    <glyph glyph-name="uni015F" unicode="&#x15f;" horiz-adv-x="372" 
d="M350 471l-24 -63q-35 22 -83 22q-38 0 -62.5 -21t-24.5 -52q0 -44 67 -81q91 -52 91 -127q0 -60 -35.5 -100t-93.5 -54l-34 -46q24 -5 39 -22.5t15 -41.5q0 -40 -32 -63t-77 -23t-65 17l18 43q23 -14 52 -14q18 0 31 9.5t13 26.5q0 31 -66 39l49 69q-75 1 -120 33l24 62
q49 -30 104 -30q42 0 67 23t25 56q0 28 -15 48t-52 41q-87 48 -87 124q0 64 49.5 106.5t125.5 42.5q65 0 101 -24z" />
    <glyph glyph-name="Scaron" unicode="&#x160;" horiz-adv-x="465" 
d="M12 36l29 68q64 -43 144 -43q60 0 103 34t43 92q0 72 -99 127q-134 72 -134 172q0 89 65.5 143.5t161.5 54.5q87 0 139 -35l-30 -67q-56 32 -117 32q-60 0 -96.5 -33.5t-36.5 -77.5q0 -39 24.5 -66.5t79.5 -58.5q65 -35 97 -77.5t32 -102.5q0 -90 -66 -149.5t-177 -59.5
q-49 1 -94.5 14.5t-67.5 32.5zM349 710h-65l-80 117h70l46 -71h4l71 71h74z" />
    <glyph glyph-name="scaron" unicode="&#x161;" horiz-adv-x="372" 
d="M8 22l24 62q49 -30 104 -30q42 0 67 23t25 56q0 28 -15 48t-52 41q-87 48 -87 124q0 64 49.5 106.5t125.5 42.5q65 0 101 -24l-24 -63q-35 22 -83 22q-38 0 -62.5 -21t-24.5 -52q0 -44 67 -81q91 -52 91 -127q0 -74 -53 -117t-132 -43q-76 1 -121 33zM274 543h-60
l-70 143h63l42 -92h3l72 92h67z" />
    <glyph glyph-name="uni0162" unicode="&#x162;" horiz-adv-x="474" 
d="M80 674h477l-15 -72h-197l-114 -602h-13l-38 -51q25 -5 39 -22.5t14 -41.5q0 -41 -32 -63.5t-76 -22.5q-43 0 -66 18l18 43q23 -15 51 -15q18 0 30.5 9.5t12.5 25.5q0 33 -65 39l58 81h-16l114 602h-197z" />
    <glyph glyph-name="uni0163" unicode="&#x163;" horiz-adv-x="313" 
d="M207 419l-45 -235q-9 -50 -9 -78q0 -46 46 -46q28 0 39 3l-5 -65q-21 -9 -64 -9h-1l-29 -40q24 -5 39 -22.5t15 -41.5q0 -40 -32.5 -63t-77.5 -23q-43 0 -65 17l18 43q23 -14 52 -14q18 0 31 9.5t13 26.5q0 31 -66 39l55 77q-53 22 -53 86q0 41 10 91l48 245h-70l13 65
h69l21 109l86 21l-25 -130h115l-13 -65h-115z" />
    <glyph glyph-name="Tbar" unicode="&#x166;" horiz-adv-x="474" 
d="M542 602h-197l-44 -233h132l-13 -61h-131l-58 -308h-83l58 308h-125l12 61h125l44 233h-197l15 72h477z" />
    <glyph glyph-name="tbar" unicode="&#x167;" horiz-adv-x="313" 
d="M43 303h60l23 116h-70l13 65h69l21 109l86 21l-25 -130h115l-13 -65h-115l-22 -116h92l-10 -53h-92l-14 -74q-8 -42 -8 -70q0 -46 46 -46q28 0 39 3l-5 -65q-21 -9 -64 -9q-51 0 -76 27t-25 67q0 41 10 91l15 76h-60z" />
    <glyph glyph-name="Umacron" unicode="&#x16a;" horiz-adv-x="620" 
d="M158 674h83l-76 -400q-8 -43 -8 -84q0 -63 33.5 -96.5t91.5 -33.5q149 0 188 213l77 401h83l-77 -403q-55 -282 -282 -282q-88 -1 -142.5 49t-54.5 150q0 45 9 93zM297 792h236l-11 -59h-236z" />
    <glyph glyph-name="umacron" unicode="&#x16b;" horiz-adv-x="526" 
d="M417 484h83l-65 -344q-11 -55 -22 -140h-75l13 91h-2q-32 -48 -77.5 -75t-93.5 -27q-54 0 -90.5 32t-36.5 108q0 40 9 81l52 274h83l-51 -270q-9 -41 -9 -71q0 -84 77 -84q48 0 96 50t62 127zM225 644h220l-10 -58h-221z" />
    <glyph glyph-name="Ycircumflex" unicode="&#x176;" horiz-adv-x="516" 
d="M243 0h-82l53 280l-130 394h88l66 -218q20 -69 28 -113h2q19 33 72 116l146 215h97l-287 -394zM322 827h64l80 -117h-68l-49 71h-2l-72 -71h-74z" />
    <glyph glyph-name="ycircumflex" unicode="&#x177;" horiz-adv-x="441" 
d="M47 484h87l47 -261q18 -93 23 -127h2q2 5 19.5 46t31.5 73l124 269h88l-181 -368q-88 -177 -167 -255q-67 -67 -141 -83l-20 71q51 17 89 47q58 45 93 111q5 9 3 22zM262 686h60l69 -143h-62l-43 91h-2l-70 -91h-67z" />
    <glyph glyph-name="Ydieresis" unicode="&#x178;" horiz-adv-x="516" 
d="M243 0h-82l53 280l-130 394h88l66 -218q20 -69 28 -113h2q19 33 72 116l146 215h97l-287 -394zM250 721q-20 0 -33.5 14t-13.5 34q0 21 15.5 37t37.5 16q20 0 33.5 -15t13.5 -34q0 -22 -15.5 -37t-37.5 -15zM435 721q-20 0 -33.5 14t-13.5 34q0 21 15.5 37t36.5 16
t34 -14.5t13 -34.5q0 -22 -15 -37t-37 -15z" />
    <glyph glyph-name="Zdotaccent" unicode="&#x17b;" horiz-adv-x="523" 
d="M-20 0l10 51l457 548l-1 4h-320l14 71h432l-11 -54l-453 -546v-3h355l-14 -71h-469zM358 721q-20 0 -33.5 14t-13.5 34q0 21 15.5 37t37.5 16q20 0 33.5 -15t13.5 -34q0 -22 -15.5 -37t-37.5 -15z" />
    <glyph glyph-name="zdotaccent" unicode="&#x17c;" horiz-adv-x="415" 
d="M-21 0l9 51l235 261q32 35 100 101l1 3h-248l13 68h348l-11 -55l-232 -258q-46 -52 -100 -100v-4h268l-13 -67h-370zM277 569q-20 0 -33.5 14t-13.5 35q0 23 15 38.5t37 15.5q21 0 34 -14t13 -35q0 -23 -14.5 -38.5t-37.5 -15.5z" />
    <glyph glyph-name="Zcaron" unicode="&#x17d;" horiz-adv-x="523" 
d="M-20 0l10 51l457 548l-1 4h-320l14 71h432l-11 -54l-453 -546v-3h355l-14 -71h-469zM391 710h-65l-80 117h69l47 -71h4l71 71h74z" />
    <glyph glyph-name="zcaron" unicode="&#x17e;" horiz-adv-x="415" 
d="M-21 0l9 51l235 261q32 35 100 101l1 3h-248l13 68h348l-11 -55l-232 -258q-46 -52 -100 -100v-4h268l-13 -67h-370zM302 543h-60l-70 143h63l42 -92h3l72 92h67z" />
    <glyph glyph-name="uni0192" unicode="&#x192;" horiz-adv-x="509" 
d="M182 -18q30 -12 57 -12q29 0 42 19t12 52t-14 86l-54 213h-100l-13 63h96l-15 63q-10 40 -10.5 76t9.5 68.5t39 51.5t74 19q43 0 73 -14l4 -66q-28 11 -54 11q-48 0 -60 -42t6 -97l17 -70h123l13 -63h-119l54 -220q56 -217 -98 -217q-46 0 -79 15z" />
    <glyph glyph-name="Gcaron" unicode="&#x1e6;" horiz-adv-x="623" 
d="M588 352l-61 -323q-88 -36 -190 -36q-145 0 -220 84q-68 73 -68 197q0 86 34 168t97 139q116 100 278 100q105 0 159 -31l-28 -70q-55 29 -142 29q-120 0 -208 -82q-47 -44 -74 -111t-27 -136q0 -101 53 -158.5t162 -57.5q61 0 102 19l39 201h-137l13 68h218zM477 710
h-64l-80 117h69l47 -71h3l71 71h75z" />
    <glyph glyph-name="gcaron" unicode="&#x1e7;" horiz-adv-x="524" 
d="M10 -175l23 65q49 -32 128 -32q66 0 109.5 39.5t64.5 133.5l16 72h-3q-63 -103 -168 -103q-69 0 -108 49.5t-40 118.5q0 130 86.5 228.5t221.5 98.5q79 0 155 -34l-74 -400q-29 -158 -98 -216q-62 -54 -169 -54q-97 0 -144 34zM373 250l32 161q-30 17 -81 17
q-87 0 -146 -76.5t-59 -170.5q0 -48 21 -81.5t72 -33.5q52 0 100 56t61 128zM369 543h-60l-69 143h62l43 -92h3l71 92h67z" />
    <glyph glyph-name="uni0251" unicode="&#x251;" horiz-adv-x="522" 
d="M426 0h-77q-1 26 11 125h-3q-71 -136 -186 -136q-65 0 -102.5 44t-37.5 116q0 64 23 125t65 110.5t106.5 80t140.5 30.5q71 0 130 -19l-49 -252q-25 -129 -21 -224zM374 276l29 146q-21 7 -58 7q-92 0 -160 -81.5t-68 -184.5q0 -106 83 -106q54 0 105 62.5t69 156.5z" />
    <glyph glyph-name="uni0252" unicode="&#x252;" horiz-adv-x="522" 
d="M98 484h78q0 -41 -12 -125h3q71 136 188 136q63 0 100.5 -44.5t37.5 -115.5q0 -87 -38.5 -164.5t-117 -129.5t-178.5 -52q-70 0 -131 18l50 252q24 125 20 225zM150 208l-28 -146q21 -7 57 -7q92 0 160.5 81.5t68.5 183.5q0 46 -19.5 76t-63.5 30q-54 0 -105.5 -62
t-69.5 -156z" />
    <glyph glyph-name="uni0254" unicode="&#x254;" horiz-adv-x="423" 
d="M77 399l-9 65q58 30 140 30q90 0 138.5 -57t48.5 -142q0 -126 -81.5 -216t-209.5 -90q-68 0 -106 23l24 65q38 -18 83 -18q91 0 147.5 69t56.5 158q0 63 -31.5 101.5t-89.5 38.5q-57 0 -111 -27z" />
    <glyph glyph-name="uni0256" unicode="&#x256;" horiz-adv-x="525" 
d="M371 238l33 170q-32 21 -80 21q-85 0 -145.5 -77t-60.5 -176q0 -51 21 -85t70 -34q50 0 98.5 51.5t63.5 129.5zM512 -128l1 -67q-34 -13 -80 -13q-54 0 -86 28t-32 90q0 26 10 74l20 99h-2q-69 -94 -166 -94q-68 0 -106.5 49t-38.5 127q0 132 87 231t213 99q49 0 85 -17
l43 232h82l-137 -726q-6 -36 -6 -58q0 -64 59 -64q25 0 54 10z" />
    <glyph glyph-name="uni0259" unicode="&#x259;" horiz-adv-x="444" 
d="M86 394l-15 61q69 40 160 40q93 0 139 -54.5t46 -141.5q0 -116 -76 -213t-187 -97q-67 0 -105 35t-38 89q0 163 321 158q4 14 1.5 43t-10.5 48q-28 66 -107 66q-66 0 -129 -34zM165 54q55 0 98 45.5t59 107.5q-110 1 -171 -19t-61 -72q0 -30 20.5 -46t54.5 -16z" />
    <glyph glyph-name="uni025B" unicode="&#x25b;" horiz-adv-x="407" 
d="M320 227h-63q-64 0 -107.5 -25t-43.5 -73q0 -35 31.5 -55t81.5 -20q79 0 140 34l8 -61q-27 -16 -75 -27t-94 -11q-78 0 -129 31.5t-51 95.5q0 56 40 95.5t95 47.5v5q-80 20 -80 92q0 55 55.5 97t146.5 42t130 -34l-22 -55q-39 26 -109 26q-53 0 -85.5 -22.5t-32.5 -56.5
q0 -33 33.5 -50t89.5 -17h51z" />
    <glyph glyph-name="uni0261" unicode="&#x261;" horiz-adv-x="524" 
d="M10 -175l23 65q49 -32 128 -32q66 0 109.5 39.5t64.5 133.5l16 72h-3q-63 -103 -168 -103q-69 0 -108 49.5t-40 118.5q0 130 86.5 228.5t221.5 98.5q79 0 155 -34l-74 -400q-29 -158 -98 -216q-62 -54 -169 -54q-97 0 -144 34zM373 250l32 161q-30 17 -81 17
q-87 0 -146 -76.5t-59 -170.5q0 -48 21 -81.5t72 -33.5q52 0 100 56t61 128z" />
    <glyph glyph-name="uni0262" unicode="&#x262;" horiz-adv-x="514" 
d="M473 260l-46 -241q-74 -26 -155 -26q-115 0 -176 58q-61 55 -61 150q0 136 101 219q83 71 220 71q82 0 132 -24l-25 -66q-51 22 -116 22q-87 0 -149 -50q-36 -29 -56 -73.5t-20 -90.5q0 -75 43.5 -112t120.5 -37q46 0 72 12l24 127h-99l12 61h178z" />
    <glyph glyph-name="uni0263" unicode="&#x263;" horiz-adv-x="454" 
d="M485 484l-243 -418q26 -96 26 -133q0 -61 -36 -101.5t-96 -40.5q-49 0 -75.5 26t-26.5 68q0 28 15.5 63t30 57.5t46.5 67.5l-75 411h84l42 -256q3 -21 7 -46.5t6.5 -41t3.5 -27.5h2q17 41 53 106l146 265h90zM172 18h-3q-61 -89 -61 -121q0 -16 9 -26t25 -10
q19 0 33.5 17t14.5 47t-18 93z" />
    <glyph glyph-name="uni026A" unicode="&#x26a;" horiz-adv-x="263" 
d="M188 0h-201l12 64h58l69 355h-60l13 65h201l-13 -65h-59l-68 -355h59z" />
    <glyph glyph-name="uni0274" unicode="&#x274;" horiz-adv-x="536" 
d="M106 0h-78l92 484h93l109 -240q40 -96 48 -144h2q4 60 21 156l43 228h77l-92 -484h-81l-109 236q-38 86 -55 154h-3q-4 -52 -26 -169z" />
    <glyph glyph-name="uni0278" unicode="&#x278;" horiz-adv-x="618" 
d="M440 710l-41 -216q86 -9 137.5 -63.5t51.5 -142.5q0 -130 -82.5 -210.5t-203.5 -89.5l-36 -186h-78l36 188q-84 7 -136.5 61.5t-52.5 142.5q0 131 82 211.5t205 89.5l42 215h76zM236 52l74 382q-87 -9 -138.5 -76t-51.5 -160q0 -61 31 -100t85 -46zM387 433l-73 -383
q83 8 135.5 74t52.5 163q0 61 -31 100t-84 46z" />
    <glyph glyph-name="uni027D" unicode="&#x27d;" horiz-adv-x="319" 
d="M215 -128l1 -67q-33 -13 -79 -13q-121 0 -121 118q0 12 9 73l62 328q14 76 25 173h73q-8 -68 -13 -105h2q56 116 149 116q11 0 23 -2l-16 -82q-12 2 -23 2q-53 0 -96.5 -57t-59.5 -143l-43 -230q-6 -29 -6 -57q0 -64 59 -64q25 0 54 10z" />
    <glyph glyph-name="uni027E" unicode="&#x27e;" horiz-adv-x="319" 
d="M111 0h-83l59 315q17 91 67.5 135t124.5 44q39 0 68 -11l-17 -73q-24 8 -50 8q-41 0 -70.5 -27.5t-40.5 -84.5z" />
    <glyph glyph-name="uni0281" unicode="&#x281;" horiz-adv-x="449" 
d="M29 2l90 482h82l-39 -206h51q41 0 68.5 20.5t48.5 70.5q39 93 56 115h83q-15 -21 -65 -134q-37 -85 -96 -102v-2q34 -9 56 -36.5t22 -62.5q0 -73 -63 -117q-56 -40 -164 -40q-72 0 -130 12zM151 218l-31 -162q20 -5 56 -5q66 0 97 25.5t31 68.5q0 34 -24 53.5t-71 19.5
h-58z" />
    <glyph glyph-name="uni0283" unicode="&#x283;" horiz-adv-x="258" 
d="M-136 -190l20 68q29 -9 50 -9q73 0 93 107l108 566q33 179 176 179q42 0 70 -14l-22 -68q-23 10 -48 10q-74 0 -94 -108l-107 -567q-34 -178 -176 -178q-38 0 -70 14z" />
    <glyph glyph-name="uni0288" unicode="&#x288;" horiz-adv-x="313" 
d="M231 -128l2 -67q-33 -13 -79 -13q-119 0 -119 118q0 25 9 74l82 435h-70l13 65h69l21 109l86 21l-25 -130h115l-13 -65h-115l-81 -435q-7 -42 -7 -58q0 -64 59 -64q27 0 53 10z" />
    <glyph glyph-name="uni028A" unicode="&#x28a;" horiz-adv-x="527" 
d="M69 484h188l-7 -51q-61 -40 -95.5 -107.5t-34.5 -134.5q0 -64 32.5 -100t86.5 -36q78 0 124 68t46 146q0 56 -20 99t-49 65l8 51h189l-10 -64h-105l1 -3q27 -25 48.5 -68t21.5 -97q0 -100 -72.5 -181.5t-187.5 -81.5q-90 0 -144.5 50.5t-54.5 138.5q0 62 31 127.5
t92 111.5v3h-98z" />
    <glyph glyph-name="uni028B" unicode="&#x28b;" horiz-adv-x="537" 
d="M309 420l-1 66q35 7 61 7q69 0 103.5 -47t34.5 -121q0 -78 -35 -154.5t-103.5 -129t-152.5 -52.5q-72 0 -118 37.5t-46 113.5q0 30 10 83l50 261h83l-51 -268q-8 -42 -8 -70q0 -40 23.5 -64.5t66.5 -24.5q54 0 100 42t70.5 102t24.5 117q0 46 -19 76t-58 30q-16 0 -35 -4
z" />
    <glyph glyph-name="uni0292" unicode="&#x292;" horiz-adv-x="476" 
d="M-65 -168l26 65q54 -38 141 -38q84 0 143 47.5t59 121.5q0 126 -170 126h-24l9 43l212 219h-268l13 68h372l-11 -53l-213 -220q72 -11 119.5 -54.5t47.5 -120.5q0 -105 -81.5 -175.5t-208.5 -70.5q-108 0 -166 42z" />
    <glyph glyph-name="uni0294" unicode="&#x294;" horiz-adv-x="421" 
d="M161 0h-84l68 356q104 24 162 73.5t58 116.5q0 50 -31.5 78t-87.5 28q-69 0 -137 -34l-17 62q77 41 169 41q88 0 140.5 -44.5t52.5 -121.5q0 -87 -65 -151.5t-169 -95.5z" />
    <glyph glyph-name="uni0295" unicode="&#x295;" horiz-adv-x="421" 
d="M238 0h-84l64 310q-150 52 -150 185q0 99 76.5 162.5t189.5 63.5q88 0 141 -32l-26 -65q-49 28 -120 28q-77 0 -126 -42.5t-49 -107.5q0 -105 157 -146z" />
    <glyph glyph-name="uni02A4" unicode="&#x2a4;" horiz-adv-x="887" 
d="M858 484l-10 -53l-214 -220q73 -11 120.5 -54.5t47.5 -120.5q0 -105 -81.5 -175.5t-209.5 -70.5q-109 0 -165 42l26 65q54 -38 141 -38q84 0 143 47.5t59 121.5q0 126 -170 126h-24l9 43l212 219h-256l-49 -262q-17 -84 -21 -154h-76l13 96h-2q-68 -107 -174 -107
q-68 0 -106.5 49t-38.5 127q0 132 87 231t213 99q49 0 85 -17l43 232h82l-43 -226h359zM371 238l33 170q-32 21 -80 21q-85 0 -145.5 -77t-60.5 -176q0 -51 21 -85t70 -34q50 0 98.5 51.5t63.5 129.5z" />
    <glyph glyph-name="uni02A7" unicode="&#x2a7;" horiz-adv-x="526" 
d="M392 484l11 58q34 179 176 179q42 0 70 -14l-21 -68q-25 10 -50 10q-72 0 -93 -108l-107 -567q-34 -178 -176 -178q-38 0 -70 14l21 68q27 -9 49 -9q73 0 93 107l85 443h-173l-45 -235q-9 -50 -9 -78q0 -46 43 -46q26 0 36 3l-5 -66q-22 -8 -58 -8q-51 0 -76 27t-25 67
q0 41 10 91l48 245h-70l13 65h69l21 109l86 21l-25 -130h172z" />
    <glyph glyph-name="uni02B1" unicode="&#x2b1;" horiz-adv-x="367" 
d="M121 266h-64l65 347q24 126 134 126q30 0 56 -10l-17 -49q-14 7 -34 7q-62 0 -77 -78l-14 -79h1q45 61 113 61q39 0 62 -22.5t23 -65.5q0 -22 -6 -52l-34 -185h-64l34 182q4 30 4 41q0 51 -48 51q-34 0 -65 -33.5t-41 -83.5z" />
    <glyph glyph-name="uni02B9" unicode="&#x2b9;" horiz-adv-x="166" 
d="M161 692h86l-122 -242h-54z" />
    <glyph glyph-name="uni02BE" unicode="&#x2be;" horiz-adv-x="206" 
d="M127 669l9 51q52 0 81.5 -27.5t29.5 -71.5q0 -57 -43.5 -94t-111.5 -37l10 52q36 1 57.5 22.5t21.5 51.5q0 24 -13.5 38.5t-40.5 14.5z" />
    <glyph glyph-name="uni02BF" unicode="&#x2bf;" horiz-adv-x="206" 
d="M227 541l-9 -51q-52 0 -81.5 27.5t-29.5 71.5q0 57 43.5 94t111.5 37l-10 -52q-35 -1 -57 -22.5t-22 -51.5q0 -24 13.5 -38.5t40.5 -14.5z" />
    <glyph glyph-name="circumflex" unicode="&#x2c6;" horiz-adv-x="383" 
d="M244 686h60l69 -143h-62l-43 91h-2l-70 -91h-67z" />
    <glyph glyph-name="caron" unicode="&#x2c7;" horiz-adv-x="383" 
d="M284 543h-60l-70 143h63l42 -92h3l72 92h67z" />
    <glyph glyph-name="uni02C8" unicode="&#x2c8;" horiz-adv-x="300" 
d="M203 713h62l-26 -144h-61z" />
    <glyph glyph-name="uni02CC" unicode="&#x2cc;" horiz-adv-x="300" 
d="M62 -90h63l-26 -147h-62z" />
    <glyph glyph-name="uni02D0" unicode="&#x2d0;" horiz-adv-x="221" 
d="M79 484h163l-106 -132h-3zM148 0h-163l104 131h4z" />
    <glyph glyph-name="breve" unicode="&#x2d8;" horiz-adv-x="383" 
d="M158 683h51q-2 -30 12.5 -49.5t42.5 -19.5q62 0 79 69h53q-10 -55 -46 -88t-88 -33q-61 0 -86 35t-18 86z" />
    <glyph glyph-name="dotaccent" unicode="&#x2d9;" horiz-adv-x="383" 
d="M262 569q-20 0 -33.5 14t-13.5 35q0 23 15 38.5t37 15.5q21 0 34 -14t13 -35q0 -23 -14.5 -38.5t-37.5 -15.5z" />
    <glyph glyph-name="ring" unicode="&#x2da;" horiz-adv-x="384" 
d="M272 720q41 0 68 -25t27 -66q-1 -42 -31.5 -68.5t-72.5 -26.5q-41 0 -68 25t-28 63q-1 42 29.5 70t75.5 28zM268 683q-22 0 -36.5 -16.5t-14.5 -42.5q0 -21 13.5 -36.5t34.5 -15.5q22 0 36.5 16.5t14.5 42.5q0 22 -13 37t-35 15z" />
    <glyph glyph-name="ogonek" unicode="&#x2db;" horiz-adv-x="383" 
d="M137 2h62q-29 -23 -51 -54.5t-22 -57.5q0 -37 37 -37q23 0 45 10l9 -45q-35 -24 -82 -24q-36 0 -57 20t-21 53q0 61 80 135z" />
    <glyph glyph-name="tilde" unicode="&#x2dc;" horiz-adv-x="383" 
d="M185 568h-50q5 47 26 75.5t54 28.5q24 0 63 -23q32 -17 41 -17q13 0 20 9t11 34h49q-14 -101 -79 -101q-33 0 -62 22q-28 18 -43 18q-21 0 -30 -46z" />
    <glyph glyph-name="hungarumlaut" unicode="&#x2dd;" horiz-adv-x="383" 
d="M242 685h88l-126 -143h-55zM387 685h88l-126 -143h-55z" />
    <glyph glyph-name="uni02E4" unicode="&#x2e4;" horiz-adv-x="292" 
d="M211 266h-64l41 201q-104 34 -104 124q0 65 53.5 106.5t130.5 41.5q57 0 99 -21l-19 -49q-34 19 -83 19q-51 0 -82.5 -26.5t-31.5 -67.5q0 -66 107 -94z" />
    <glyph glyph-name="gravecomb" unicode="&#x300;" 
d="M-66 686h94l66 -143h-59z" />
    <glyph glyph-name="acutecomb" unicode="&#x301;" 
d="M106 686h100l-133 -143h-66z" />
    <glyph glyph-name="uni0302" unicode="&#x302;" 
d="M48 686h59l69 -143h-62l-42 91h-2l-70 -91h-67z" />
    <glyph glyph-name="tildecomb" unicode="&#x303;" 
d="M-17 568h-50q5 47 26 75.5t54 28.5q26 0 63 -23q32 -17 41 -17q13 0 20 9t12 34h48q-12 -101 -79 -101q-30 0 -63 22q-26 18 -41 18q-22 0 -31 -46z" />
    <glyph glyph-name="uni0304" unicode="&#x304;" 
d="M-37 644h220l-11 -58h-220z" />
    <glyph glyph-name="uni0306" unicode="&#x306;" 
d="M-39 683h51q-2 -30 12.5 -49.5t42.5 -19.5q62 0 79 69h53q-9 -55 -45.5 -88t-88.5 -33q-62 0 -86.5 35t-17.5 86z" />
    <glyph glyph-name="uni0307" unicode="&#x307;" 
d="M65 569q-20 0 -33.5 14t-13.5 35q0 23 15.5 38.5t37.5 15.5q21 0 34 -14t13 -35q0 -23 -14.5 -38.5t-38.5 -15.5z" />
    <glyph glyph-name="uni0308" unicode="&#x308;" 
d="M-29 570q-21 0 -34 14t-13 35q0 22 15 37.5t37 15.5q21 0 34 -14t13 -35q0 -23 -15 -38t-37 -15zM153 570q-20 0 -33 14t-13 35q0 23 15 38t37 15q21 0 34 -14t13 -35q0 -23 -14.5 -38t-38.5 -15z" />
    <glyph glyph-name="uni030A" unicode="&#x30a;" 
d="M75 720q41 0 68 -25t27 -66q0 -42 -31 -68.5t-73 -26.5q-40 0 -67.5 25t-27.5 63q-1 43 28.5 70.5t75.5 27.5zM71 683q-22 0 -36.5 -16.5t-14.5 -42.5q0 -21 13.5 -36.5t34.5 -15.5q22 0 37 16.5t15 42.5q0 22 -13.5 37t-35.5 15z" />
    <glyph glyph-name="uni030B" unicode="&#x30b;" 
d="M35 685h88l-126 -143h-55zM180 685h87l-125 -143h-56z" />
    <glyph glyph-name="uni030C" unicode="&#x30c;" 
d="M86 543h-60l-69 143h62l43 -92h3l71 92h67z" />
    <glyph glyph-name="dotbelowcomb" unicode="&#x323;" 
d="M-69 -183q-20 0 -33.5 14t-13.5 35q0 22 15.5 38t36.5 16q22 0 35 -14t13 -35q0 -23 -15 -38.5t-38 -15.5z" />
    <glyph glyph-name="uni0324" unicode="&#x324;" 
d="M-162 -182q-20 0 -33.5 13.5t-13.5 34.5q0 23 15 38.5t37 15.5q21 0 34.5 -14t13.5 -35q0 -23 -15 -38t-38 -15zM21 -182q-20 0 -33 13.5t-13 34.5q0 23 15 38.5t37 15.5q21 0 33.5 -14t12.5 -35q0 -23 -14 -38t-38 -15z" />
    <glyph glyph-name="uni0327" unicode="&#x327;" 
d="M-5 10l-43 -60q54 -14 54 -64q0 -40 -32 -63t-77 -23q-41 0 -66 17l19 43q22 -15 52 -15q18 0 31 9.5t13 26.5q0 31 -67 39l63 90h53z" />
    <glyph glyph-name="uni032A" unicode="&#x32a;" 
d="M-198 -211l21 122h236l-22 -122h-52l13 71h-132l-13 -71h-51z" />
    <glyph glyph-name="uni032E" unicode="&#x32e;" 
d="M-175 -82h50q-2 -29 13 -48.5t43 -19.5q60 0 79 68h52q-9 -55 -45 -87.5t-88 -32.5q-62 0 -87 35t-17 85z" />
    <glyph glyph-name="uni0330" unicode="&#x330;" 
d="M-139 -191h-50q6 47 26.5 75.5t53.5 28.5q23 0 63 -22q27 -18 42 -18q13 0 19.5 9t10.5 34h50q-14 -101 -81 -101q-30 0 -61 22q-28 18 -43 18q-23 0 -30 -46z" />
    <glyph glyph-name="uni0331" unicode="&#x331;" 
d="M-167 -103h220l-12 -58h-219z" />
    <glyph glyph-name="uni035F" unicode="&#x35f;" 
d="M-176 -103h747l-10 -59h-748z" />
    <glyph glyph-name="uni0361" unicode="&#x361;" 
d="M698 563h-76q-96 94 -291 94q-193 0 -326 -94h-75q57 62 163.5 107t248.5 45q141 0 229.5 -44.5t126.5 -107.5z" />
    <glyph glyph-name="theta" unicode="&#x3b8;" horiz-adv-x="515" 
d="M222 -11q-83 0 -130.5 61t-47.5 176q0 84 21 175q30 139 100.5 229.5t172.5 90.5q81 0 126.5 -62.5t45.5 -163.5q0 -75 -15 -147q-31 -164 -99 -261.5t-174 -97.5zM148 398h272q8 45 8 103q0 71 -25.5 114t-74.5 43q-66 0 -112.5 -73.5t-67.5 -186.5zM408 335h-272
q-11 -72 -11 -118q0 -78 28.5 -122t75.5 -44q127 0 179 284z" />
    <glyph glyph-name="pi" unicode="&#x3c0;" horiz-adv-x="528" 
d="M532 417h-68l-49 -270q-19 -104 -14 -147h-79q-11 29 9 139l51 278h-151q-12 -55 -24 -100q-64 -241 -120 -317h-81q65 104 119 314q12 40 26 103q-71 0 -102 -10l-2 50q33 27 137 27h364z" />
    <glyph glyph-name="chi" unicode="&#x3c7;" horiz-adv-x="423" 
d="M47 484h87l47 -157q26 -94 30 -110h5q44 75 66 109q12 20 98 158h86q-74 -112 -224 -336l111 -341l-79 -21l-50 160q-21 69 -41 139h-4q-9 -15 -29.5 -48t-31.5 -52q-21 -33 -61.5 -99.5t-61.5 -99.5l-70 28q115 175 229 345z" />
    <glyph glyph-name="uni060C" unicode="&#x60c;" horiz-adv-x="364" 
d="M341 291q-53 -28 -82 -71.5t-27 -87.5q46 11 79 -9.5t33 -62.5q0 -30 -22.5 -52t-53.5 -22q-44 0 -72 36t-28 101q0 66 37.5 123.5t85.5 83.5z" />
    <glyph glyph-name="uni0615" unicode="&#x615;" 
d="M-57 791l-38 51l58 -3q7 26 -7 77l-43 158l44 3l28 -108q10 -30 10 -58q32 63 83 63q36 0 59 -24.5t23 -60.5q0 -48 -44.5 -73t-108.5 -25h-64zM0 839q63 0 91 14.5t28 35.5q0 15 -11 26t-29 11q-49 0 -79 -87z" />
    <glyph glyph-name="uni061B" unicode="&#x61b;" horiz-adv-x="378" 
d="M290 557q-49 -25 -74 -58.5t-24 -65.5q42 10 72.5 -9t30.5 -59q0 -27 -21 -47.5t-51 -20.5q-39 0 -65 31t-26 88t33 105.5t80 71.5zM282 -12q-36 0 -60 24.5t-24 63.5q0 31 19.5 51t51.5 20q35 0 59.5 -25t24.5 -60q0 -33 -19.5 -53.5t-51.5 -20.5z" />
    <glyph glyph-name="uni061F" unicode="&#x61f;" horiz-adv-x="459" 
d="M335 193h-73q-4 90 -89 172q-35 34 -51 51t-37 44t-29 51.5t-8 52.5q0 51 35 86t106 35q86 0 146 -36l-10 -65q-55 34 -115 34q-38 0 -58 -19t-20 -51q0 -36 23.5 -69t81.5 -90q91 -86 98 -196zM333 -11q-27 0 -45.5 19t-19.5 46q-1 26 14.5 43t40.5 17q27 0 45 -19.5
t19 -47.5q1 -24 -14.5 -41t-39.5 -17z" />
    <glyph glyph-name="uni0621" unicode="&#x621;" horiz-adv-x="473" 
d="M160 37v60q31 19 68 27q-80 41 -80 113q0 51 40 84t100 33q70 0 109 -30l4 -67q-49 31 -104 31q-41 0 -63 -16.5t-22 -43.5q0 -42 52 -65.5t125 -22.5h78l1 -66h-81q-88 0 -137.5 -6.5t-89.5 -30.5z" />
    <glyph glyph-name="uni0622" unicode="&#x622;" horiz-adv-x="248" 
d="M193 0l-174 720l69 5l176 -725h-71zM84 814q-24 0 -64 12.5t-56 12.5q-29 0 -27 -47l-47 15q-7 40 7.5 64.5t53.5 24.5q25 0 68 -13t63 -13q33 0 62 33l19 -43q-8 -21 -29.5 -33.5t-49.5 -12.5z" />
    <glyph glyph-name="uni0623" unicode="&#x623;" horiz-adv-x="248" 
d="M193 0l-174 720l69 5l176 -725h-71zM-67 790l-3 46q15 11 43 11q-49 28 -49 73q0 34 26.5 55t63.5 21q52 0 85 -27l-6 -45q-35 23 -78 23q-21 0 -32 -9.5t-11 -22.5q0 -24 29 -41.5t72 -17.5h64l-10 -49h-63q-93 0 -131 -17z" />
    <glyph glyph-name="uni0624" unicode="&#x624;" horiz-adv-x="497" 
d="M337 536h-63q-93 0 -131 -17l-3 46q15 11 43 11q-49 28 -49 73q0 34 26.5 55t63.5 21q52 0 85 -27l-6 -45q-35 23 -78 23q-21 0 -32 -9.5t-11 -22.5q0 -24 29 -41.5t72 -17.5h64zM149 -173l1 56q58 -28 128 -28q85 0 133.5 61t55.5 149q-30 -6 -72 -6q-92 0 -153.5 48
t-61.5 135q0 63 40.5 109t97.5 46q97 0 154.5 -91t57.5 -212q0 -138 -66 -227t-173 -89q-86 0 -142 49zM391 139q50 0 74 7q-12 90 -56 136t-89 46q-37 0 -57.5 -24t-20.5 -58q0 -54 44 -80.5t105 -26.5z" />
    <glyph glyph-name="uni0625" unicode="&#x625;" horiz-adv-x="248" 
d="M193 0l-174 720l69 5l176 -725h-71zM188 -277l-2 46q12 10 42 12q-49 26 -49 73q0 33 27 54t64 21q52 0 84 -26l-5 -46q-37 23 -79 23q-21 0 -31.5 -9.5t-10.5 -22.5q0 -24 28.5 -41.5t71.5 -17.5h64l-9 -49h-64q-93 0 -131 -17z" />
    <glyph glyph-name="uni0626" unicode="&#x626;" horiz-adv-x="713" 
d="M131 124q0 57 11 103l54 -7q-4 -67 -3 -82q2 -71 28.5 -123.5t67.5 -80t84 -40t87 -12.5q68 0 122 22.5t82 59.5q22 33 22 53q0 25 -22 40.5t-93 38.5l-59 19q-74 23 -104.5 50.5t-30.5 89.5q0 67 47 126q25 33 63.5 54t78.5 21q39 0 74 -22t54 -69l-36 -53
q-37 70 -100 70q-49 0 -84.5 -39.5t-35.5 -82.5q0 -25 17.5 -38t69.5 -30l78 -26q39 -13 59 -21t43.5 -23.5t33.5 -36.5t10 -51q0 -54 -36 -108q-38 -54 -106 -87.5t-145 -33.5q-153 0 -242 85t-89 234zM77 366l-3 46q15 11 43 11q-49 28 -49 73q0 34 26.5 55t63.5 21
q52 0 85 -27l-6 -45q-35 23 -78 23q-21 0 -32 -9.5t-11 -22.5q0 -24 29 -41.5t72 -17.5h64l-10 -49h-63q-93 0 -131 -17z" />
    <glyph glyph-name="uni0627" unicode="&#x627;" horiz-adv-x="248" 
d="M193 0l-174 720l69 5l176 -725h-71z" />
    <glyph glyph-name="uni0628" unicode="&#x628;" horiz-adv-x="883" 
d="M93 294q0 34 6 68l55 -8q-2 -28 -2 -37q0 -130 83.5 -193.5t257.5 -63.5q227 0 346 53q-8 94 -124 253l65 20q51 -65 88.5 -147t37.5 -156q0 -17 -2 -27q-161 -77 -400 -77q-116 0 -198 23t-127.5 67t-65.5 98.5t-20 126.5zM603 -249q-25 0 -41.5 17t-16.5 43q0 19 12 32
t31 13q26 0 42.5 -17.5t16.5 -43.5q0 -18 -12.5 -31t-31.5 -13z" />
    <glyph glyph-name="uni0629" unicode="&#x629;" horiz-adv-x="442" 
d="M157 617q0 -18 -12 -30.5t-31 -12.5q-25 0 -40.5 16t-15.5 42q0 19 11.5 31.5t29.5 12.5q26 0 42 -17t16 -42zM243 574q-25 0 -41 16.5t-16 41.5q0 19 12 31.5t30 12.5q26 0 41.5 -17t15.5 -42q0 -18 -12 -30.5t-30 -12.5zM151 427l34 58q127 -78 192 -145
q86 -89 86 -186q0 -74 -46.5 -118t-111.5 -44q-90 0 -144.5 63t-54.5 151q0 86 71 206q-5 3 -13.5 8t-12.5 7zM300 77q49 0 74.5 29.5t25.5 60.5q0 94 -170 210q-62 -95 -62 -166q0 -58 39.5 -96t92.5 -38z" />
    <glyph glyph-name="uni062A" unicode="&#x62a;" horiz-adv-x="883" 
d="M93 294q0 34 6 68l55 -8q-2 -28 -2 -37q0 -130 83.5 -193.5t257.5 -63.5q227 0 346 53q-8 94 -124 253l65 20q51 -65 88.5 -147t37.5 -156q0 -17 -2 -27q-161 -77 -400 -77q-116 0 -198 23t-127.5 67t-65.5 98.5t-20 126.5zM378 422q-25 0 -40.5 16t-15.5 42
q0 19 11.5 31.5t29.5 12.5q26 0 42 -17t16 -42q0 -18 -12 -30.5t-31 -12.5zM507 422q-25 0 -40.5 16t-15.5 42q0 19 11.5 31.5t29.5 12.5q26 0 42 -17t16 -42q0 -18 -12 -30.5t-31 -12.5z" />
    <glyph glyph-name="uni062B" unicode="&#x62b;" horiz-adv-x="883" 
d="M93 294q0 34 6 68l55 -8q-2 -28 -2 -37q0 -130 83.5 -193.5t257.5 -63.5q227 0 346 53q-8 94 -124 253l65 20q51 -65 88.5 -147t37.5 -156q0 -17 -2 -27q-161 -77 -400 -77q-116 0 -198 23t-127.5 67t-65.5 98.5t-20 126.5zM421 541q-25 0 -41 16.5t-16 41.5q0 19 12 31
t30 12q26 0 41.5 -16.5t15.5 -42.5q0 -18 -12 -30t-30 -12zM378 422q-25 0 -40.5 16t-15.5 42q0 19 11.5 31.5t29.5 12.5q26 0 42 -17t16 -42q0 -18 -12 -30.5t-31 -12.5zM507 422q-25 0 -40.5 16t-15.5 42q0 19 11.5 31.5t29.5 12.5q26 0 42 -17t16 -42q0 -18 -12 -30.5
t-31 -12.5z" />
    <glyph glyph-name="uni062C" unicode="&#x62c;" horiz-adv-x="645" 
d="M162 -48q0 64 29 118t76 88.5t97 55.5t102 30q-1 0 -54 19.5t-96.5 30t-82.5 10.5q-91 0 -139 -25l11 79q48 22 115 22q38 0 81.5 -9t67 -16.5t75.5 -27.5t62 -24q67 -24 102 -24l53 -1l-17 -82q-19 3 -64 3q-55 0 -118 -15q-100 -26 -159.5 -84.5t-59.5 -144.5
q0 -87 53 -148.5t135 -89t185 -27.5q92 0 154 15l-21 -72q-40 -17 -150 -17q-190 0 -313.5 90.5t-123.5 245.5zM518 -101q-25 -1 -41 16t-16 43q0 19 12 32t30 13q27 0 43 -17t16 -44q0 -18 -12.5 -30.5t-31.5 -12.5z" />
    <glyph glyph-name="uni062D" unicode="&#x62d;" horiz-adv-x="645" 
d="M162 -48q0 64 29 118t76 88.5t97 55.5t102 30q-1 0 -54 19.5t-96.5 30t-82.5 10.5q-91 0 -139 -25l11 79q48 22 115 22q38 0 81.5 -9t67 -16.5t75.5 -27.5t62 -24q67 -24 102 -24l53 -1l-17 -82q-19 3 -64 3q-55 0 -118 -15q-100 -26 -159.5 -84.5t-59.5 -144.5
q0 -87 53 -148.5t135 -89t185 -27.5q92 0 154 15l-21 -72q-40 -17 -150 -17q-190 0 -313.5 90.5t-123.5 245.5z" />
    <glyph glyph-name="uni062E" unicode="&#x62e;" horiz-adv-x="645" 
d="M162 -48q0 64 29 118t76 88.5t97 55.5t102 30q-1 0 -54 19.5t-96.5 30t-82.5 10.5q-91 0 -139 -25l11 79q48 22 115 22q38 0 81.5 -9t67 -16.5t75.5 -27.5t62 -24q67 -24 102 -24l53 -1l-17 -82q-19 3 -64 3q-55 0 -118 -15q-100 -26 -159.5 -84.5t-59.5 -144.5
q0 -87 53 -148.5t135 -89t185 -27.5q92 0 154 15l-21 -72q-40 -17 -150 -17q-190 0 -313.5 90.5t-123.5 245.5zM352 508q-25 -1 -41.5 16t-16.5 44q0 19 12 31.5t30 12.5q27 0 43.5 -17t16.5 -44q0 -18 -12.5 -30.5t-31.5 -12.5z" />
    <glyph glyph-name="uni062F" unicode="&#x62f;" horiz-adv-x="480" 
d="M158 21l-32 82q57 -18 158 -18q116 0 155 35q-11 68 -79 151.5t-202 150.5l51 55q111 -55 193.5 -149t102.5 -196q8 -38 6 -58q-61 -74 -215 -74q-89 0 -138 21z" />
    <glyph glyph-name="uni0630" unicode="&#x630;" horiz-adv-x="480" 
d="M158 21l-32 82q57 -18 158 -18q116 0 155 35q-11 68 -79 151.5t-202 150.5l51 55q111 -55 193.5 -149t102.5 -196q8 -38 6 -58q-61 -74 -215 -74q-89 0 -138 21zM170 606q-25 -1 -41.5 16t-16.5 44q0 19 12 31.5t30 12.5q27 0 43.5 -17t16.5 -44q0 -18 -12.5 -30.5
t-31.5 -12.5z" />
    <glyph glyph-name="uni0631" unicode="&#x631;" horiz-adv-x="458" 
d="M157 -113q53 -30 122 -30q43 0 85 29.5t60 92.5q7 21 7 43q0 105 -158 327l66 31q61 -85 108 -184t47 -175q0 -34 -5 -56q-16 -84 -70.5 -135t-122.5 -51q-90 0 -139 47v61z" />
    <glyph glyph-name="uni0632" unicode="&#x632;" horiz-adv-x="458" 
d="M158 -113q52 -30 122 -30q43 0 85 29.5t60 92.5q7 25 7 43q0 105 -158 327l66 31q61 -85 107.5 -183.5t46.5 -175.5q0 -40 -5 -56q-15 -84 -69.5 -135t-122.5 -51q-92 0 -139 47v61zM244 499q-25 -1 -41 16t-16 44q0 19 12 31.5t30 12.5q27 0 43 -17t16 -44
q0 -18 -12.5 -30.5t-31.5 -12.5z" />
    <glyph glyph-name="uni0633" unicode="&#x633;" horiz-adv-x="1020" 
d="M142 91q0 62 13 101l55 -9q-6 -25 -6 -61q0 -125 61.5 -189.5t148.5 -64.5q77 0 123 36t51 96q1 12 -3 34q-25 88 -104 211l62 25q42 -62 80 -151q17 -39 61 -39q42 0 63 30t18 104l58 3q-1 -10 -1 -24q1 -112 85 -112q29 0 47 17.5t18 47.5q0 62 -58 138l65 21
q22 -31 39 -78t17 -88q0 -63 -35.5 -101t-88.5 -38q-45 0 -69.5 18.5t-45.5 52.5q-24 -71 -102 -71q-25 0 -46 13q2 -13 -1 -40q-10 -86 -76 -137t-156 -51q-125 0 -199 86t-74 220z" />
    <glyph glyph-name="uni0634" unicode="&#x634;" horiz-adv-x="1004" 
d="M142 91q0 62 13 101l55 -9q-6 -25 -6 -61q0 -125 61.5 -189.5t148.5 -64.5q77 0 123 36t51 96q1 12 -3 34q-25 88 -104 211l62 25q42 -62 80 -151q17 -39 61 -39q42 0 63 30t18 104l58 3q-1 -10 -1 -24q1 -112 85 -112q29 0 47 17.5t18 47.5q0 62 -58 138l65 21
q22 -31 39 -78t17 -88q0 -63 -35.5 -101t-88.5 -38q-45 0 -69.5 18.5t-45.5 52.5q-24 -71 -102 -71q-25 0 -46 13q2 -13 -1 -40q-10 -86 -76 -137t-156 -51q-125 0 -199 86t-74 220zM713 507q-25 0 -40.5 16t-15.5 42q0 19 11.5 31t29.5 12q27 0 42.5 -16.5t15.5 -42.5
q0 -18 -12 -30t-31 -12zM670 388q-25 0 -40.5 16t-15.5 42q0 19 12 31.5t29 12.5q26 0 42 -17t16 -42q0 -18 -12 -30.5t-31 -12.5zM799 388q-25 0 -40.5 16t-15.5 42q0 19 12 31.5t29 12.5q26 0 42 -17t16 -42q0 -18 -12 -30.5t-31 -12.5z" />
    <glyph glyph-name="uni0635" unicode="&#x635;" horiz-adv-x="1198" 
d="M645 -33q-8 -82 -75.5 -135.5t-155.5 -53.5q-127 0 -201 83t-74 216q0 51 10 87l54 -10q-3 -30 -3 -57q0 -117 60 -176.5t151 -59.5q75 0 121.5 37.5t51.5 91.5q0 30 -3 44q-17 73 -97 201l65 27q49 -86 70 -112.5t53 -42.5q21 47 48.5 90t66.5 87.5t91 71t109 26.5
q98 0 163.5 -62t65.5 -150q0 -86 -78 -130q-78 -47 -237 -47q-183 0 -260 51q7 -56 4 -77zM733 91q57 -17 163 -17q110 0 183 22q74 23 74 77t-45.5 94.5t-120.5 40.5q-69 0 -135.5 -53t-118.5 -164z" />
    <glyph glyph-name="uni0636" unicode="&#x636;" horiz-adv-x="1198" 
d="M645 -33q-8 -82 -75.5 -135.5t-155.5 -53.5q-127 0 -201 83t-74 216q0 51 10 87l54 -10q-3 -30 -3 -57q0 -117 60 -176.5t151 -59.5q75 0 121.5 37.5t51.5 91.5q0 30 -3 44q-17 73 -97 201l65 27q49 -86 70 -112.5t53 -42.5q21 47 48.5 90t66.5 87.5t91 71t109 26.5
q98 0 163.5 -62t65.5 -150q0 -86 -78 -130q-78 -47 -237 -47q-183 0 -260 51q7 -56 4 -77zM733 91q57 -17 163 -17q110 0 183 22q74 23 74 77t-45.5 94.5t-120.5 40.5q-69 0 -135.5 -53t-118.5 -164zM808 513q-25 -1 -41.5 16t-16.5 44q0 19 12 31.5t30 12.5q27 0 43.5 -17
t16.5 -44q0 -18 -12.5 -30.5t-31.5 -12.5z" />
    <glyph glyph-name="uni0637" unicode="&#x637;" horiz-adv-x="750" 
d="M141 13l-47 85q50 -14 126 -14q13 32 18 50q6 26 -13 98l-117 488l68 5l89 -369q27 -111 30 -145q44 75 108.5 123t140.5 48q97 0 164 -62.5t67 -145.5q0 -94 -100 -136q-85 -38 -350 -38q-114 0 -184 13zM289 84h31q246 0 315 23q77 24 77 73q0 47 -47 87.5t-118 40.5
q-158 0 -258 -224z" />
    <glyph glyph-name="uni0638" unicode="&#x638;" horiz-adv-x="750" 
d="M141 13l-47 85q50 -14 126 -14q13 32 18 50q6 26 -13 98l-117 488l68 5l89 -369q27 -111 30 -145q44 75 108.5 123t140.5 48q97 0 164 -62.5t67 -145.5q0 -94 -100 -136q-85 -38 -350 -38q-114 0 -184 13zM289 84h31q246 0 315 23q77 24 77 73q0 47 -47 87.5t-118 40.5
q-158 0 -258 -224zM457 513q-25 -1 -41.5 16t-16.5 44q0 19 12 31.5t30 12.5q27 0 43.5 -17t16.5 -44q0 -18 -12.5 -30.5t-31.5 -12.5z" />
    <glyph glyph-name="uni0639" unicode="&#x639;" horiz-adv-x="547" 
d="M152 -79q0 60 32 113.5t86 91.5q-74 32 -111 82t-37 110q0 69 49.5 117t129.5 48t131 -35l20 -74q-63 36 -139 36q-66 0 -96.5 -30t-30.5 -70q0 -51 42.5 -87.5t99.5 -46.5q8 0 37 9.5t81 27.5t94 31l4 -85q-80 -19 -179 -57q-70 -30 -105.5 -78t-35.5 -103q0 -27 8 -55
t30 -60.5t56.5 -57t92.5 -41t132 -16.5q114 0 188 27l-16 -71q-63 -31 -180 -31q-171 0 -277 81.5t-106 223.5z" />
    <glyph glyph-name="uni063A" unicode="&#x63a;" horiz-adv-x="547" 
d="M152 -79q0 60 32 113.5t86 91.5q-74 32 -111 82t-37 110q0 69 49.5 117t129.5 48t131 -35l20 -74q-63 36 -139 36q-66 0 -96.5 -30t-30.5 -70q0 -51 42.5 -87.5t99.5 -46.5q8 0 37 9.5t81 27.5t94 31l4 -85q-80 -19 -179 -57q-70 -30 -105.5 -78t-35.5 -103q0 -27 8 -55
t30 -60.5t56.5 -57t92.5 -41t132 -16.5q114 0 188 27l-16 -71q-63 -31 -180 -31q-171 0 -277 81.5t-106 223.5zM209 606q-25 -1 -41.5 16t-16.5 44q0 19 12 31.5t30 12.5q27 0 43.5 -17t16.5 -44q0 -18 -12.5 -30.5t-31.5 -12.5z" />
    <glyph glyph-name="uni0640" unicode="&#x640;" horiz-adv-x="265" 
d="M100 0q-56 0 -56 44q0 17 12 28.5t34 11.5h258q56 0 56 -45q0 -15 -9.5 -27t-29.5 -12h-265z" />
    <glyph glyph-name="uni0641" unicode="&#x641;" horiz-adv-x="899" 
d="M633 620q-25 -1 -41.5 16t-16.5 44q0 19 12 31.5t30 12.5q27 0 43.5 -17t16.5 -44q0 -18 -12.5 -30.5t-31.5 -12.5zM100 387l55 -5q-2 -22 -2 -47q0 -142 91 -208.5t248 -66.5q120 0 216.5 19t140.5 41q0 3 0.5 10.5t0.5 12.5v14q-81 -5 -142 10.5t-92.5 45t-46 61
t-14.5 64.5q0 58 29 96q40 54 103 54q87 0 155.5 -94.5t68.5 -256.5q0 -47 -4 -68q-45 -36 -162 -63t-246 -27q-95 0 -168.5 20.5t-117 52.5t-72 76.5t-38.5 88t-10 90.5t7 80zM617 337q0 -52 61 -83t164 -27q-16 79 -55.5 132.5t-95.5 53.5q-33 0 -53.5 -22t-20.5 -54z" />
    <glyph glyph-name="uni0642" unicode="&#x642;" horiz-adv-x="725" 
d="M405 535q-25 0 -40.5 16t-15.5 42q0 19 11.5 31.5t29.5 12.5q26 0 41.5 -16.5t15.5 -42.5q0 -18 -11.5 -30.5t-30.5 -12.5zM534 535q-25 0 -41 16.5t-16 41.5q0 19 12 31.5t30 12.5q26 0 41.5 -17t15.5 -42q0 -18 -12 -30.5t-30 -12.5zM133 288l54 -7q-6 -32 -6 -78
q0 -149 79 -227t193 -78q88 0 149.5 32t86.5 89v3q0 3 0.5 8t1 10.5t0.5 12v11.5v10q-24 -6 -70 -6q-98 0 -158.5 51.5t-60.5 138.5q0 62 40 104.5t94 42.5q89 0 153 -97t64 -255q0 -42 -4 -56q-23 -70 -100 -125t-193 -55q-146 0 -240.5 97.5t-94.5 260.5q0 68 12 113z
M619 147q31 0 65 4q-15 85 -56 133t-92 48q-32 0 -52.5 -22t-20.5 -52q0 -45 37.5 -78t118.5 -33z" />
    <glyph glyph-name="uni0643" unicode="&#x643;" horiz-adv-x="813" 
d="M99 248l57 10q9 -54 34 -90t66 -55t88 -26t113 -7q161 0 252 33q-5 37 -20 95l-125 512l70 5l131 -544q22 -90 19 -119q-131 -62 -325 -62q-98 0 -165.5 16t-108 49.5t-60 76.5t-26.5 106zM333 277l-24 41q48 1 85 12t52 22t15 19t-13 12t-51 6q-46 3 -62 16.5t-16 44.5
q0 40 31.5 77.5t82.5 48.5l16 -52q-42 -8 -64.5 -27.5t-22.5 -37.5t49 -20q50 -3 71 -16.5t21 -43.5q0 -43 -42 -73.5t-98 -30.5q-21 0 -30 2z" />
    <glyph glyph-name="uni0644" unicode="&#x644;" horiz-adv-x="644" 
d="M126 145q0 58 10 98l57 -9q-4 -44 -4 -69q0 -65 21.5 -112.5t56 -70.5t67.5 -33t67 -10q64 0 115 24t65 65q4 11 -8 55l-155 637l71 5l149 -618q11 -44 11 -70q0 -25 -13 -53q-26 -57 -92 -90.5t-146 -33.5q-122 0 -197 77t-75 208z" />
    <glyph glyph-name="uni0645" unicode="&#x645;" horiz-adv-x="767" 
d="M507 125q-9 -58 -24 -83q-31 -55 -118.5 -110t-173.5 -76l-48 48q233 104 291 204q11 20 27 132q27 162 129 162q79 0 140 -83t63 -165q0 -47 -26.5 -73.5t-69.5 -26.5q-88 0 -190 71zM519 203q34 -27 81.5 -47.5t86.5 -20.5q43 0 43 32q0 44 -44.5 102t-89.5 58
q-64 0 -77 -124z" />
    <glyph glyph-name="uni0646" unicode="&#x646;" horiz-adv-x="634" 
d="M124 141q2 65 13 98l59 -10q-7 -42 -7 -74q0 -111 65.5 -169t160.5 -58q71 0 121.5 30.5t67.5 81.5q5 11 5 24q0 37 -38.5 117t-106.5 175l67 24q140 -191 140 -324q0 -17 -6 -44q-21 -73 -92.5 -121t-163.5 -48q-125 0 -205 80t-80 218zM292 456q-25 0 -41.5 17
t-16.5 43q0 19 12 32t30 13q27 0 43.5 -17.5t16.5 -43.5q0 -18 -12.5 -31t-31.5 -13z" />
    <glyph glyph-name="uni0647" unicode="&#x647;" horiz-adv-x="442" 
d="M151 427l34 58q127 -78 192 -145q86 -89 86 -186q0 -74 -46.5 -118t-111.5 -44q-90 0 -144.5 63t-54.5 151q0 86 71 206q-5 3 -13.5 8t-12.5 7zM300 77q49 0 74.5 29.5t25.5 60.5q0 94 -170 210q-62 -95 -62 -166q0 -58 39.5 -96t92.5 -38z" />
    <glyph glyph-name="uni0648" unicode="&#x648;" horiz-adv-x="497" 
d="M149 -173l1 56q58 -28 128 -28q85 0 133.5 61t55.5 149q-30 -6 -72 -6q-92 0 -153.5 48t-61.5 135q0 63 40.5 109t97.5 46q97 0 154.5 -91t57.5 -212q0 -138 -66 -227t-173 -89q-86 0 -142 49zM391 139q50 0 74 7q-12 90 -56 136t-89 46q-37 0 -57.5 -24t-20.5 -58
q0 -54 44 -80.5t105 -26.5z" />
    <glyph glyph-name="uni0649" unicode="&#x649;" horiz-adv-x="713" 
d="M131 124q0 57 11 103l54 -7q-4 -67 -3 -82q2 -71 28.5 -123.5t67.5 -80t84 -40t87 -12.5q68 0 122 22.5t82 59.5q22 33 22 53q0 25 -22 40.5t-93 38.5l-59 19q-74 23 -104.5 50.5t-30.5 89.5q0 67 47 126q25 33 63.5 54t78.5 21q39 0 74 -22t54 -69l-36 -53
q-37 70 -100 70q-49 0 -84.5 -39.5t-35.5 -82.5q0 -25 17.5 -38t69.5 -30l78 -26q39 -13 59 -21t43.5 -23.5t33.5 -36.5t10 -51q0 -54 -36 -108q-38 -54 -106 -87.5t-145 -33.5q-153 0 -242 85t-89 234z" />
    <glyph glyph-name="uni064A" unicode="&#x64a;" horiz-adv-x="713" 
d="M131 124q0 57 11 103l54 -7q-4 -67 -3 -82q2 -71 28.5 -123.5t67.5 -80t84 -40t87 -12.5q68 0 122 22.5t82 59.5q22 33 22 53q0 25 -22 40.5t-93 38.5l-59 19q-74 23 -104.5 50.5t-30.5 89.5q0 67 47 126q25 33 63.5 54t78.5 21q39 0 74 -22t54 -69l-36 -53
q-37 70 -100 70q-49 0 -84.5 -39.5t-35.5 -82.5q0 -25 17.5 -38t69.5 -30l78 -26q39 -13 59 -21t43.5 -23.5t33.5 -36.5t10 -51q0 -54 -36 -108q-38 -54 -106 -87.5t-145 -33.5q-153 0 -242 85t-89 234zM475 -393q-25 -1 -41 15.5t-16 42.5q0 19 12 31.5t30 12.5
q26 0 41.5 -17t15.5 -43q0 -18 -11.5 -30t-30.5 -12zM603 -393q-24 -1 -40 15.5t-16 42.5q0 19 12 31.5t30 12.5q26 0 41.5 -17t15.5 -43q0 -18 -12 -30t-31 -12z" />
    <glyph glyph-name="uni064B" unicode="&#x64b;" 
d="M-82 766l-22 50q195 69 236 89l23 -53q-66 -32 -237 -86zM-113 890l-21 52q177 60 236 89l22 -54q-64 -30 -237 -87z" />
    <glyph glyph-name="uni064C" unicode="&#x64c;" 
d="M-63 770q-4 0 -12.5 0.5t-11.5 0.5q0 2 0.5 14t0.5 15q0 96 -41 96q-24 0 -45 -20l-6 48q22 22 59 22q51 0 65 -67q3 -13 6 -56q85 0 116 49q-54 4 -90 32.5t-36 72.5q0 36 23 58.5t57 22.5q39 0 71.5 -35.5t32.5 -101.5q0 -74 -54.5 -112.5t-134.5 -38.5zM83 920
q1 32 -16.5 62t-47.5 30q-17 0 -27 -10.5t-10 -25.5q0 -25 27.5 -40.5t73.5 -15.5z" />
    <glyph glyph-name="uni064D" unicode="&#x64d;" 
d="M245 -130l21 -54q-66 -31 -237 -87l-20 52q177 60 236 89zM214 -5l22 -54q-76 -36 -237 -86l-21 51q180 61 236 89z" />
    <glyph glyph-name="uni064E" unicode="&#x64e;" 
d="M-82 766l-21 50q199 71 236 89l22 -53q-66 -32 -237 -86z" />
    <glyph glyph-name="uni064F" unicode="&#x64f;" 
d="M-17 783q-39 0 -61 13l-3 39q23 -5 54 -5q27 0 52.5 11.5t33.5 31.5q-57 -5 -95 19.5t-38 74.5q0 34 23.5 58t58.5 24q38 0 71.5 -34t34.5 -99q0 -61 -40 -97t-91 -36zM71 913q1 35 -17 62.5t-49 27.5q-20 0 -29.5 -11t-9.5 -27q0 -24 26.5 -40t78.5 -12z" />
    <glyph glyph-name="uni0650" unicode="&#x650;" 
d="M214 -5l22 -54q-76 -36 -237 -86l-21 51q180 61 236 89z" />
    <glyph glyph-name="uni0651" unicode="&#x651;" 
d="M-38 781q-40 0 -60 31.5t-20 87.5v18l38 16q2 -36 7 -58q3 -18 13.5 -29.5t22.5 -11.5q49 0 17 118l36 16q25 -99 64 -99q13 0 21 8.5t7 22.5q-2 37 -40 87l42 18q41 -57 41 -115q0 -34 -17 -54t-43 -20q-37 0 -60 31q-5 -32 -25.5 -49.5t-43.5 -17.5z" />
    <glyph glyph-name="uni0652" unicode="&#x652;" 
d="M28 798q-48 0 -80 29t-32 87q0 40 22 72t58 32q49 0 86.5 -41.5t37.5 -97.5q0 -36 -27 -58.5t-65 -22.5zM24 846q52 0 52 42q0 33 -22 57t-48 24q-20 0 -33 -16t-13 -44q0 -30 17 -46.5t47 -16.5z" />
    <glyph glyph-name="uni0653" unicode="&#x653;" 
d="M-62 789l-47 15q-7 40 8 64.5t53 24.5q24 0 67.5 -13t63.5 -13q33 0 63 33l18 -42q-16 -47 -78 -47q-23 0 -64 12.5t-57 12.5q-29 0 -27 -47z" />
    <glyph glyph-name="uni0654" unicode="&#x654;" 
d="M-64 790l-3 46q15 11 41 11q-47 25 -47 73q0 33 26 53t64 20q53 0 84 -27l-6 -43q-34 22 -78 22q-21 0 -32 -9t-11 -21q0 -24 29 -42t72 -18h64l-9 -48h-64q-92 0 -130 -17z" />
    <glyph glyph-name="uni0655" unicode="&#x655;" 
d="M51 -231l-3 46q19 11 43 11q-49 28 -49 73q0 33 26.5 54t63.5 21q53 0 85 -26l-6 -45q-34 22 -78 22q-21 0 -32 -9t-11 -22q0 -24 28.5 -41.5t72.5 -17.5h64l-10 -50h-63q-93 0 -131 -16z" />
    <glyph glyph-name="uni0656" unicode="&#x656;" 
d="M135 -23l58 -242l-57 -4l-65 241z" />
    <glyph glyph-name="uni0657" unicode="&#x657;" 
d="M16 789q-42 0 -66 32.5t-24 81.5q0 63 47 105t105 34l5 -44q-40 1 -69 -20t-33 -59q40 4 68 -13t28 -56q1 -26 -17.5 -43.5t-43.5 -17.5z" />
    <glyph glyph-name="uni0658" unicode="&#x658;" 
d="M27 796q-48 0 -81 32.5t-51 111.5l41 11q32 -96 88 -96q65 0 65 105l43 -5q7 -76 -22.5 -117.5t-82.5 -41.5z" />
    <glyph glyph-name="uni0659" unicode="&#x659;" 
d="M-83 795l-3 56h247l2 -56h-246z" />
    <glyph glyph-name="uni065A" unicode="&#x65a;" 
d="M15 795q-35 58 -136 157l40 32q66 -61 115 -126q26 65 63 127l43 -27q-53 -93 -74 -163h-51z" />
    <glyph glyph-name="uni065B" unicode="&#x65b;" 
d="M35 973q33 -54 136 -157l-40 -32q-63 58 -114 126q-30 -70 -63 -127l-43 27q51 92 74 163h50z" />
    <glyph glyph-name="uni065C" unicode="&#x65c;" 
d="M119 -121q-24 0 -39.5 14.5t-15.5 38.5q0 20 13.5 34.5t34.5 14.5q23 0 38 -15t15 -40q0 -20 -13.5 -33.5t-32.5 -13.5z" />
    <glyph glyph-name="uni065D" unicode="&#x65d;" 
d="M80 783q-32 0 -63 8.5t-60.5 26.5t-47.5 51t-18 76q0 46 28 75t62 29q38 0 64.5 -26.5t26.5 -69.5q0 -34 -27.5 -58t-70.5 -28q65 -48 161 -35l3 -38q-19 -11 -58 -11zM-57 907q41 3 63.5 16.5t22.5 34.5q0 19 -13 32t-32 13q-18 0 -33.5 -14.5t-15.5 -41.5q0 -20 8 -40z
" />
    <glyph glyph-name="uni065E" unicode="&#x65e;" 
d="M-46 792l-31 32l162 186l35 -30zM-67 939q-17 0 -28 10.5t-11 28.5q0 13 9.5 23.5t24.5 10.5q17 0 27 -11t10 -29q0 -13 -9 -23t-23 -10zM113 786q-16 0 -26.5 10.5t-10.5 28.5q0 13 8.5 23.5t23.5 10.5q17 0 28 -11t11 -29q0 -14 -10 -23.5t-24 -9.5z" />
    <glyph glyph-name="uni0660" unicode="&#x660;" horiz-adv-x="255" 
d="M170 229q-36 0 -60 22.5t-24 60.5q0 30 20.5 53t52.5 23q37 0 60.5 -23t23.5 -62q0 -32 -21 -53t-52 -21z" />
    <glyph glyph-name="uni0661" unicode="&#x661;" horiz-adv-x="285" 
d="M278 0q-95 384 -280 651l78 9q85 -124 160 -305.5t116 -354.5h-74z" />
    <glyph glyph-name="uni0662" unicode="&#x662;" horiz-adv-x="483" 
d="M277 0q-94 378 -278 651l77 7q3 -6 19 -32t27.5 -43.5t18.5 -24.5q47 -53 125 -53q114 0 88 146l60 5q11 -33 11 -71q0 -71 -38 -114t-100 -43q-59 0 -102 30q43 -84 90 -211.5t75 -246.5h-73z" />
    <glyph glyph-name="uni0663" unicode="&#x663;" horiz-adv-x="532" 
d="M277 0q-92 375 -278 651l76 9q6 -8 59 -98q34 -55 83 -55q52 0 52 55q0 33 -23 89l54 4q20 -67 41 -92t46 -25q32 0 32 47q0 24 -14 66l53 5q22 -44 22 -98q0 -48 -19 -72.5t-50 -24.5q-45 0 -82 45q-3 -39 -24.5 -59t-51.5 -20q-39 0 -65 26q96 -191 163 -453h-74z" />
    <glyph glyph-name="uni0664" unicode="&#x664;" horiz-adv-x="450" 
d="M172 176q0 42 21.5 78.5t58.5 61.5q-84 6 -132 48.5t-48 102.5q0 69 57 123t146 73l36 -71q-91 -23 -132.5 -58.5t-41.5 -71.5t40 -60.5t120 -24.5q36 0 80 7l14 -70q-80 -20 -116 -57t-36 -77q0 -38 31.5 -68.5t97.5 -30.5q80 0 137 37l19 -73q-53 -48 -150 -48
q-78 0 -140 48t-62 131z" />
    <glyph glyph-name="uni0665" unicode="&#x665;" horiz-adv-x="510" 
d="M334 45q-82 0 -140 54t-82.5 129t-24.5 158q0 111 39.5 177t107.5 66q69 0 132.5 -62t99 -152.5t35.5 -176.5q0 -84 -41 -138.5t-126 -54.5zM325 129q112 0 112 122q0 33 -12.5 80t-35.5 95t-62.5 81.5t-85.5 33.5q-89 0 -89 -165q0 -35 8.5 -73.5t27 -79.5t54 -67.5
t83.5 -26.5z" />
    <glyph glyph-name="uni0666" unicode="&#x666;" horiz-adv-x="457" 
d="M443 0q-141 226 -201 572h-106q-99 0 -143 10l-4 77q40 -8 163 -8h151q7 -63 24 -152q23 -114 73.5 -254t120.5 -245h-78z" />
    <glyph glyph-name="uni0667" unicode="&#x667;" horiz-adv-x="533" 
d="M339 0q-170 411 -348 651l86 5q75 -108 161.5 -277.5t124.5 -282.5h3q-6 98 3.5 268.5t29.5 291.5l80 -5q-24 -102 -40.5 -296t-15.5 -355h-84z" />
    <glyph glyph-name="uni0668" unicode="&#x668;" horiz-adv-x="533" 
d="M123 0q24 104 41.5 302t15.5 348l84 6q184 -431 347 -656h-88q-70 102 -155.5 269t-124.5 276h-3q5 -96 -6 -259t-32 -286h-79z" />
    <glyph glyph-name="uni0669" unicode="&#x669;" horiz-adv-x="472" 
d="M464 0q-53 117 -114 313q-32 -7 -80 -7q-92 0 -160.5 54.5t-68.5 144.5q0 65 39.5 111t96.5 46q64 0 116 -54.5t93 -183.5q8 -25 31.5 -99t30.5 -96t24.5 -71t32.5 -83.5t34 -74.5h-75zM273 382q33 0 55 5q-32 113 -68.5 155.5t-80.5 42.5q-32 0 -53 -24.5t-21 -58.5
q0 -60 46.5 -90t121.5 -30z" />
    <glyph glyph-name="uni066A" unicode="&#x66a;" horiz-adv-x="548" 
d="M135 16q38 122 114.5 325t136.5 342l58 -39q-144 -330 -249 -665zM105 543q-28 0 -49 20.5t-21 50.5q0 21 12.5 34.5t33.5 13.5q29 0 50 -21t21 -50q0 -22 -12.5 -35t-34.5 -13zM424 72q0 21 13 34t34 13q28 0 48.5 -21t20.5 -51q0 -22 -12.5 -34.5t-33.5 -12.5
q-29 0 -49.5 20.5t-20.5 51.5z" />
    <glyph glyph-name="uni066B" unicode="&#x66b;" horiz-adv-x="381" 
d="M168 26q52 28 81 71.5t28 86.5q-46 -11 -79 9.5t-33 62.5q0 30 22.5 52t53.5 22q43 0 71 -36t28 -101t-37 -123t-85 -84z" />
    <glyph glyph-name="uni066C" unicode="&#x66c;" horiz-adv-x="381" 
d="M333 291q-52 -28 -81 -71.5t-27 -87.5q46 11 79 -9.5t33 -62.5q0 -30 -22.5 -52t-53.5 -22q-44 0 -72 36t-28 101q0 66 37.5 123.5t85.5 83.5z" />
    <glyph glyph-name="uni066D" unicode="&#x66d;" horiz-adv-x="636" 
d="M252 16l28 189l-188 111l2 7l200 -7l17 194h8l94 -194l200 7l3 -5l-145 -113l106 -189l-3 -4l-185 123l-130 -123z" />
    <glyph glyph-name="uni066E" unicode="&#x66e;" horiz-adv-x="883" 
d="M93 294q0 34 6 68l55 -8q-2 -28 -2 -37q0 -130 83.5 -193.5t257.5 -63.5q227 0 346 53q-8 94 -124 253l65 20q51 -65 88.5 -147t37.5 -156q0 -17 -2 -27q-161 -77 -400 -77q-116 0 -198 23t-127.5 67t-65.5 98.5t-20 126.5z" />
    <glyph glyph-name="uni066F" unicode="&#x66f;" horiz-adv-x="725" 
d="M133 288l54 -7q-6 -32 -6 -78q0 -149 79 -227t193 -78q88 0 149.5 32t86.5 89v3q0 3 0.5 8t1 10.5t0.5 12v11.5v10q-24 -6 -70 -6q-98 0 -158.5 51.5t-60.5 138.5q0 62 40 104.5t94 42.5q89 0 153 -97t64 -255q0 -42 -4 -56q-23 -70 -100 -125t-193 -55
q-146 0 -240.5 97.5t-94.5 260.5q0 68 12 113zM619 147q31 0 65 4q-15 85 -56 133t-92 48q-32 0 -52.5 -22t-20.5 -52q0 -45 37.5 -78t118.5 -33z" />
    <glyph glyph-name="uni0670" unicode="&#x670;" 
d="M15 797l-65 240l63 5l59 -241z" />
    <glyph glyph-name="uni0671" unicode="&#x671;" horiz-adv-x="248" 
d="M193 0l-174 720l69 5l176 -725h-71zM48 802q-30 0 -73 17.5t-54 17.5q-23 0 -37 -23l-12 53q12 26 40 26q12 0 22 -4q41 93 101 93q41 0 69 -31t28 -72q0 -35 -24 -56t-60 -21zM44 855q19 0 31 8.5t12 21.5q0 15 -13.5 29.5t-34.5 14.5q-40 2 -65 -58q30 -16 70 -16z" />
    <glyph glyph-name="uni0674" unicode="&#x674;" horiz-adv-x="296" 
d="M-6 730l-3 46q15 11 41 11q-47 25 -47 73q0 33 26 53t64 20q53 0 84 -27l-6 -43q-34 22 -78 22q-21 0 -32 -9t-11 -21q0 -24 29 -42t72 -18h64l-9 -48h-64q-92 0 -130 -17z" />
    <glyph glyph-name="uni0675" unicode="&#x675;" horiz-adv-x="316" 
d="M193 0l-174 720l69 5l176 -725h-71zM124 730l-3 46q15 11 43 11q-49 28 -49 73q0 34 26.5 55t63.5 21q52 0 85 -27l-6 -45q-35 23 -78 23q-21 0 -32 -9.5t-11 -22.5q0 -24 29 -41.5t72 -17.5h64l-10 -49h-63q-93 0 -131 -17z" />
    <glyph glyph-name="uni0676" unicode="&#x676;" horiz-adv-x="572" 
d="M482 561h64l-10 -49h-63q-93 0 -131 -17l-3 46q15 11 43 11q-49 28 -49 73q0 34 26.5 55t63.5 21q52 0 85 -27l-6 -45q-35 23 -78 23q-21 0 -32 -9.5t-11 -22.5q0 -24 29 -41.5t72 -17.5zM149 -173l1 56q58 -28 128 -28q85 0 133.5 61t55.5 149q-30 -6 -72 -6
q-92 0 -153.5 48t-61.5 135q0 63 40.5 109t97.5 46q97 0 154.5 -91t57.5 -212q0 -138 -66 -227t-173 -89q-86 0 -142 49zM391 139q50 0 74 7q-12 90 -56 136t-89 46q-37 0 -57.5 -24t-20.5 -58q0 -54 44 -80.5t105 -26.5z" />
    <glyph glyph-name="uni0677" unicode="&#x677;" horiz-adv-x="572" 
d="M78 467l-4 39q24 -5 54 -5q28 0 53 11t34 32q-58 -5 -96 19.5t-38 74.5q0 33 24 57.5t59 24.5q37 0 70.5 -34t34.5 -99q1 -61 -39 -97t-91 -36q-39 0 -61 13zM482 561h64l-10 -49h-63q-93 0 -131 -17l-3 46q15 11 43 11q-49 28 -49 73q0 34 26.5 55t63.5 21q52 0 85 -27
l-6 -45q-35 23 -78 23q-21 0 -32 -9.5t-11 -22.5q0 -24 29 -41.5t72 -17.5zM226 584q1 35 -17 62.5t-49 27.5q-19 0 -29 -11.5t-10 -26.5q0 -24 26.5 -40t78.5 -12zM149 -173l1 56q58 -28 128 -28q85 0 133.5 61t55.5 149q-30 -6 -72 -6q-92 0 -153.5 48t-61.5 135
q0 63 40.5 109t97.5 46q97 0 154.5 -91t57.5 -212q0 -138 -66 -227t-173 -89q-86 0 -142 49zM391 139q50 0 74 7q-12 90 -56 136t-89 46q-37 0 -57.5 -24t-20.5 -58q0 -54 44 -80.5t105 -26.5z" />
    <glyph glyph-name="uni0678" unicode="&#x678;" horiz-adv-x="872" 
d="M131 124q0 57 11 103l54 -7q-4 -67 -3 -82q2 -71 28.5 -123.5t67.5 -80t84 -40t87 -12.5q68 0 122 22.5t82 59.5q22 33 22 53q0 25 -22 40.5t-93 38.5l-59 19q-74 23 -104.5 50.5t-30.5 89.5q0 67 47 126q25 33 63.5 54t78.5 21q39 0 74 -22t54 -69l-36 -53
q-37 70 -100 70q-49 0 -84.5 -39.5t-35.5 -82.5q0 -25 17.5 -38t69.5 -30l78 -26q39 -13 59 -21t43.5 -23.5t33.5 -36.5t10 -51q0 -54 -36 -108q-38 -54 -106 -87.5t-145 -33.5q-153 0 -242 85t-89 234zM645 539l-3 46q15 11 43 11q-49 28 -49 73q0 34 26.5 55t63.5 21
q53 0 84 -27l-5 -45q-35 23 -78 23q-21 0 -32 -9.5t-11 -22.5q0 -24 29 -41.5t72 -17.5h64l-10 -49h-63q-93 0 -131 -17z" />
    <glyph glyph-name="uni0679" unicode="&#x679;" horiz-adv-x="883" 
d="M93 294q0 34 6 68l55 -8q-2 -28 -2 -37q0 -130 83.5 -193.5t257.5 -63.5q227 0 346 53q-8 94 -124 253l65 20q51 -65 88.5 -147t37.5 -156q0 -17 -2 -27q-161 -77 -400 -77q-116 0 -198 23t-127.5 67t-65.5 98.5t-20 126.5zM347 416l-37 51l57 -4q7 26 -6 78l-43 158
l43 3l29 -108q10 -30 10 -59q31 64 83 64q36 0 59 -24.5t23 -60.5q0 -48 -44.5 -73t-108.5 -25h-65zM405 464q118 0 118 50q0 14 -11 25.5t-28 11.5q-49 0 -79 -87z" />
    <glyph glyph-name="uni067E" unicode="&#x67e;" horiz-adv-x="883" 
d="M93 294q0 34 6 68l55 -8q-2 -28 -2 -37q0 -130 83.5 -193.5t257.5 -63.5q227 0 346 53q-8 94 -124 253l65 20q51 -65 88.5 -147t37.5 -156q0 -17 -2 -27q-161 -77 -400 -77q-116 0 -198 23t-127.5 67t-65.5 98.5t-20 126.5zM612 -263q24 0 40 -16.5t16 -42.5
q0 -18 -12 -30.5t-30 -12.5q-26 0 -41.5 17t-15.5 42q0 18 12 30.5t31 12.5zM654 -145q25 0 40.5 -16t15.5 -42q0 -19 -11.5 -31.5t-29.5 -12.5q-26 0 -42 17t-16 43q0 18 12 30t31 12zM525 -145q25 0 41 -16.5t16 -41.5q0 -19 -12 -31.5t-30 -12.5q-26 0 -41.5 17t-15.5 43
q0 18 12 30t30 12z" />
    <glyph glyph-name="uni0686" unicode="&#x686;" horiz-adv-x="645" 
d="M162 -48q0 64 29 118t76 88.5t97 55.5t102 30q-1 0 -54 19.5t-96.5 30t-82.5 10.5q-91 0 -139 -25l11 79q48 22 115 22q38 0 81.5 -9t67 -16.5t75.5 -27.5t62 -24q67 -24 102 -24l53 -1l-17 -82q-19 3 -64 3q-55 0 -118 -15q-100 -26 -159.5 -84.5t-59.5 -144.5
q0 -87 53 -148.5t135 -89t185 -27.5q92 0 154 15l-21 -72q-40 -17 -150 -17q-190 0 -313.5 90.5t-123.5 245.5zM529 -173q-23 0 -37 14.5t-14 38.5q0 17 10.5 28t26.5 11q24 0 38.5 -15t14.5 -39q0 -16 -11 -27t-28 -11zM455 -59q-22 -1 -36.5 14t-14.5 38q0 17 11 28.5
t27 11.5q24 0 38 -15t14 -39q0 -16 -10.5 -27t-28.5 -11zM573 -59q-22 -1 -36.5 14t-14.5 38q0 17 11 28.5t27 11.5q24 0 38 -15t14 -39q0 -16 -10.5 -27t-28.5 -11z" />
    <glyph glyph-name="uni0688" unicode="&#x688;" horiz-adv-x="480" 
d="M158 21l-32 82q57 -18 158 -18q116 0 155 35q-11 68 -79 151.5t-202 150.5l51 55q111 -55 193.5 -149t102.5 -196q8 -38 6 -58q-61 -74 -215 -74q-89 0 -138 21zM74 600l-37 51l57 -4q7 26 -6 78l-44 158l44 3l29 -108q8 -30 10 -59q31 64 83 64q35 0 58.5 -24.5
t23.5 -60.5q0 -48 -44.5 -73t-108.5 -25h-65zM131 648q119 0 119 50q0 14 -11 25.5t-28 11.5q-48 0 -80 -87z" />
    <glyph glyph-name="uni0691" unicode="&#x691;" horiz-adv-x="458" 
d="M158 -113q52 -30 122 -30q43 0 85 29.5t60 92.5q7 25 7 43q0 105 -158 327l66 31q61 -85 107.5 -183.5t46.5 -175.5q0 -40 -5 -56q-15 -84 -69.5 -135t-122.5 -51q-92 0 -139 47v61zM149 493l-38 51l57 -4q8 27 -6 78l-43 158l43 3l29 -108q10 -30 10 -59q31 64 83 64
q36 0 59 -24.5t23 -60.5q0 -48 -44.5 -73t-108.5 -25h-64zM206 541q118 0 118 50q0 14 -11 25.5t-28 11.5q-49 0 -79 -87z" />
    <glyph glyph-name="uni0698" unicode="&#x698;" horiz-adv-x="458" 
d="M158 -113q52 -30 122 -30q42 0 84 29.5t61 92.5q6 22 6 43q0 106 -157 327l65 31q61 -84 108 -183t47 -176q0 -34 -5 -56q-15 -84 -69.5 -135t-123.5 -51q-90 0 -139 47zM221 618q-24 0 -40 16.5t-16 41.5q0 19 12 31t30 12q26 0 41.5 -16.5t15.5 -42.5q0 -18 -12 -30
t-31 -12zM179 499q-25 0 -40.5 16t-15.5 42q0 19 11.5 31.5t29.5 12.5q26 0 42 -17t16 -42q0 -18 -12 -30.5t-31 -12.5zM308 499q-25 0 -41 16.5t-16 41.5q0 19 12 31.5t30 12.5q26 0 41.5 -16.5t15.5 -42.5q0 -18 -12 -30.5t-30 -12.5z" />
    <glyph glyph-name="uni06A1" unicode="&#x6a1;" horiz-adv-x="899" 
d="M100 387l55 -5q-2 -22 -2 -47q0 -142 91 -208.5t248 -66.5q120 0 216.5 19t140.5 41q0 3 0.5 10.5t0.5 12.5v14q-81 -5 -142 10.5t-92.5 45t-46 61t-14.5 64.5q0 58 29 96q40 54 103 54q87 0 155.5 -94.5t68.5 -256.5q0 -47 -4 -68q-45 -36 -162 -63t-246 -27
q-95 0 -168.5 20.5t-117 52.5t-72 76.5t-38.5 88t-10 90.5t7 80zM617 337q0 -52 61 -83t164 -27q-16 79 -55.5 132.5t-95.5 53.5q-33 0 -53.5 -22t-20.5 -54z" />
    <glyph glyph-name="uni06A4" unicode="&#x6a4;" horiz-adv-x="899" 
d="M610 739q-25 0 -40.5 16t-15.5 42q0 19 12 31t29 12q27 0 42.5 -16.5t15.5 -42.5q0 -18 -12 -30t-31 -12zM568 620q-25 0 -40.5 16t-15.5 42q0 19 11.5 31.5t29.5 12.5q26 0 41.5 -16.5t15.5 -42.5q0 -18 -11.5 -30.5t-30.5 -12.5zM640 678q0 19 12 31.5t30 12.5
q26 0 41.5 -17t15.5 -42q0 -18 -12 -30.5t-30 -12.5q-25 0 -41 16.5t-16 41.5zM100 387l55 -5q-2 -22 -2 -47q0 -142 91 -208.5t248 -66.5q120 0 216.5 19t140.5 41q0 3 0.5 10.5t0.5 12.5v14q-81 -5 -142 10.5t-92.5 45t-46 61t-14.5 64.5q0 58 29 96q40 54 103 54
q87 0 155.5 -94.5t68.5 -256.5q0 -47 -4 -68q-45 -36 -162 -63t-246 -27q-95 0 -168.5 20.5t-117 52.5t-72 76.5t-38.5 88t-10 90.5t7 80zM617 337q0 -52 61 -83t164 -27q-16 79 -55.5 132.5t-95.5 53.5q-33 0 -53.5 -22t-20.5 -54z" />
    <glyph glyph-name="uni06A9" unicode="&#x6a9;" horiz-adv-x="912" 
d="M535 -25q-242 0 -343.5 78.5t-90.5 247.5l57 -10q0 -124 86 -176.5t286 -52.5q89 0 154 9.5t99.5 25.5t50.5 33.5t16 36.5q0 26 -20 53.5t-67 66.5q-15 12 -32.5 24.5t-30.5 21.5t-34 21t-32 18.5t-35.5 19.5t-33 17.5t-38 19.5t-36.5 19q-9 42 -5 75q2 9 41 33
q56 38 160 86.5t197 79.5l-15 -86q-76 -24 -173.5 -67t-145.5 -75q57 -28 100 -52t95.5 -59t86.5 -67.5t57.5 -73t23.5 -80.5q0 -86 -109 -136.5t-269 -50.5z" />
    <glyph glyph-name="uni0643.z" unicode="&#x6aa;" horiz-adv-x="1082" 
d="M162 13l-54 93q90 -24 248 -24q112 0 218.5 5t268 17.5t195.5 14.5q-4 69 -60 103t-149 34q-83 0 -208 -10q-183 -10 -234 -10q-31 0 -54.5 2t-51.5 9.5t-46 20.5t-30.5 36.5t-12.5 55.5q0 76 84 156q83 80 236 157l-14 -92q-47 -21 -108 -62t-98 -83q-35 -41 -35 -71
q0 -56 120 -56q44 0 284 13q110 7 159 7q146 -1 213 -61.5t73 -171.5q4 -23 2 -53q-2 0 -102.5 -9t-191.5 -16t-216.5 -13.5t-212.5 -6.5q-169 0 -223 15z" />
    <glyph glyph-name="uni06AD" unicode="&#x6ad;" horiz-adv-x="813" 
d="M99 248l57 10q9 -54 34 -90t66 -55t88 -26t113 -7q161 0 252 33q-5 37 -20 95l-125 512l70 5l131 -544q22 -90 19 -119q-131 -62 -325 -62q-98 0 -165.5 16t-108 49.5t-60 76.5t-26.5 106zM333 277l-24 41q48 1 85 12t52 22t15 19t-13 12t-51 6q-46 3 -62 16.5t-16 44.5
q0 40 31.5 77.5t82.5 48.5l16 -52q-42 -8 -64.5 -27.5t-22.5 -37.5t49 -20q50 -3 71 -16.5t21 -43.5q0 -43 -42 -73.5t-98 -30.5q-21 0 -30 2zM294 794q-23 0 -38 15.5t-15 40.5q0 17 11.5 29t27.5 12q25 0 40 -16t15 -40q0 -17 -11.5 -29t-29.5 -12zM254 682q-24 0 -39 15
t-15 40q0 17 11.5 29t27.5 12q26 0 40.5 -15.5t14.5 -40.5q0 -17 -11 -28.5t-29 -11.5zM376 682q-23 0 -38 15t-15 40q0 17 11.5 29t27.5 12q25 0 40 -16t15 -40q0 -17 -11.5 -28.5t-29.5 -11.5z" />
    <glyph glyph-name="uni06AF" unicode="&#x6af;" horiz-adv-x="912" 
d="M535 -25q-242 0 -343.5 78.5t-90.5 247.5l57 -10q0 -124 86 -176.5t286 -52.5q89 0 154 9.5t99.5 25.5t50.5 33.5t16 36.5q0 26 -20 53.5t-67 66.5q-15 12 -32.5 24.5t-30.5 21.5t-34 21t-32 18.5t-35.5 19.5t-33 17.5t-38 19.5t-36.5 19q-9 42 -5 75q2 9 41 33
q56 38 160 86.5t197 79.5l-15 -86q-76 -24 -173.5 -67t-145.5 -75q57 -28 100 -52t95.5 -59t86.5 -67.5t57.5 -73t23.5 -80.5q0 -86 -109 -136.5t-269 -50.5zM493 713q58 36 153 81.5t189 79.5l-1 -65q-189 -67 -339 -158z" />
    <glyph glyph-name="uni06BA" unicode="&#x6ba;" horiz-adv-x="641" 
d="M124 141q2 65 13 98l59 -10q-7 -42 -7 -74q0 -111 65.5 -169t160.5 -58q71 0 121.5 30.5t67.5 81.5q5 11 5 24q0 37 -38.5 117t-106.5 175l67 24q140 -191 140 -324q0 -17 -6 -44q-21 -73 -92.5 -121t-163.5 -48q-125 0 -205 80t-80 218z" />
    <glyph glyph-name="uni06BE" unicode="&#x6be;" horiz-adv-x="695" 
d="M263 463l33 58q18 -11 85 -50.5t105 -63.5t63.5 -41.5t60.5 -47t56.5 -55.5t37 -61t15.5 -70q0 -65 -43 -102.5t-120 -37.5q-83 0 -162 37q-100 -58 -250 -61l-43 85q130 3 210 27q-100 82 -100 183q0 106 107 163zM273 267q0 -42 32 -82.5t83 -69.5q71 47 71 130
q0 63 -32 100.5t-58 37.5q-30 0 -63 -33.5t-33 -82.5zM546 69q110 0 110 67q0 84 -159 188q24 -39 24 -95q0 -83 -59 -146q44 -14 84 -14z" />
    <glyph glyph-name="uni06C0" unicode="&#x6c0;" horiz-adv-x="442" 
d="M268 581h-63q-93 0 -131 -17l-3 46q15 11 43 11q-49 28 -49 73q0 34 26.5 55t63.5 21q52 0 85 -27l-6 -45q-35 23 -78 23q-21 0 -32 -9.5t-11 -22.5q0 -24 29 -41.5t72 -17.5h64zM151 427l34 58q127 -78 192 -145q86 -89 86 -186q0 -74 -46.5 -118t-111.5 -44
q-90 0 -144.5 63t-54.5 151q0 86 71 206q-5 3 -13.5 8t-12.5 7zM300 77q49 0 74.5 29.5t25.5 60.5q0 94 -170 210q-62 -95 -62 -166q0 -58 39.5 -96t92.5 -38z" />
    <glyph glyph-name="uni06C1" unicode="&#x6c1;" horiz-adv-x="442" 
d="M151 427l34 58q127 -78 192 -145q86 -89 86 -186q0 -74 -46.5 -118t-111.5 -44q-90 0 -144.5 63t-54.5 151q0 86 71 206q-5 3 -13.5 8t-12.5 7zM300 77q49 0 74.5 29.5t25.5 60.5q0 94 -170 210q-62 -95 -62 -166q0 -58 39.5 -96t92.5 -38z" />
    <glyph glyph-name="uni06C2" unicode="&#x6c2;" horiz-adv-x="442" 
d="M268 581h-63q-93 0 -131 -17l-3 46q15 11 43 11q-49 28 -49 73q0 34 26.5 55t63.5 21q52 0 85 -27l-6 -45q-35 23 -78 23q-21 0 -32 -9.5t-11 -22.5q0 -24 29 -41.5t72 -17.5h64zM151 427l34 58q127 -78 192 -145q86 -89 86 -186q0 -74 -46.5 -118t-111.5 -44
q-90 0 -144.5 63t-54.5 151q0 86 71 206q-5 3 -13.5 8t-12.5 7zM300 77q49 0 74.5 29.5t25.5 60.5q0 94 -170 210q-62 -95 -62 -166q0 -58 39.5 -96t92.5 -38z" />
    <glyph glyph-name="uni06C3" unicode="&#x6c3;" horiz-adv-x="442" 
d="M157 617q0 -18 -12 -30.5t-31 -12.5q-25 0 -40.5 16t-15.5 42q0 19 11.5 31.5t29.5 12.5q26 0 42 -17t16 -42zM243 574q-25 0 -41 16.5t-16 41.5q0 19 12 31.5t30 12.5q26 0 41.5 -17t15.5 -42q0 -18 -12 -30.5t-30 -12.5zM151 427l34 58q127 -78 192 -145
q86 -89 86 -186q0 -74 -46.5 -118t-111.5 -44q-90 0 -144.5 63t-54.5 151q0 86 71 206q-5 3 -13.5 8t-12.5 7zM300 77q49 0 74.5 29.5t25.5 60.5q0 94 -170 210q-62 -95 -62 -166q0 -58 39.5 -96t92.5 -38z" />
    <glyph glyph-name="uni06C5" unicode="&#x6c5;" horiz-adv-x="500" 
d="M208 -5h252q8 31 10 70q-28 -6 -72 -6q-93 0 -155.5 48t-62.5 135q0 64 40.5 109.5t97.5 45.5q97 0 156.5 -92.5t59.5 -213.5q0 -142 -66 -233.5t-173 -91.5q-87 0 -143 48l1 56q62 -28 128 -28q114 0 162 104l-224 -1zM391 139q48 0 76 7q-12 88 -56.5 135t-91.5 47
q-38 0 -58 -23.5t-20 -58.5q0 -54 43.5 -80.5t106.5 -26.5z" />
    <glyph glyph-name="uni06C6" unicode="&#x6c6;" horiz-adv-x="497" 
d="M276 524h-51q-35 58 -136 157l40 32q66 -61 115 -126q26 65 63 127l43 -27q-53 -93 -74 -163zM149 -173l1 56q58 -28 128 -28q85 0 133.5 61t55.5 149q-30 -6 -72 -6q-92 0 -153.5 48t-61.5 135q0 63 40.5 109t97.5 46q97 0 154.5 -91t57.5 -212q0 -138 -66 -227
t-173 -89q-86 0 -142 49zM391 139q50 0 74 7q-12 90 -56 136t-89 46q-37 0 -57.5 -24t-20.5 -58q0 -54 44 -80.5t105 -26.5z" />
    <glyph glyph-name="uni06C7" unicode="&#x6c7;" horiz-adv-x="497" 
d="M132 525l-3 39q22 -5 54 -5q27 0 52.5 11.5t33.5 31.5q-57 -5 -95 19.5t-38 74.5q0 34 23.5 58t58.5 24q38 0 71.5 -34t34.5 -99q0 -61 -40 -97t-91 -36q-39 0 -61 13zM176 694q0 -24 26.5 -40t78.5 -12q1 35 -17 62.5t-49 27.5q-20 0 -29.5 -11t-9.5 -27zM149 -173l1 56
q58 -28 128 -28q85 0 133.5 61t55.5 149q-30 -6 -72 -6q-92 0 -153.5 48t-61.5 135q0 63 40.5 109t97.5 46q97 0 154.5 -91t57.5 -212q0 -138 -66 -227t-173 -89q-86 0 -142 49zM391 139q50 0 74 7q-12 90 -56 136t-89 46q-37 0 -57.5 -24t-20.5 -58q0 -54 44 -80.5
t105 -26.5z" />
    <glyph glyph-name="uni06C8" unicode="&#x6c8;" horiz-adv-x="497" 
d="M282 530l-57 -4l-65 240l63 5zM149 -173l1 56q58 -28 128 -28q85 0 133.5 61t55.5 149q-30 -6 -72 -6q-92 0 -153.5 48t-61.5 135q0 63 40.5 109t97.5 46q97 0 154.5 -91t57.5 -212q0 -138 -66 -227t-173 -89q-86 0 -142 49zM391 139q50 0 74 7q-12 90 -56 136t-89 46
q-37 0 -57.5 -24t-20.5 -58q0 -54 44 -80.5t105 -26.5z" />
    <glyph glyph-name="uni06C9" unicode="&#x6c9;" horiz-adv-x="497" 
d="M381 545l-40 -32q-63 58 -114 126q-30 -70 -63 -127l-43 27q51 92 74 163h50q33 -54 136 -157zM149 -173l1 56q58 -28 128 -28q85 0 133.5 61t55.5 149q-30 -6 -72 -6q-92 0 -153.5 48t-61.5 135q0 63 40.5 109t97.5 46q97 0 154.5 -91t57.5 -212q0 -138 -66 -227
t-173 -89q-86 0 -142 49zM391 139q50 0 74 7q-12 90 -56 136t-89 46q-37 0 -57.5 -24t-20.5 -58q0 -54 44 -80.5t105 -26.5z" />
    <glyph glyph-name="uni06CB" unicode="&#x6cb;" horiz-adv-x="497" 
d="M225 648q-24 0 -40 16.5t-16 41.5q0 19 12 31t30 12q26 0 41.5 -16.5t15.5 -42.5q0 -18 -12 -30t-31 -12zM226 572q0 -18 -12 -30.5t-31 -12.5q-25 0 -40.5 16t-15.5 42q0 19 11.5 31.5t29.5 12.5q26 0 42 -17t16 -42zM255 587q0 19 12 31.5t30 12.5q26 0 41.5 -17
t15.5 -42q0 -18 -12 -30.5t-30 -12.5q-25 0 -41 16.5t-16 41.5zM149 -173l1 56q58 -28 128 -28q85 0 133.5 61t55.5 149q-30 -6 -72 -6q-92 0 -153.5 48t-61.5 135q0 63 40.5 109t97.5 46q97 0 154.5 -91t57.5 -212q0 -138 -66 -227t-173 -89q-86 0 -142 49zM391 139
q50 0 74 7q-12 90 -56 136t-89 46q-37 0 -57.5 -24t-20.5 -58q0 -54 44 -80.5t105 -26.5z" />
    <glyph glyph-name="uni06CC" unicode="&#x6cc;" horiz-adv-x="713" 
d="M131 124q0 57 11 103l54 -7q-4 -67 -3 -82q2 -71 28.5 -123.5t67.5 -80t84 -40t87 -12.5q68 0 122 22.5t82 59.5q22 33 22 53q0 25 -22 40.5t-93 38.5l-59 19q-74 23 -104.5 50.5t-30.5 89.5q0 67 47 126q25 33 63.5 54t78.5 21q39 0 74 -22t54 -69l-36 -53
q-37 70 -100 70q-49 0 -84.5 -39.5t-35.5 -82.5q0 -25 17.5 -38t69.5 -30l78 -26q39 -13 59 -21t43.5 -23.5t33.5 -36.5t10 -51q0 -54 -36 -108q-38 -54 -106 -87.5t-145 -33.5q-153 0 -242 85t-89 234z" />
    <glyph glyph-name="uni06D0" unicode="&#x6d0;" horiz-adv-x="713" 
d="M131 124q0 57 11 103l54 -7q-4 -67 -3 -82q2 -71 28.5 -123.5t67.5 -80t84 -40t87 -12.5q68 0 122 22.5t82 59.5q22 33 22 53q0 25 -22 40.5t-93 38.5l-59 19q-74 23 -104.5 50.5t-30.5 89.5q0 67 47 126q25 33 63.5 54t78.5 21q39 0 74 -22t54 -69l-36 -53
q-37 70 -100 70q-49 0 -84.5 -39.5t-35.5 -82.5q0 -25 17.5 -38t69.5 -30l78 -26q39 -13 59 -21t43.5 -23.5t33.5 -36.5t10 -51q0 -54 -36 -108q-38 -54 -106 -87.5t-145 -33.5q-153 0 -242 85t-89 234zM536 -383q-25 0 -40.5 16t-15.5 42q0 19 12 31.5t29 12.5q26 0 42 -17
t16 -43q0 -18 -12 -30t-31 -12zM564 -515q-25 0 -41 16.5t-16 42.5q0 18 12 30.5t30 12.5q26 0 41.5 -16.5t15.5 -42.5q0 -18 -11.5 -30.5t-30.5 -12.5z" />
    <glyph glyph-name="uni06D2" unicode="&#x6d2;" horiz-adv-x="1100" 
d="M118 141q0 50 22.5 94t57.5 71q13 11 45.5 34.5t49.5 38.5q45 39 77 105q18 38 35 50.5t41 12.5q40 0 79 -47.5t65 -116.5l-49 -40q-52 121 -89 121q-15 0 -26 -22q-33 -67 -43 -80q-33 -47 -122 -100q-37 -23 -58.5 -52t-21.5 -55q0 -34 42 -51t148 -17q102 0 227 3.5
t187 6.5t210 11t152 8l-27 -84q-439 -32 -770 -32q-232 0 -232 141z" />
    <glyph glyph-name="uni06D3" unicode="&#x6d3;" horiz-adv-x="1100" 
d="M118 141q0 50 22.5 94t57.5 71q13 11 45.5 34.5t49.5 38.5q45 39 77 105q18 38 35 50.5t41 12.5q40 0 79 -47.5t65 -116.5l-49 -40q-52 121 -89 121q-15 0 -26 -22q-33 -67 -43 -80q-33 -47 -122 -100q-37 -23 -58.5 -52t-21.5 -55q0 -34 42 -51t148 -17q102 0 227 3.5
t187 6.5t210 11t152 8l-27 -84q-439 -32 -770 -32q-232 0 -232 141zM129 582l-3 46q15 11 43 11q-49 28 -49 73q0 34 26.5 55t63.5 21q53 0 84 -27l-5 -45q-35 23 -78 23q-21 0 -32 -9.5t-11 -22.5q0 -24 29 -41.5t72 -17.5h64l-10 -49h-63q-93 0 -131 -17z" />
    <glyph glyph-name="uni06D4" unicode="&#x6d4;" horiz-adv-x="415" 
d="M128 32l-2 53h125q147 0 209 17l-1 -82q-31 -20 -128 -20q-150 0 -203 32z" />
    <glyph glyph-name="uni06D5" unicode="&#x6d5;" horiz-adv-x="442" 
d="M151 427l34 58q127 -78 192 -145q86 -89 86 -186q0 -74 -46.5 -118t-111.5 -44q-90 0 -144.5 63t-54.5 151q0 86 71 206q-5 3 -13.5 8t-12.5 7zM300 77q49 0 74.5 29.5t25.5 60.5q0 94 -170 210q-62 -95 -62 -166q0 -58 39.5 -96t92.5 -38z" />
    <glyph glyph-name="uni06F0" unicode="&#x6f0;" horiz-adv-x="255" 
d="M170 229q-36 0 -60 22.5t-24 60.5q0 30 20.5 53t52.5 23q37 0 60.5 -23t23.5 -62q0 -32 -21 -53t-52 -21z" />
    <glyph glyph-name="uni06F1" unicode="&#x6f1;" horiz-adv-x="285" 
d="M278 0q-95 384 -280 651l78 9q85 -124 160 -305.5t116 -354.5h-74z" />
    <glyph glyph-name="uni06F2" unicode="&#x6f2;" horiz-adv-x="483" 
d="M277 0q-94 378 -278 651l77 7q3 -6 19 -32t27.5 -43.5t18.5 -24.5q47 -53 125 -53q114 0 88 146l60 5q11 -33 11 -71q0 -71 -38 -114t-100 -43q-59 0 -102 30q43 -84 90 -211.5t75 -246.5h-73z" />
    <glyph glyph-name="uni06F3" unicode="&#x6f3;" horiz-adv-x="532" 
d="M277 0q-92 375 -278 651l76 9q6 -8 59 -98q34 -55 83 -55q52 0 52 55q0 33 -23 89l54 4q20 -67 41 -92t46 -25q32 0 32 47q0 24 -14 66l53 5q22 -44 22 -98q0 -48 -19 -72.5t-50 -24.5q-45 0 -82 45q-3 -39 -24.5 -59t-51.5 -20q-39 0 -65 26q96 -191 163 -453h-74z" />
    <glyph glyph-name="uni06F4" unicode="&#x6f4;" horiz-adv-x="533" 
d="M294 0q-37 143 -113 320.5t-182 330.5l79 5q27 -35 66 -113q8 48 46 83.5t95 35.5q85 0 137 -59l-15 -62q-58 48 -117 48q-56 0 -80.5 -32.5t-24.5 -65.5q0 -31 44 -64t104 -33q49 0 82.5 15.5t63.5 51.5l40 -58q-49 -83 -164 -83q-70 0 -119 35q38 -73 77.5 -183
t53.5 -172h-73z" />
    <glyph glyph-name="uni06F5" unicode="&#x6f5;" horiz-adv-x="529" 
d="M273 0q-54 0 -93 42t-55.5 100t-16.5 121q0 166 93 388l54 6q66 -74 109 -128t87 -121.5t66 -132.5t22 -129t-25.5 -105t-70.5 -41q-64 0 -93 72q-8 -34 -29.5 -53t-47.5 -19zM262 90q17 0 26.5 7.5t16.5 35t-5 82.5h54q16 -76 35 -100.5t44 -24.5q18 0 28.5 18.5
t10.5 51.5q0 175 -232 407q-65 -147 -65 -303q0 -84 27.5 -129t59.5 -45z" />
    <glyph glyph-name="uni06F6" unicode="&#x6f6;" horiz-adv-x="508" 
d="M135 0q12 78 45.5 168t72.5 137q-73 20 -119.5 68.5t-46.5 123.5q0 46 21 85q20 36 57.5 58t83.5 22q81 0 127 -46l-3 -69q-52 40 -120 40q-52 0 -77 -28.5t-25 -63.5q0 -41 26.5 -70.5t57.5 -40.5t59 -11q9 0 21.5 4.5t31 13.5t34.5 17.5t43 23.5t44 24l36 -75
q-13 -6 -33.5 -15.5t-29.5 -14t-24 -11.5t-22 -10.5t-17.5 -9.5t-16 -9t-13 -8t-12.5 -9t-10.5 -9t-10.5 -11q-30 -33 -59.5 -110.5t-44.5 -163.5h-76z" />
    <glyph glyph-name="uni06F7" unicode="&#x6f7;" horiz-adv-x="533" 
d="M339 0q-170 411 -348 651l86 5q75 -108 161.5 -277.5t124.5 -282.5h3q-6 98 3.5 268.5t29.5 291.5l80 -5q-24 -102 -40.5 -296t-15.5 -355h-84z" />
    <glyph glyph-name="uni06F8" unicode="&#x6f8;" horiz-adv-x="533" 
d="M123 0q24 104 41.5 302t15.5 348l84 6q184 -431 347 -656h-88q-70 102 -155.5 269t-124.5 276h-3q5 -96 -6 -259t-32 -286h-79z" />
    <glyph glyph-name="uni06F9" unicode="&#x6f9;" horiz-adv-x="472" 
d="M464 0q-53 117 -114 313q-32 -7 -80 -7q-92 0 -160.5 54.5t-68.5 144.5q0 65 39.5 111t96.5 46q64 0 116 -54.5t93 -183.5q8 -25 31.5 -99t30.5 -96t24.5 -71t32.5 -83.5t34 -74.5h-75zM273 382q33 0 55 5q-32 113 -68.5 155.5t-80.5 42.5q-32 0 -53 -24.5t-21 -58.5
q0 -60 46.5 -90t121.5 -30z" />
    <glyph glyph-name="uni1E0C" unicode="&#x1e0c;" horiz-adv-x="647" 
d="M32 5l125 660q75 13 168 13q170 0 248 -89q63 -67 63 -183q0 -93 -35.5 -177.5t-99.5 -138.5q-111 -95 -305 -95q-91 0 -164 10zM230 604l-103 -535q39 -5 87 -5q155 0 242 90q92 95 92 249q0 208 -227 208q-59 0 -91 -7zM239 -183q-20 0 -33 14t-13 35q0 22 15 38t36 16
q22 0 35 -14t13 -35q0 -24 -14.5 -39t-38.5 -15z" />
    <glyph glyph-name="uni1E0D" unicode="&#x1e0d;" horiz-adv-x="525" 
d="M460 710h82l-105 -556q-17 -84 -21 -154h-76l13 96h-2q-68 -107 -174 -107q-68 0 -106.5 49t-38.5 127q0 132 87 231t213 99q49 0 85 -17zM371 238l33 170q-32 21 -80 21q-85 0 -145.5 -77t-60.5 -176q0 -51 21 -85t70 -34q50 0 98.5 51.5t63.5 129.5zM229 -183
q-20 0 -33 14t-13 35q0 23 15 38.5t37 15.5q21 0 34 -14t13 -35q0 -24 -14.5 -39t-38.5 -15z" />
    <glyph glyph-name="uni1E0E" unicode="&#x1e0e;" horiz-adv-x="647" 
d="M32 5l125 660q75 13 168 13q170 0 248 -89q63 -67 63 -183q0 -93 -35.5 -177.5t-99.5 -138.5q-111 -95 -305 -95q-91 0 -164 10zM230 604l-103 -535q39 -5 87 -5q155 0 242 90q92 95 92 249q0 208 -227 208q-59 0 -91 -7zM141 -103h220l-11 -58h-220z" />
    </font>
</defs>
</svg>
